<?xml version="1.0" encoding="UTF-8" standalone="no"?>
<svg
   xmlns:dc="http://purl.org/dc/elements/1.1/"
   xmlns:cc="http://creativecommons.org/ns#"
   xmlns:rdf="http://www.w3.org/1999/02/22-rdf-syntax-ns#"
   xmlns:svg="http://www.w3.org/2000/svg"
   xmlns="http://www.w3.org/2000/svg"
   xmlns:sodipodi="http://sodipodi.sourceforge.net/DTD/sodipodi-0.dtd"
   xmlns:inkscape="http://www.inkscape.org/namespaces/inkscape"
   viewBox="0 0 1001 1003"
   version="1.1"
   id="svg604"
   sodipodi:docname="programming_club.svg"
   inkscape:version="1.0.1 (3bc2e813f5, 2020-09-07)">
  <metadata
     id="metadata610">
    <rdf:RDF>
      <cc:Work
         rdf:about="">
        <dc:format>image/svg+xml</dc:format>
        <dc:type
           rdf:resource="http://purl.org/dc/dcmitype/StillImage" />
      </cc:Work>
    </rdf:RDF>
  </metadata>
  <defs
     id="defs608" />
  <sodipodi:namedview
     pagecolor="#ffffff"
     bordercolor="#666666"
     borderopacity="1"
     objecttolerance="10"
     gridtolerance="10"
     guidetolerance="10"
     inkscape:pageopacity="0"
     inkscape:pageshadow="2"
     inkscape:window-width="1920"
     inkscape:window-height="1001"
     id="namedview606"
     showgrid="false"
     inkscape:zoom="0.5851432"
     inkscape:cx="542.63251"
     inkscape:cy="555.78356"
     inkscape:window-x="-9"
     inkscape:window-y="-9"
     inkscape:window-maximized="1"
     inkscape:current-layer="g602" />
  <title
     id="title2">112-installing</title>
  <g
     style="isolation:isolate"
     id="g602"
     transform="translate(1.2084337,1.2084337)">
    <g
       style="opacity:0.39"
       id="g12"
       transform="matrix(1.2245766,0,0,1.1389699,-155.8712,-139.42307)">
      <circle
         cx="178.133"
         cy="460.724"
         r="20.388"
         style="fill:#ffffff"
         id="circle6" />
      <circle
         cx="178.133"
         cy="460.724"
         r="8.7379999"
         style="fill:#ffffff"
         id="circle8" />
      <path
         d="m 209.378,430.976 -12.612,7.282 0.019,0.032 a 29.053,29.053 0 0 0 -2.907,-2.232 l 0.034,0.01 3.769,-14.068 a 4.37,4.37 0 0 0 -3.089,-5.351 l -9.847,-2.638 a 4.369,4.369 0 0 0 -5.35,3.089 l -3.769,14.067 h 0.021 a 29.07,29.07 0 0 0 -3.6,0.474 l 0.016,-0.01 -7.281,-12.611 a 4.368,4.368 0 0 0 -5.968,-1.6 l -8.828,5.1 a 4.367,4.367 0 0 0 -1.6,5.967 l 7.281,12.612 0.016,-0.009 a 29.1,29.1 0 0 0 -2.212,2.884 l 0.006,-0.02 -14.067,-3.77 a 4.369,4.369 0 0 0 -5.35,3.09 l -2.639,9.846 a 4.37,4.37 0 0 0 3.09,5.351 l 14.066,3.769 0.009,-0.034 a 28.96,28.96 0 0 0 0.479,3.633 l -0.018,-0.032 -12.612,7.281 a 4.37,4.37 0 0 0 -1.6,5.968 l 5.1,8.828 a 4.368,4.368 0 0 0 5.968,1.6 l 12.611,-7.281 -0.028,-0.048 a 29.064,29.064 0 0 0 2.944,2.255 l -0.061,-0.016 -3.769,14.066 a 4.369,4.369 0 0 0 3.089,5.351 l 9.847,2.638 a 4.369,4.369 0 0 0 5.35,-3.089 l 3.769,-14.067 -0.074,-0.02 a 28.663,28.663 0 0 0 3.706,-0.487 l -0.065,0.038 7.282,12.611 a 4.368,4.368 0 0 0 5.968,1.6 l 8.828,-5.1 a 4.369,4.369 0 0 0 1.6,-5.967 l -7.281,-12.612 -0.065,0.037 a 28.875,28.875 0 0 0 2.275,-2.966 l -0.02,0.074 14.066,3.77 a 4.369,4.369 0 0 0 5.351,-3.09 l 2.638,-9.846 a 4.368,4.368 0 0 0 -3.089,-5.351 l -14.075,-3.764 -0.017,0.061 a 28.938,28.938 0 0 0 -0.481,-3.677 l 0.028,0.049 12.612,-7.281 a 4.37,4.37 0 0 0 1.6,-5.968 l -5.1,-8.828 a 4.369,4.369 0 0 0 -5.964,-1.6 z"
         transform="translate(0.5,0.5)"
         style="fill:#ffffff"
         id="path10" />
    </g>
    <ellipse
       cx="214.86195"
       cy="114.40549"
       style="opacity:0.39;fill:#ffffff;stroke-width:1.181"
       id="circle14"
       rx="63.124466"
       ry="58.71162" />
    <polygon
       points="329.883,207.236 329.797,237.509 301.95,253.692 302.036,223.418 "
       style="fill:none;stroke:#1e223b;stroke-width:2px;stroke-linecap:round;stroke-linejoin:round"
       id="polygon16"
       transform="matrix(1.2245766,0,0,1.1389699,-155.8712,-139.42307)" />
    <polygon
       points="303.537,192.025 329.883,207.236 302.036,223.418 275.69,208.208 "
       style="fill:none;stroke:#1e223b;stroke-width:2px;stroke-linecap:round;stroke-linejoin:round"
       id="polygon18"
       transform="matrix(1.2245766,0,0,1.1389699,-155.8712,-139.42307)" />
    <polygon
       points="303.537,192.025 329.883,207.236 302.036,223.418 275.69,208.208 "
       style="fill:#028b9e;stroke:#1e223b;stroke-width:2px;stroke-linecap:round;stroke-linejoin:round"
       id="polygon20"
       transform="matrix(1.2245766,0,0,1.1389699,-155.8712,-139.42307)" />
    <polygon
       points="301.95,253.692 275.604,238.481 275.69,208.208 302.036,223.418 "
       style="opacity:0.4;fill:#028b9e;stroke:#1e223b;stroke-width:2px;stroke-linecap:round;stroke-linejoin:round"
       id="polygon22"
       transform="matrix(1.2245766,0,0,1.1389699,-155.8712,-139.42307)" />
    <polygon
       points="301.95,253.692 275.604,238.481 275.69,208.208 302.036,223.418 "
       style="fill:none;stroke:#1e223b;stroke-width:2px;stroke-linecap:round;stroke-linejoin:round"
       id="polygon24"
       transform="matrix(1.2245766,0,0,1.1389699,-155.8712,-139.42307)" />
    <ellipse
       cx="214.86195"
       cy="114.40549"
       style="fill:none;stroke:#1e223b;stroke-width:2.36198px;stroke-linecap:round;stroke-linejoin:round"
       id="circle26"
       rx="63.124466"
       ry="58.71162" />
    <rect
       x="286.8132"
       y="570.99451"
       width="389.41531"
       height="271.07483"
       rx="22.042376"
       style="opacity:0.11;mix-blend-mode:multiply;fill:#161616;stroke:#1e223b;stroke-width:1.181;stroke-miterlimit:10"
       id="rect28" />
    <rect
       x="286.8132"
       y="555.04895"
       width="389.41531"
       height="15.945579"
       rx="8.5720348"
       style="opacity:0.11;mix-blend-mode:multiply;fill:#161616;stroke:#1e223b;stroke-width:1.181;stroke-miterlimit:10"
       id="rect30" />
    <rect
       x="274.56741"
       y="561.88287"
       width="389.41531"
       height="271.07483"
       rx="22.042376"
       style="fill:#2f4584;stroke-width:1.181"
       id="rect32" />
    <rect
       x="274.56741"
       y="561.88287"
       width="389.41531"
       height="264.241"
       rx="22.042376"
       style="fill:#ffffff;stroke-width:1.181"
       id="rect34" />
    <path
       d="m 527.44245,809.98346 h -1.83685 a 7.3474587,6.8338191 0 0 0 -7.34746,6.83383 v 8.16868 a 3.67374,3.4169194 0 0 1 -7.34748,0 v -8.16868 a 7.3474587,6.8338191 0 0 0 -7.34745,-6.83383 h -1.83685 a 7.3474587,6.8338191 0 0 0 -7.34747,6.83383 v 8.16868 a 3.6737336,3.4169135 0 0 1 -7.34746,0 v -8.16868 a 7.3474587,6.8338191 0 0 0 -7.34746,-6.83383 h -1.83686 a 7.3474587,6.8338191 0 0 0 -7.34746,6.83383 v 8.16868 a 3.6737294,3.4169095 0 0 1 -7.34745,0 v -51.25364 a 7.3474587,6.8338191 0 0 0 -7.34747,-6.83382 h -1.83686 a 7.3474587,6.8338191 0 0 0 -7.34746,6.83382 v 89.33282 l -14.09243,-22.70308 a 7.3474587,6.8338191 0 0 0 -10.04152,-2.50575 l -1.59195,0.85424 a 7.3474587,6.8338191 0 0 0 -2.69407,9.33956 l 29.44373,47.43239 a 14.694917,13.667638 0 0 0 13.66136,8.65618 h 2.44916 v 28.07901 h -4.83585 v 28.32164 h -2.36712 a 7.9426028,7.3873584 0 0 0 -7.94259,7.38734 v 34.46762 h 84.1982 v -34.46762 a 7.9426028,7.3873584 0 0 0 -7.9426,-7.38734 h -2.37935 V 932.2177 h -4.83954 v -28.07901 h 2.44915 a 14.694917,13.667638 0 0 0 14.69493,-13.66764 v -73.65376 a 7.3474587,6.8338191 0 0 0 -7.34747,-6.83383 z"
       style="opacity:0.11;mix-blend-mode:multiply;fill:#161616;stroke:#1e223b;stroke-width:1.181;stroke-miterlimit:10"
       id="path36" />
    <path
       d="m 386.69454,805.62234 a 14.694917,13.667638 0 0 0 14.63001,-12.44894 l 27.08887,-43.63963 a 7.3474587,6.8338191 0 0 0 -2.69408,-9.33955 L 424.12739,739.34 a 7.3474587,6.8338191 0 0 0 -10.04151,2.50573 l -12.70499,20.46842 v -87.09928 a 7.3474587,6.8338191 0 0 0 -7.34747,-6.83383 h -1.83686 a 7.3474587,6.8338191 0 0 0 -7.34746,6.83383 v 51.25363 a 3.6737294,3.4169095 0 0 1 -7.34745,0 v -61.15584 a 7.3474587,6.8338191 0 0 0 -7.34746,-6.83382 h -1.83688 a 7.3474587,6.8338191 0 0 0 -7.34744,6.83382 v 61.15699 a 3.67373,3.4169101 0 0 1 -7.34746,0 v -51.25366 a 7.3474587,6.8338191 0 0 0 -7.34747,-6.83381 h -1.83686 a 7.3474587,6.8338191 0 0 0 -7.34746,6.83381 v 51.25366 a 3.67373,3.4169101 0 0 1 -7.34746,0 v -35.02333 a 7.3474587,6.8338191 0 0 0 -7.34746,-6.83381 h -1.83687 a 7.3474587,6.8338191 0 0 0 -7.34744,6.83381 v 100.50839 a 14.694917,13.667638 0 0 0 14.69491,13.66763 h 3.1594 v 28.07904 h -5.5461 v 28.32046 h -2.37936 a 7.9438275,7.3884974 0 0 0 -7.94382,7.38851 v 132.98395 h 84.19942 V 869.41035 a 7.9438275,7.3884974 0 0 0 -7.94382,-7.38851 h -2.37935 v -28.32046 h -4.1256 v -28.07904 z"
       style="opacity:0.11;mix-blend-mode:multiply;fill:#161616;stroke:#1e223b;stroke-width:1.181;stroke-miterlimit:10"
       id="path38" />
    <rect
       x="292.32379"
       y="581.81476"
       width="353.90259"
       height="137.81535"
       rx="4.8983054"
       style="opacity:0.15;fill:#1e223b;stroke:#1e223b;stroke-width:2.36198px;stroke-miterlimit:11"
       id="rect40" />
    <rect
       x="274.56741"
       y="561.88287"
       width="389.41531"
       height="264.241"
       rx="22.042376"
       style="fill:none;stroke:#1e223b;stroke-width:2.36198px;stroke-linecap:round;stroke-linejoin:round"
       id="rect42" />
    <rect
       x="274.56741"
       y="561.88287"
       width="389.41531"
       height="271.07483"
       rx="22.042376"
       style="fill:none;stroke:#1e223b;stroke-width:2.36198px;stroke-linecap:round;stroke-linejoin:round"
       id="rect44" />
    <rect
       x="274.56741"
       y="297.64182"
       width="389.41531"
       height="264.241"
       rx="22.042376"
       style="fill:#2f4584;stroke-width:1.181"
       id="rect46" />
    <rect
       x="274.56741"
       y="297.64182"
       width="389.41531"
       height="264.241"
       rx="22.042376"
       style="fill:none;stroke:#1e223b;stroke-width:2.36198px;stroke-linecap:round;stroke-linejoin:round"
       id="rect48" />
    <rect
       x="304.47562"
       y="-656.63654"
       width="250.57335"
       height="374.7204"
       rx="13.667638"
       transform="rotate(90)"
       style="fill:#ffffff;stroke-width:1.181"
       id="rect50" />
    <rect
       x="331.81088"
       y="-627.24664"
       width="195.9028"
       height="315.94073"
       transform="rotate(90)"
       style="fill:#ff5855;stroke:#1e223b;stroke-width:1.181;stroke-miterlimit:10"
       id="rect52" />
    <rect
       x="304.47562"
       y="-656.63654"
       width="250.57335"
       height="374.7204"
       rx="13.667638"
       transform="rotate(90)"
       style="fill:none;stroke:#1e223b;stroke-width:2.36198px;stroke-linecap:round;stroke-linejoin:round"
       id="rect54" />
    <rect
       x="331.81088"
       y="-627.24664"
       width="195.9028"
       height="315.94073"
       transform="rotate(90)"
       style="fill:none;stroke:#1e223b;stroke-width:2.36198px;stroke-linecap:round;stroke-linejoin:round"
       id="rect56" />
    <g
       style="opacity:0.1"
       id="g60"
       transform="matrix(1.2245766,0,0,1.1389699,-155.8712,-139.42307)">
      <rect
         x="467.5"
         y="763.737"
         width="86"
         height="60"
         rx="4.25"
         style="fill:#1e223b"
         id="rect58" />
    </g>
    <rect
       x="416.61832"
       y="730.45032"
       width="105.31356"
       height="68.338188"
       rx="5.2044501"
       style="fill:none;stroke:#1e223b;stroke-width:2.36198px;stroke-linecap:round;stroke-linejoin:round"
       id="rect62" />
    <rect
       x="423.35345"
       y="823.84589"
       width="93.06781"
       height="9.1117592"
       style="fill:#263c72;stroke-width:1.181"
       id="rect64" />
    <rect
       x="423.35345"
       y="823.84589"
       width="93.06781"
       height="9.1117592"
       style="fill:none;stroke:#1e223b;stroke-width:2.36198px;stroke-linecap:round;stroke-linejoin:round"
       id="rect66" />
    <rect
       x="355.38947"
       y="270.30652"
       width="244.9153"
       height="255.12924"
       rx="7.3474588"
       style="opacity:0.11;mix-blend-mode:multiply;fill:#161616;stroke:#1e223b;stroke-width:1.181;stroke-miterlimit:10"
       id="rect68" />
    <rect
       x="348.65427"
       y="265.75064"
       width="244.9153"
       height="255.12924"
       rx="7.3474588"
       style="fill:#ffffff;stroke-width:1.181"
       id="rect70" />
    <path
       d="m 348.65429,482.15491 h 244.9153 v 31.89116 a 7.3474587,6.8338191 0 0 1 -7.34747,6.83383 H 356.00175 a 7.3474587,6.8338191 0 0 1 -7.34746,-6.83383 z"
       style="fill:#efefef;stroke-width:1.181"
       id="path72" />
    <rect
       x="348.65427"
       y="265.75064"
       width="244.9153"
       height="255.12924"
       rx="7.3474588"
       style="fill:none;stroke:#1e223b;stroke-width:2.36198px;stroke-linecap:round;stroke-linejoin:round"
       id="rect74" />
    <path
       d="m 355.30008,265.75064 h 231.62373 a 6.6457764,6.1811893 0 0 1 6.64578,6.18234 v 14.32026 h -244.9153 v -14.32026 a 6.6457764,6.1811893 0 0 1 6.64579,-6.18234 z"
       style="fill:#363d56;stroke-width:1.181"
       id="path76" />
    <path
       d="m 355.30008,265.75064 h 231.62373 a 6.6457764,6.1811893 0 0 1 6.64578,6.18234 v 14.32026 h -244.9153 v -14.32026 a 6.6457764,6.1811893 0 0 1 6.64579,-6.18234 z"
       style="fill:none;stroke:#1e223b;stroke-width:2.36198px;stroke-linecap:round;stroke-linejoin:round"
       id="path78" />
    <rect
       x="348.65427"
       y="286.25208"
       width="244.9153"
       height="9.1117592"
       style="fill:#424960;stroke-width:1.181"
       id="rect80" />
    <rect
       x="348.65427"
       y="286.25208"
       width="244.9153"
       height="9.1117592"
       style="fill:none;stroke:#1e223b;stroke-width:2.36198px;stroke-linecap:round;stroke-linejoin:round"
       id="rect82" />
    <ellipse
       cx="362.32913"
       cy="276.0014"
       style="fill:#f73e39;stroke-width:1.181"
       id="circle84"
       rx="3.6737294"
       ry="3.4169095" />
    <ellipse
       cx="362.32913"
       cy="276.0014"
       style="fill:none;stroke:#1e223b;stroke-width:2.36198px;stroke-linecap:round;stroke-linejoin:round"
       id="circle86"
       rx="3.6737294"
       ry="3.4169095" />
    <ellipse
       cx="377.35223"
       cy="276.0014"
       style="fill:#383838;stroke-width:1.181"
       id="circle88"
       rx="3.6737294"
       ry="3.4169095" />
    <ellipse
       cx="377.35223"
       cy="276.0014"
       style="fill:none;stroke:#1e223b;stroke-width:2.36198px;stroke-linecap:round;stroke-linejoin:round"
       id="circle90"
       rx="3.6737294"
       ry="3.4169095" />
    <ellipse
       cx="391.10056"
       cy="276.0014"
       style="fill:#c6c6c6;stroke-width:1.181"
       id="circle92"
       rx="3.6737294"
       ry="3.4169095" />
    <ellipse
       cx="391.10056"
       cy="276.0014"
       style="fill:none;stroke:#1e223b;stroke-width:2.36198px;stroke-linecap:round;stroke-linejoin:round"
       id="circle94"
       rx="3.6737294"
       ry="3.4169095" />
    <rect
       x="408.04626"
       y="272.58444"
       width="83.271202"
       height="6.8338189"
       rx="3.6737294"
       style="opacity:0.28;fill:#8289a3;stroke-width:1.181"
       id="rect96" />
    <ellipse
       cx="62.26627"
       cy="385.3277"
       style="fill:none;stroke:#1e223b;stroke-width:2.36198px;stroke-linecap:round;stroke-linejoin:round"
       id="circle98"
       rx="24.966667"
       ry="23.221317" />
    <ellipse
       cx="62.26627"
       cy="385.3277"
       style="fill:none;stroke:#1e223b;stroke-width:2.36198px;stroke-linecap:round;stroke-linejoin:round"
       id="circle100"
       rx="10.700349"
       ry="9.9523182" />
    <path
       d="m 101.14045,352.01507 -15.444354,8.29399 0.02326,0.0364 a 35.577621,33.090491 0 0 0 -3.559843,-2.54217 l 0.04163,0.0114 4.615432,-16.02303 a 5.3513992,4.9772983 0 0 0 -3.782719,-6.09462 l -12.058404,-3.0046 a 5.3501745,4.9761593 0 0 0 -6.551483,3.51828 l -4.615432,16.02188 h 0.02571 a 35.598437,33.109853 0 0 0 -4.408476,0.53987 l 0.0196,-0.0114 -8.916141,-14.36354 a 5.34895,4.9750202 0 0 0 -7.308273,-1.82234 l -10.810561,5.80874 a 5.3477254,4.9738813 0 0 0 -1.959321,6.79623 l 8.91614,14.36469 0.01959,-0.0102 a 35.635174,33.144022 0 0 0 -2.708764,3.28479 l 0.0073,-0.0228 -17.226118,-4.29391 a 5.3501745,4.9761593 0 0 0 -6.5514832,3.51941 l -3.2316578,11.2143 a 5.3513992,4.9772983 0 0 0 3.7839413,6.09462 l 17.2248917,4.29278 0.01103,-0.0387 a 35.463734,32.984567 0 0 0 0.586572,4.13787 l -0.02204,-0.0364 -15.444358,8.29284 a 5.3513992,4.9772983 0 0 0 -1.9593222,6.79738 l 6.2453402,10.05481 a 5.34895,4.9750202 0 0 0 7.308273,1.82236 l 15.443133,-8.29284 -0.03428,-0.0547 a 35.59109,33.103019 0 0 0 3.605153,2.56838 l -0.0747,-0.0182 -4.615429,16.02075 a 5.3501745,4.9761593 0 0 0 3.782717,6.09464 l 12.058405,3.0046 a 5.3501745,4.9761593 0 0 0 6.551484,-3.51828 l 4.615428,-16.02189 -0.09063,-0.0228 a 35.100036,32.646294 0 0 0 4.538281,-0.55468 l -0.0796,0.0432 8.917365,14.36355 a 5.34895,4.9750202 0 0 0 7.308273,1.82236 l 10.810561,-5.80874 a 5.3501745,4.9761593 0 0 0 1.959324,-6.79623 l -8.916141,-14.36469 -0.07963,0.0421 a 35.359644,32.887755 0 0 0 2.785906,-3.37819 l -0.02449,0.0842 17.2249,4.29392 a 5.3501745,4.9761593 0 0 0 6.55271,-3.51943 l 3.23043,-11.21428 a 5.34895,4.9750202 0 0 0 -3.78272,-6.09463 l -17.235918,-4.28709 -0.0208,0.0695 a 35.436792,32.95951 0 0 0 -0.589025,-4.18801 l 0.03434,0.0559 15.444363,-8.29283 a 5.3513992,4.9772983 0 0 0 1.95931,-6.79738 l -6.24534,-10.05483 a 5.3501745,4.9761593 0 0 0 -7.30337,-1.82236 z"
       style="fill:none;stroke:#1e223b;stroke-width:2.36198px;stroke-linecap:round;stroke-linejoin:round"
       id="path102" />
    <g
       style="opacity:0.32"
       id="g110"
       transform="matrix(1.2245766,0,0,1.1389699,-155.8712,-139.42307)">
      <circle
         cx="451.94199"
         cy="415.293"
         r="7.7199998"
         style="fill:none;stroke:#1e223b;stroke-linecap:round;stroke-linejoin:round"
         id="circle104" />
      <circle
         cx="451.94199"
         cy="415.293"
         r="3.309"
         style="fill:none;stroke:#1e223b;stroke-linecap:round;stroke-linejoin:round"
         id="circle106" />
      <path
         d="m 467.774,415.461 -5.327,-1.427 v 0.014 a 10.855,10.855 0 0 0 -0.18,-1.376 l 0.006,0.011 4.776,-2.757 a 1.654,1.654 0 0 0 0.6,-2.26 l -1.93,-3.342 a 1.653,1.653 0 0 0 -2.259,-0.606 l -4.776,2.757 v 0.007 a 10.927,10.927 0 0 0 -1.092,-0.838 h 0.007 l 1.427,-5.327 a 1.654,1.654 0 0 0 -1.169,-2.026 l -3.729,-1 a 1.655,1.655 0 0 0 -2.026,1.17 l -1.427,5.326 h 0.007 a 11.054,11.054 0 0 0 -1.365,0.18 h 0.007 l -2.757,-4.775 a 1.655,1.655 0 0 0 -2.26,-0.606 l -3.343,1.93 a 1.655,1.655 0 0 0 -0.605,2.26 l 2.757,4.776 0.011,-0.007 a 11.1,11.1 0 0 0 -0.844,1.1 v -0.014 l -5.326,-1.427 a 1.654,1.654 0 0 0 -2.026,1.17 l -1,3.728 a 1.655,1.655 0 0 0 1.17,2.027 l 5.326,1.427 0.006,-0.021 a 10.929,10.929 0 0 0 0.184,1.392 l -0.012,-0.02 -4.776,2.757 a 1.654,1.654 0 0 0 -0.605,2.26 l 1.93,3.342 a 1.654,1.654 0 0 0 2.26,0.606 l 4.775,-2.757 -0.014,-0.025 a 10.861,10.861 0 0 0 1.122,0.861 l -0.027,-0.007 -1.427,5.327 a 1.654,1.654 0 0 0 1.17,2.026 l 3.728,1 a 1.655,1.655 0 0 0 2.026,-1.17 l 1.433,-5.327 -0.027,-0.007 a 10.9,10.9 0 0 0 1.4,-0.185 l -0.025,0.015 2.757,4.775 a 1.655,1.655 0 0 0 2.26,0.606 l 3.343,-1.93 a 1.655,1.655 0 0 0 0.605,-2.26 l -2.757,-4.776 -0.02,0.012 a 10.978,10.978 0 0 0 0.855,-1.113 v 0.02 l 5.326,1.428 a 1.655,1.655 0 0 0 2.026,-1.17 l 1,-3.729 a 1.654,1.654 0 0 0 -1.169,-2.025 z"
         transform="translate(0.5,0.5)"
         style="fill:none;stroke:#1e223b;stroke-linecap:round;stroke-linejoin:round"
         id="path108" />
    </g>
    <g
       style="opacity:0.49"
       id="g118"
       transform="matrix(1.2245766,0,0,1.1389699,-155.8712,-139.42307)">
      <circle
         cx="832.17102"
         cy="251.63"
         r="19.096001"
         style="fill:#ffffff"
         id="circle112" />
      <circle
         cx="832.17102"
         cy="251.63"
         r="8.184"
         style="fill:#ffffff"
         id="circle114" />
      <path
         d="m 861.405,223.736 -11.813,6.82 0.018,0.03 a 27.136,27.136 0 0 0 -2.723,-2.09 l 0.032,0.009 3.53,-13.176 a 4.092,4.092 0 0 0 -2.893,-5.011 l -9.223,-2.471 a 4.092,4.092 0 0 0 -5.012,2.893 l -3.53,13.175 0.02,0.006 a 27.109,27.109 0 0 0 -3.376,0.443 l 0.015,-0.009 -6.82,-11.812 a 4.093,4.093 0 0 0 -5.59,-1.5 l -8.269,4.774 a 4.092,4.092 0 0 0 -1.5,5.59 l 6.82,11.812 0.015,-0.009 a 27.076,27.076 0 0 0 -2.072,2.7 v -0.019 l -13.175,-3.531 a 4.093,4.093 0 0 0 -5.012,2.894 l -2.471,9.223 a 4.092,4.092 0 0 0 2.894,5.011 l 13.175,3.53 0.008,-0.031 a 27.174,27.174 0 0 0 0.449,3.4 l -0.017,-0.03 -11.813,6.82 a 4.091,4.091 0 0 0 -1.5,5.589 l 4.774,8.269 a 4.093,4.093 0 0 0 5.59,1.5 l 11.812,-6.82 -0.026,-0.046 a 27.08,27.08 0 0 0 2.757,2.113 l -0.057,-0.016 -3.53,13.176 a 4.091,4.091 0 0 0 2.893,5.011 l 9.223,2.471 a 4.092,4.092 0 0 0 5.012,-2.893 l 3.53,-13.175 -0.069,-0.019 a 26.958,26.958 0 0 0 3.47,-0.456 l -0.06,0.035 6.82,11.812 a 4.092,4.092 0 0 0 5.59,1.5 l 8.268,-4.774 a 4.091,4.091 0 0 0 1.5,-5.59 l -6.82,-11.812 -0.06,0.035 a 27.1,27.1 0 0 0 2.13,-2.778 l -0.018,0.069 13.175,3.531 a 4.093,4.093 0 0 0 5.012,-2.894 l 2.471,-9.222 a 4.093,4.093 0 0 0 -2.894,-5.012 l -13.175,-3.53 -0.015,0.057 a 27.058,27.058 0 0 0 -0.451,-3.444 l 0.026,0.045 11.813,-6.82 a 4.091,4.091 0 0 0 1.5,-5.589 L 867,225.234 a 4.093,4.093 0 0 0 -5.595,-1.498 z"
         transform="translate(0.5,0.5)"
         style="fill:#ffffff"
         id="path116" />
    </g>
    <ellipse
       cx="863.19434"
       cy="147.17476"
       style="fill:none;stroke:#1e223b;stroke-width:2.36198px;stroke-linecap:round;stroke-linejoin:round"
       id="circle120"
       rx="23.384514"
       ry="21.749769" />
    <ellipse
       cx="863.19434"
       cy="147.17476"
       style="fill:none;stroke:#1e223b;stroke-width:2.36198px;stroke-linecap:round;stroke-linejoin:round"
       id="circle122"
       rx="10.021933"
       ry="9.3213291" />
    <path
       d="m 912.66115,149.05975 -16.1338,-4.02055 -0.011,0.0376 a 33.26562,30.940114 0 0 0 -0.54739,-3.8725 l 0.0196,0.0319 14.46594,-7.76777 a 5.0097423,4.6595256 0 0 0 1.83686,-6.36571 l -5.84246,-9.42156 a 5.0121913,4.6618036 0 0 0 -6.84538,-1.70845 l -14.46593,7.76777 0.0123,0.0205 a 32.903144,30.602981 0 0 0 -3.30636,-2.36223 h 0.0208 l 4.32277,-15.00706 a 5.0109669,4.6606646 0 0 0 -3.54394,-5.70738 l -11.29298,-2.814433 a 5.0109669,4.6606646 0 0 0 -6.13759,3.295033 l -4.32275,15.00594 h 0.0208 a 33.166429,30.847859 0 0 0 -4.13418,0.50684 l 0.022,-0.0114 -8.35161,-13.4535 a 5.0121913,4.6618036 0 0 0 -6.84539,-1.70846 l -10.12603,5.43743 a 5.0109669,4.6606646 0 0 0 -1.83685,6.36685 l 8.35161,13.45352 0.0342,-0.0183 a 33.295009,30.96745 0 0 0 -2.55813,3.10143 l 0.011,-0.0376 -16.13379,-4.0217 a 5.0121913,4.6618036 0 0 0 -6.13758,3.29618 l -3.02593,10.50359 a 5.0121913,4.6618036 0 0 0 3.5427,5.70851 l 16.13502,4.02056 0.0159,-0.057 a 33.343992,31.01301 0 0 0 0.55841,3.92149 l -0.0356,-0.0581 -14.46592,7.76777 a 5.0097423,4.6595256 0 0 0 -1.83687,6.36571 l 5.84614,9.41814 a 5.0121913,4.6618036 0 0 0 6.84537,1.70845 l 14.46469,-7.76777 -0.0429,-0.0707 a 33.035399,30.725989 0 0 0 3.40066,2.42714 l -0.0833,-0.0205 -4.32277,15.00593 a 5.0109669,4.6606646 0 0 0 3.5427,5.70851 l 11.29427,2.81439 a 5.0085177,4.6583867 0 0 0 6.13634,-3.29503 l 4.32399,-15.00592 -0.0833,-0.0206 a 33.186022,30.866083 0 0 0 4.25051,-0.52165 l -0.076,0.041 8.35161,13.45351 a 5.0097423,4.6595256 0 0 0 6.84539,1.70844 l 10.12479,-5.43744 a 5.0097423,4.6595256 0 0 0 1.83687,-6.36683 l -8.35162,-13.45352 -0.0624,0.0341 a 33.146836,30.829637 0 0 0 2.59121,-3.13785 l -0.0159,0.0581 16.13379,4.02169 a 5.0121913,4.6618036 0 0 0 6.13759,-3.29616 l 3.02591,-10.50358 a 5.0121913,4.6618036 0 0 0 -3.54636,-5.69714 z"
       style="fill:none;stroke:#1e223b;stroke-width:2.36198px;stroke-linecap:round;stroke-linejoin:round"
       id="path124" />
    <path
       d="m 563.53073,149.06433 h -32.08391 l -33.47992,20.76 v -20.76 H 474.25176 A 11.159566,10.379432 0 0 1 463.09219,138.68488 V 81.596303 a 11.159566,10.379432 0 0 1 11.15957,-10.379431 h 89.27897 a 11.159566,10.379432 0 0 1 11.16078,10.379431 v 57.088577 a 11.159566,10.379432 0 0 1 -11.16078,10.37945 z"
       style="fill:#ffffff;stroke-width:1.181"
       id="path126" />
    <path
       d="m 563.53073,149.06433 h -32.08391 l -33.47992,20.76 v -20.76 H 474.25176 A 11.159566,10.379432 0 0 1 463.09219,138.68488 V 81.596303 a 11.159566,10.379432 0 0 1 11.15957,-10.379431 h 89.27897 a 11.159566,10.379432 0 0 1 11.16078,10.379431 v 57.088577 a 11.159566,10.379432 0 0 1 -11.16078,10.37945 z"
       style="fill:none;stroke:#1e223b;stroke-width:2.36198px;stroke-linecap:round;stroke-linejoin:round"
       id="path128" />
    <path
       d="m 564.66959,60.644952 h 20.77616 l 21.675,13.439846 V 60.644952 h 15.34884 a 7.225001,6.7199221 0 0 0 7.22501,-6.719921 V 16.957487 a 7.225001,6.7199221 0 0 0 -7.22501,-6.719923 h -57.8 a 7.225001,6.7199221 0 0 0 -7.225,6.719923 v 36.965266 a 7.225001,6.7199221 0 0 0 7.225,6.722199 z"
       style="opacity:0.5;fill:#ffffff;stroke-width:1.181"
       id="path130" />
    <path
       d="m 564.66959,60.644952 h 20.77616 l 21.675,13.439846 V 60.644952 h 15.34884 a 7.225001,6.7199221 0 0 0 7.22501,-6.719921 V 16.957487 a 7.225001,6.7199221 0 0 0 -7.22501,-6.719923 h -57.8 a 7.225001,6.7199221 0 0 0 -7.225,6.719923 v 36.965266 a 7.225001,6.7199221 0 0 0 7.225,6.722199 z"
       style="fill:none;stroke:#1e223b;stroke-width:2.36198px;stroke-linecap:round;stroke-linejoin:round"
       id="path132" />
    <path
       d="m 640.05941,785.38627 a 16.203596,15.070848 0 1 1 -16.2036,-15.07198 16.203596,15.070848 0 0 1 16.2036,15.07198 z"
       style="fill:#dd4814;stroke-width:1.181"
       id="path134" />
    <path
       d="m 612.83707,783.37029 a 2.1638266,2.0125596 0 1 0 2.16259,2.01598 2.1638266,2.0125596 0 0 0 -2.16259,-2.01598 z m 15.4468,9.14479 a 2.162602,2.0114208 0 1 0 2.95368,0.73693 2.1638266,2.0125596 0 0 0 -2.95368,-0.73352 z M 617.537,785.38171 a 6.3065687,5.8656947 0 0 1 2.68672,-4.80758 l -1.58215,-2.46475 a 9.4084208,8.7507053 0 0 0 -3.88559,5.0821 3.0381742,2.8257842 0 0 1 0,4.38161 9.4084208,8.7507053 0 0 0 3.88559,5.08208 l 1.58215,-2.46472 a 6.3065687,5.8656947 0 0 1 -2.68672,-4.80531 z m 6.31881,-5.87708 a 6.3188144,5.8770845 0 0 1 6.2931,5.35316 l 3.08349,-0.0421 a 9.3729081,8.7176751 0 0 0 -2.79203,-5.66978 3.0393988,2.8269231 0 0 1 -4.07418,-2.19024 9.3949506,8.7381767 0 0 0 -6.67517,0.5877 l 1.50256,2.50574 a 6.3028951,5.8622778 0 0 1 2.66223,-0.54101 z m 0,11.7553 a 6.3028951,5.8622778 0 0 1 -2.66223,-0.5467 l -1.50256,2.50574 a 9.4010734,8.7438715 0 0 0 6.67517,0.58656 3.0393988,2.8269231 0 0 1 4.07418,-2.19023 9.3729081,8.7176751 0 0 0 2.79203,-5.66979 l -3.08349,-0.0421 a 6.31759,5.8759454 0 0 1 -6.2931,5.35999 z m 4.42806,-13.01045 a 2.162602,2.0114208 0 1 0 -0.7923,-2.74833 2.1613773,2.0102817 0 0 0 0.7923,2.75176 z"
       style="fill:#ffffff;stroke-width:1.181"
       id="path136" />
    <polygon
       points="221.189,676.453 221.103,706.956 193.045,723.261 193.132,692.759 "
       style="fill:#777bb4"
       id="polygon138"
       transform="matrix(1.2245766,0,0,1.1389699,-155.8712,-139.42307)" />
    <polygon
       points="221.189,676.453 221.103,706.956 193.045,723.261 193.132,692.759 "
       style="fill:none;stroke:#1e223b;stroke-width:2px;stroke-linecap:round;stroke-linejoin:round"
       id="polygon140"
       transform="matrix(1.2245766,0,0,1.1389699,-155.8712,-139.42307)" />
    <polygon
       points="194.644,661.127 221.189,676.453 193.132,692.759 166.587,677.433 "
       style="opacity:0.88;fill:#ff5855;stroke:#1e223b;stroke-miterlimit:10"
       id="polygon142"
       transform="matrix(1.2245766,0,0,1.1389699,-155.8712,-139.42307)" />
    <polygon
       points="193.045,723.261 166.5,707.935 166.587,677.433 193.132,692.759 "
       style="fill:#0270bb"
       id="polygon144"
       transform="matrix(1.2245766,0,0,1.1389699,-155.8712,-139.42307)" />
    <polygon
       points="194.644,661.127 221.189,676.453 193.132,692.759 166.587,677.433 "
       style="fill:none;stroke:#1e223b;stroke-width:2px;stroke-linecap:round;stroke-linejoin:round"
       id="polygon146"
       transform="matrix(1.2245766,0,0,1.1389699,-155.8712,-139.42307)" />
    <polygon
       points="193.045,723.261 166.5,707.935 166.587,677.433 193.132,692.759 "
       style="fill:none;stroke:#1e223b;stroke-width:2px;stroke-linecap:round;stroke-linejoin:round"
       id="polygon148"
       transform="matrix(1.2245766,0,0,1.1389699,-155.8712,-139.42307)" />
    <ellipse
       cx="55.423344"
       cy="593.77405"
       style="opacity:0.59;fill:#ffffff;stroke-width:1.181"
       id="circle150"
       rx="7.3474588"
       ry="6.8338189" />
    <ellipse
       cx="55.423344"
       cy="593.77405"
       style="fill:none;stroke:#1e223b;stroke-width:2.36198px;stroke-linecap:round;stroke-linejoin:round"
       id="circle152"
       rx="7.3474588"
       ry="6.8338189" />
    <ellipse
       cx="80.527161"
       cy="593.77405"
       style="opacity:0.59;fill:#ffffff;stroke-width:1.181"
       id="circle154"
       rx="7.3474588"
       ry="6.8338189" />
    <ellipse
       cx="80.527161"
       cy="593.77405"
       style="fill:none;stroke:#1e223b;stroke-width:2.36198px;stroke-linecap:round;stroke-linejoin:round"
       id="circle156"
       rx="7.3474588"
       ry="6.8338189" />
    <ellipse
       cx="105.63098"
       cy="593.77405"
       style="opacity:0.59;fill:#ffffff;stroke-width:1.181"
       id="circle158"
       rx="7.3474588"
       ry="6.8338189" />
    <ellipse
       cx="942.87994"
       cy="453.96881"
       style="opacity:0.32;fill:#ffffff;stroke-width:1.181"
       id="circle160"
       rx="48.370766"
       ry="44.989304" />
    <ellipse
       cx="105.63098"
       cy="593.77405"
       style="fill:none;stroke:#1e223b;stroke-width:2.36198px;stroke-linecap:round;stroke-linejoin:round"
       id="circle162"
       rx="7.3474588"
       ry="6.8338189" />
    <polygon
       points="876.454,509.019 876.519,532.217 897.858,544.617 897.792,521.419 "
       style="opacity:0.12;fill:#0270bb"
       id="polygon164"
       transform="matrix(1.2245766,0,0,1.1389699,-155.8712,-139.42307)" />
    <polygon
       points="876.454,509.019 876.519,532.217 897.858,544.617 897.792,521.419 "
       style="fill:none;stroke:#1e223b;stroke-width:2px;stroke-linecap:round;stroke-linejoin:round"
       id="polygon166"
       transform="matrix(1.2245766,0,0,1.1389699,-155.8712,-139.42307)" />
    <polygon
       points="896.642,497.363 876.454,509.019 897.792,521.419 917.98,509.764 "
       style="opacity:0.47;fill:#0270bb"
       id="polygon168"
       transform="matrix(1.2245766,0,0,1.1389699,-155.8712,-139.42307)" />
    <polygon
       points="896.642,497.363 876.454,509.019 897.792,521.419 917.98,509.764 "
       style="fill:none;stroke:#1e223b;stroke-width:2px;stroke-linecap:round;stroke-linejoin:round"
       id="polygon170"
       transform="matrix(1.2245766,0,0,1.1389699,-155.8712,-139.42307)" />
    <polygon
       points="897.858,544.617 918.046,532.962 917.98,509.764 897.792,521.419 "
       style="fill:#ffffff;stroke:#1e223b;stroke-width:2px;stroke-linecap:round;stroke-linejoin:round"
       id="polygon172"
       transform="matrix(1.2245766,0,0,1.1389699,-155.8712,-139.42307)" />
    <polygon
       points="897.858,544.617 918.046,532.962 917.98,509.764 897.792,521.419 "
       style="fill:none;stroke:#1e223b;stroke-width:2px;stroke-linecap:round;stroke-linejoin:round"
       id="polygon174"
       transform="matrix(1.2245766,0,0,1.1389699,-155.8712,-139.42307)" />
    <ellipse
       cx="942.87994"
       cy="453.96881"
       style="fill:none;stroke:#1e223b;stroke-width:2.36198px;stroke-linecap:round;stroke-linejoin:round"
       id="circle176"
       rx="48.370766"
       ry="44.989304" />
    <rect
       x="699.50647"
       y="173.20023"
       width="138.8131"
       height="67.703789"
       rx="14.55899"
       style="fill:#777bb4;stroke-width:1.181"
       id="rect178" />
    <rect
       x="699.50647"
       y="173.20023"
       width="138.8131"
       height="67.703789"
       rx="14.55899"
       style="fill:none;stroke:#1e223b;stroke-width:2.36198px;stroke-linecap:round;stroke-linejoin:round"
       id="rect180" />
    <rect
       x="819.62885"
       y="481.87357"
       width="107.85825"
       height="51.491684"
       rx="11.072619"
       style="fill:#0270bb;stroke-width:1.181"
       id="rect182" />
    <rect
       x="819.62885"
       y="481.87357"
       width="107.85825"
       height="51.491684"
       rx="11.072619"
       style="fill:none;stroke:#1e223b;stroke-width:2.36198px;stroke-linecap:round;stroke-linejoin:round"
       id="rect184" />
    <path
       d="m 836.26104,507.30793 c 0,-7.36003 5.87796,-12.32708 13.44463,-12.32708 a 11.488976,10.685816 0 0 1 10.25706,5.32354 l -3.80353,1.85767 a 7.5715561,7.0422506 0 0 0 -6.45353,-3.46588 c -5.06975,0 -8.83532,3.57295 -8.83532,8.61175 0,4.96591 3.76557,8.60946 8.83532,8.60946 a 7.6585011,7.1231173 0 0 0 6.45353,-3.46588 l 3.84148,1.78705 a 11.702053,10.883996 0 0 1 -10.29501,5.39529 c -7.56789,0 -13.44463,-5.00235 -13.44463,-12.32592 z"
       style="fill:#ffffff;stroke-width:1.181"
       id="path186" />
    <path
       d="m 864.79858,515.84564 2.53609,-3.25062 a 11.00037,10.231365 0 0 0 8.10548,3.32237 c 3.68719,0 5.10893,-1.67883 5.10893,-3.28706 0,-5.00237 -14.90554,-1.89298 -14.90554,-10.64596 0,-3.96703 3.68841,-7.00352 9.33616,-7.00352 a 13.260939,12.333905 0 0 1 9.56517,3.35882 l -2.5361,3.10712 a 10.44931,9.7188296 0 0 0 -7.45278,-2.75061 c -2.612,0 -4.30192,1.21527 -4.30192,2.96131 0,4.46703 14.9043,1.71529 14.9043,10.57647 0,3.9659 -3.03448,7.39534 -9.91048,7.39534 a 14.006705,13.027537 0 0 1 -10.44931,-3.78366 z"
       style="fill:#ffffff;stroke-width:1.181"
       id="path188" />
    <path
       d="m 890.49509,515.84564 2.5361,-3.25062 a 11.00282,10.233644 0 0 0 8.10547,3.32237 c 3.6872,0 5.10893,-1.67883 5.10893,-3.28706 0,-5.00237 -14.90554,-1.89298 -14.90554,-10.64596 0,-3.96703 3.68842,-7.00352 9.33617,-7.00352 a 13.260939,12.333905 0 0 1 9.56517,3.35882 l -2.53611,3.10712 a 10.44931,9.7188296 0 0 0 -7.45276,-2.75061 c -2.61203,0 -4.30193,1.21527 -4.30193,2.96131 0,4.46703 14.9043,1.71529 14.9043,10.57647 0,3.9659 -3.03449,7.39534 -9.9105,7.39534 a 14.006705,13.027537 0 0 1 -10.4493,-3.78366 z"
       style="fill:#ffffff;stroke-width:1.181"
       id="path190" />
    <path
       d="m 720.1663,222.17252 v -30.35355 h 14.3851 c 6.84905,0 10.61585,4.32808 10.61585,9.5104 0,5.14245 -3.81455,9.46596 -10.61585,9.46596 h -8.6602 v 11.37719 z m 19.13033,-20.84315 c 0,-2.91235 -2.29975,-4.8224 -5.52897,-4.8224 h -7.87646 v 9.60152 h 7.87646 c 3.22922,0 5.52652,-1.91234 5.52652,-4.77912 z"
       style="fill:#ffffff;stroke-width:1.181"
       id="path192" />
    <path
       d="m 776.32537,222.17252 v -13.28836 h -16.97752 v 13.28836 h -5.72611 v -30.35355 h 5.72367 v 12.37718 h 16.97996 v -12.37718 h 5.72367 v 30.35355 z"
       style="fill:#ffffff;stroke-width:1.181"
       id="path194" />
    <path
       d="m 792.65755,222.17252 v -30.35355 h 14.38389 c 6.84905,0 10.61706,4.32808 10.61706,9.5104 0,5.14245 -3.81577,9.46596 -10.61706,9.46596 h -8.66022 v 11.37719 z m 19.12911,-20.84315 c 0,-2.91235 -2.29975,-4.8224 -5.52896,-4.8224 h -7.87648 v 9.60152 h 7.87648 c 3.22921,0 5.53141,-1.91234 5.53141,-4.77912 z"
       style="fill:#ffffff;stroke-width:1.181"
       id="path196" />
    <path
       d="m 553.23572,492.69038 c 0.3441,0.46357 0.55472,0.42712 0.82168,0.3212 0.26696,-0.10593 14.04466,-4.43174 14.46592,-4.57411 0.42126,-0.14237 0.28656,-0.26652 0.15307,-0.46242 -0.13347,-0.19591 -4.72564,-5.99782 -4.95585,-6.33609 -0.23022,-0.33828 -0.34411,-0.26653 -0.70781,-0.15946 l -14.6043,3.53082 c 0,0 4.48195,7.21422 4.82729,7.67664 z"
       style="fill:#f35045;stroke-width:1.181"
       id="path198" />
    <path
       d="m 569.69034,486.78255 v -6.79169 l -4.54195,1.12531 c 1.23805,1.53989 3.17289,3.94995 4.54195,5.66638 z"
       style="fill:#f35045;stroke-width:1.181"
       id="path200" />
    <path
       d="m 565.13492,472.75385 c -0.22532,0.0467 -5.20935,0.88499 -5.5106,0.92256 -0.30124,0.0376 -0.2045,0.20047 -0.082,0.3622 l 4.38521,5.59689 c 0,0 5.36243,-1.23805 5.6906,-1.30411 l 0.0772,-0.0171 v -0.74147 c -0.97965,-1.14922 -3.62963,-4.27911 -3.85986,-4.57183 -0.27552,-0.35194 -0.47024,-0.295 -0.69556,-0.24716 z"
       style="fill:#f35045;stroke-width:1.181"
       id="path202" />
    <path
       d="m 533.77841,463.96215 c 1.07886,-0.0455 1.17682,0.18337 1.65074,0.83713 l 11.91267,18.52194 14.97658,-3.33718 c -0.82904,-1.09456 -4.59706,-6.06159 -4.96077,-6.53541 -0.409,-0.53304 0.009,-0.78134 0.67475,-0.88499 0.66494,-0.10363 6.39596,-1.00001 6.88701,-1.06608 0.49106,-0.066 0.88047,-0.22778 1.6789,0.66631 0.40779,0.45558 1.79278,2.0604 3.09205,3.56384 v -8.66415 a 8.280586,7.7017141 0 0 0 -8.26589,-7.68804 h -27.55297 a 7.9597469,7.403304 0 0 0 -5.84,2.2563 8.1140436,7.5468142 0 0 0 -1.98381,2.8907 c 2.70018,-0.20615 6.98008,-0.52848 7.73074,-0.56037 z"
       style="fill:#f35045;stroke-width:1.181"
       id="path204" />
    <path
       d="m 554.58642,495.18359 c -1.26377,0.3565 -1.82952,0.53303 -2.65244,-0.53531 -0.61227,-0.79728 -3.94803,-6.37823 -5.58162,-9.1334 -3.09205,0.754 -8.75082,2.12759 -10.38195,2.49205 a 2.0107546,1.8701885 0 0 1 -2.53488,-1.07973 c -0.18368,-0.38384 -4.85299,-9.74732 -7.82993,-15.75424 v 21.51742 a 8.280586,7.7017141 0 0 0 8.26588,7.68805 h 27.55297 a 8.2781369,7.6994361 0 0 0 8.26589,-7.68805 V 490.163 c -3.38228,1.15037 -14.25284,4.78369 -15.10392,5.02059 z"
       style="fill:#f35045;stroke-width:1.181"
       id="path206" />
    <path
       d="m 536.01449,485.84973 c 0.44698,-0.0956 8.83533,-1.96244 9.01534,-1.99774 0.18001,-0.0353 0.29389,-0.131 0.10166,-0.44079 l -11.18161,-17.95245 c -0.10166,-0.16173 -0.0722,-0.2164 -0.34778,-0.20274 -0.24491,0.0126 -6.46454,0.5285 -7.90464,0.64012 a 8.6197937,8.0172086 0 0 0 -0.0795,0.85422 c 1.46215,2.78249 9.85051,18.87272 9.89704,19.00371 0.0465,0.13097 0.0514,0.19135 0.49962,0.0956 z"
       style="fill:#f35045;stroke-width:1.181"
       id="path208" />
    <line
       x1="425.19034"
       y1="329.53296"
       x2="540.30054"
       y2="329.53296"
       style="opacity:0.32;fill:none;stroke:#1e223b;stroke-width:2.36198px;stroke-linecap:round;stroke-linejoin:round"
       id="line210" />
    <line
       x1="425.19034"
       y1="338.64471"
       x2="498.66492"
       y2="338.64471"
       style="opacity:0.32;fill:none;stroke:#1e223b;stroke-width:2.36198px;stroke-linecap:round;stroke-linejoin:round"
       id="line212" />
    <line
       x1="390.90216"
       y1="383.06454"
       x2="506.01236"
       y2="383.06454"
       style="opacity:0.15;fill:none;stroke:#1e223b;stroke-width:2.36198px;stroke-linecap:round;stroke-linejoin:round"
       id="line214" />
    <line
       x1="390.90216"
       y1="392.93594"
       x2="464.3768"
       y2="392.93594"
       style="opacity:0.32;fill:none;stroke:#1e223b;stroke-width:2.36198px;stroke-linecap:round;stroke-linejoin:round"
       id="line216" />
    <line
       x1="449.68185"
       y1="402.80746"
       x2="492.54202"
       y2="402.80746"
       style="opacity:0.32;fill:none;stroke:#1e223b;stroke-width:2.36198px;stroke-linecap:round;stroke-linejoin:round"
       id="line218" />
    <line
       x1="390.90216"
       y1="402.80746"
       x2="442.33441"
       y2="402.80746"
       style="opacity:0.26;fill:none;stroke:#1e223b;stroke-width:2.36198px;stroke-linecap:round;stroke-linejoin:round"
       id="line220" />
    <line
       x1="390.90216"
       y1="412.67776"
       x2="434.98691"
       y2="412.67776"
       style="opacity:0.15;fill:none;stroke:#1e223b;stroke-width:2.36198px;stroke-linecap:round;stroke-linejoin:round"
       id="line222" />
    <path
       d="m 395.80048,431.28168 a 4.8983119,4.555885 0 0 0 0,9.11177 h 98.78292 v -9.11177 z"
       style="fill:#4ad3a5;stroke:#1e223b;stroke-width:1.181;stroke-miterlimit:10"
       id="path224" />
    <rect
       x="390.90216"
       y="431.28171"
       width="164.09325"
       height="9.1117592"
       rx="4.8983054"
       style="fill:none;stroke:#1e223b;stroke-width:1.181;stroke-linecap:round;stroke-linejoin:round"
       id="rect226" />
    <rect
       x="299.05896"
       y="550.4931"
       width="340.43225"
       height="14.806607"
       rx="2.7552969"
       style="fill:#263c72;stroke-width:1.181"
       id="rect228" />
    <rect
       x="299.05896"
       y="550.4931"
       width="340.43225"
       height="14.806607"
       style="fill:none;stroke:#1e223b;stroke-width:2.36198px;stroke-linecap:round;stroke-linejoin:round"
       id="rect230" />
    <rect
       x="612.55054"
       y="586.94012"
       width="26.940683"
       height="13.667638"
       rx="3.6737294"
       style="fill:#363d56;stroke-width:1.181"
       id="rect232" />
    <rect
       x="573.36407"
       y="586.94012"
       width="26.940683"
       height="13.667638"
       rx="3.6737294"
       style="fill:#363d56;stroke-width:1.181"
       id="rect234" />
    <rect
       x="534.17767"
       y="586.94012"
       width="26.940683"
       height="13.667638"
       rx="3.6737294"
       style="fill:#363d56;stroke-width:1.181"
       id="rect236" />
    <rect
       x="494.99118"
       y="586.94012"
       width="26.940683"
       height="13.667638"
       rx="3.6737294"
       style="fill:#363d56;stroke-width:1.181"
       id="rect238" />
    <rect
       x="455.80472"
       y="586.94012"
       width="26.940683"
       height="13.667638"
       rx="3.6737294"
       style="fill:#363d56;stroke-width:1.181"
       id="rect240" />
    <rect
       x="416.61832"
       y="586.94012"
       width="26.940683"
       height="13.667638"
       rx="3.6737294"
       style="fill:#363d56;stroke-width:1.181"
       id="rect242" />
    <rect
       x="377.43182"
       y="586.94012"
       width="26.940683"
       height="13.667638"
       rx="3.6737294"
       style="fill:#363d56;stroke-width:1.181"
       id="rect244" />
    <rect
       x="338.24539"
       y="586.94012"
       width="26.940683"
       height="13.667638"
       rx="3.6737294"
       style="fill:#363d56;stroke-width:1.181"
       id="rect246" />
    <rect
       x="299.05896"
       y="586.94012"
       width="26.940683"
       height="13.667638"
       rx="3.6737294"
       style="fill:#363d56;stroke-width:1.181"
       id="rect248" />
    <rect
       x="534.17767"
       y="615.95764"
       width="26.940683"
       height="25.057335"
       rx="3.6737294"
       style="fill:#363d56;stroke-width:1.181"
       id="rect250" />
    <rect
       x="494.99118"
       y="615.95764"
       width="26.940683"
       height="25.057335"
       rx="3.6737294"
       style="fill:#363d56;stroke-width:1.181"
       id="rect252" />
    <rect
       x="455.80472"
       y="615.95764"
       width="26.940683"
       height="25.057335"
       rx="3.6737294"
       style="fill:#363d56;stroke-width:1.181"
       id="rect254" />
    <rect
       x="416.61832"
       y="615.95764"
       width="26.940683"
       height="25.057335"
       rx="3.6737294"
       style="fill:#363d56;stroke-width:1.181"
       id="rect256" />
    <rect
       x="377.43182"
       y="615.95764"
       width="26.940683"
       height="25.057335"
       rx="3.6737294"
       style="fill:#363d56;stroke-width:1.181"
       id="rect258" />
    <rect
       x="338.24539"
       y="615.95764"
       width="26.940683"
       height="25.057335"
       rx="3.6737294"
       style="fill:#363d56;stroke-width:1.181"
       id="rect260" />
    <rect
       x="299.05896"
       y="615.95764"
       width="26.940683"
       height="25.057335"
       rx="3.6737294"
       style="fill:#363d56;stroke-width:1.181"
       id="rect262" />
    <rect
       x="612.55054"
       y="615.95764"
       width="26.940683"
       height="60.948551"
       rx="3.6737294"
       style="fill:#363d56;stroke-width:1.181"
       id="rect264" />
    <path
       d="m 596.63104,615.95767 h -19.59323 a 3.6737294,3.4169095 0 0 0 -3.67373,3.41692 v 29.05738 a 3.6737294,3.4169095 0 0 1 -3.67374,3.41692 h -31.83898 a 3.6737294,3.4169095 0 0 0 -3.67373,3.41691 v 18.22351 a 3.6737294,3.4169095 0 0 0 3.67373,3.41691 h 58.77968 a 3.6737294,3.4169095 0 0 0 3.67372,-3.41691 v -54.11472 a 3.6737294,3.4169095 0 0 0 -3.67372,-3.41692 z"
       style="fill:#363d56;stroke-width:1.181"
       id="path266" />
    <rect
       x="494.99118"
       y="651.84888"
       width="26.940683"
       height="25.057335"
       rx="3.6737294"
       style="fill:#363d56;stroke-width:1.181"
       id="rect268" />
    <rect
       x="455.80472"
       y="651.84888"
       width="26.940683"
       height="25.057335"
       rx="3.6737294"
       style="fill:#363d56;stroke-width:1.181"
       id="rect270" />
    <rect
       x="416.61832"
       y="651.84888"
       width="26.940683"
       height="25.057335"
       rx="3.6737294"
       style="fill:#363d56;stroke-width:1.181"
       id="rect272" />
    <rect
       x="377.43182"
       y="651.84888"
       width="26.940683"
       height="25.057335"
       rx="3.6737294"
       style="fill:#363d56;stroke-width:1.181"
       id="rect274" />
    <rect
       x="299.05896"
       y="651.84888"
       width="66.127129"
       height="25.057335"
       rx="3.6737294"
       style="fill:#363d56;stroke-width:1.181"
       id="rect276" />
    <rect
       x="612.55054"
       y="687.73895"
       width="26.940683"
       height="25.057335"
       rx="3.6737294"
       style="fill:#363d56;stroke-width:1.181"
       id="rect278" />
    <rect
       x="573.36407"
       y="687.73895"
       width="26.940683"
       height="25.057335"
       rx="3.6737294"
       style="fill:#363d56;stroke-width:1.181"
       id="rect280" />
    <rect
       x="534.17767"
       y="687.73895"
       width="26.940683"
       height="25.057335"
       rx="3.6737294"
       style="fill:#363d56;stroke-width:1.181"
       id="rect282" />
    <rect
       x="416.61832"
       y="687.73895"
       width="105.31356"
       height="25.057335"
       rx="3.6737294"
       style="fill:#363d56;stroke-width:1.181"
       id="rect284" />
    <rect
       x="377.43182"
       y="687.73895"
       width="26.940683"
       height="25.057335"
       rx="3.6737294"
       style="fill:#363d56;stroke-width:1.181"
       id="rect286" />
    <rect
       x="338.24539"
       y="687.73895"
       width="26.940683"
       height="25.057335"
       rx="3.6737294"
       style="fill:#363d56;stroke-width:1.181"
       id="rect288" />
    <rect
       x="299.05896"
       y="687.73895"
       width="26.940683"
       height="25.057335"
       rx="3.6737294"
       style="fill:#363d56;stroke-width:1.181"
       id="rect290" />
    <rect
       x="612.55054"
       y="586.94012"
       width="26.940683"
       height="13.667638"
       rx="3.6737294"
       style="fill:none;stroke:#1e223b;stroke-width:2.36198px;stroke-linecap:round;stroke-linejoin:round"
       id="rect292" />
    <rect
       x="573.36407"
       y="586.94012"
       width="26.940683"
       height="13.667638"
       rx="3.6737294"
       style="fill:none;stroke:#1e223b;stroke-width:2.36198px;stroke-linecap:round;stroke-linejoin:round"
       id="rect294" />
    <rect
       x="534.17767"
       y="586.94012"
       width="26.940683"
       height="13.667638"
       rx="3.6737294"
       style="fill:none;stroke:#1e223b;stroke-width:2.36198px;stroke-linecap:round;stroke-linejoin:round"
       id="rect296" />
    <rect
       x="494.99118"
       y="586.94012"
       width="26.940683"
       height="13.667638"
       rx="3.6737294"
       style="fill:none;stroke:#1e223b;stroke-width:2.36198px;stroke-linecap:round;stroke-linejoin:round"
       id="rect298" />
    <rect
       x="455.80472"
       y="586.94012"
       width="26.940683"
       height="13.667638"
       rx="3.6737294"
       style="fill:none;stroke:#1e223b;stroke-width:2.36198px;stroke-linecap:round;stroke-linejoin:round"
       id="rect300" />
    <rect
       x="416.61832"
       y="586.94012"
       width="26.940683"
       height="13.667638"
       rx="3.6737294"
       style="fill:none;stroke:#1e223b;stroke-width:2.36198px;stroke-linecap:round;stroke-linejoin:round"
       id="rect302" />
    <rect
       x="377.43182"
       y="586.94012"
       width="26.940683"
       height="13.667638"
       rx="3.6737294"
       style="fill:none;stroke:#1e223b;stroke-width:2.36198px;stroke-linecap:round;stroke-linejoin:round"
       id="rect304" />
    <rect
       x="338.24539"
       y="586.94012"
       width="26.940683"
       height="13.667638"
       rx="3.6737294"
       style="fill:none;stroke:#1e223b;stroke-width:2.36198px;stroke-linecap:round;stroke-linejoin:round"
       id="rect306" />
    <rect
       x="299.05896"
       y="586.94012"
       width="26.940683"
       height="13.667638"
       rx="3.6737294"
       style="fill:none;stroke:#1e223b;stroke-width:2.36198px;stroke-linecap:round;stroke-linejoin:round"
       id="rect308" />
    <rect
       x="534.17767"
       y="615.95764"
       width="26.940683"
       height="25.057335"
       rx="3.6737294"
       style="fill:none;stroke:#1e223b;stroke-width:2.36198px;stroke-linecap:round;stroke-linejoin:round"
       id="rect310" />
    <rect
       x="494.99118"
       y="615.95764"
       width="26.940683"
       height="25.057335"
       rx="3.6737294"
       style="fill:none;stroke:#1e223b;stroke-width:2.36198px;stroke-linecap:round;stroke-linejoin:round"
       id="rect312" />
    <rect
       x="455.80472"
       y="615.95764"
       width="26.940683"
       height="25.057335"
       rx="3.6737294"
       style="fill:none;stroke:#1e223b;stroke-width:2.36198px;stroke-linecap:round;stroke-linejoin:round"
       id="rect314" />
    <rect
       x="416.61832"
       y="615.95764"
       width="26.940683"
       height="25.057335"
       rx="3.6737294"
       style="fill:none;stroke:#1e223b;stroke-width:2.36198px;stroke-linecap:round;stroke-linejoin:round"
       id="rect316" />
    <rect
       x="377.43182"
       y="615.95764"
       width="26.940683"
       height="25.057335"
       rx="3.6737294"
       style="fill:none;stroke:#1e223b;stroke-width:2.36198px;stroke-linecap:round;stroke-linejoin:round"
       id="rect318" />
    <rect
       x="338.24539"
       y="615.95764"
       width="26.940683"
       height="25.057335"
       rx="3.6737294"
       style="fill:none;stroke:#1e223b;stroke-width:2.36198px;stroke-linecap:round;stroke-linejoin:round"
       id="rect320" />
    <rect
       x="299.05896"
       y="615.95764"
       width="26.940683"
       height="25.057335"
       rx="3.6737294"
       style="fill:none;stroke:#1e223b;stroke-width:2.36198px;stroke-linecap:round;stroke-linejoin:round"
       id="rect322" />
    <rect
       x="612.55054"
       y="615.95764"
       width="26.940683"
       height="60.948551"
       rx="3.6737294"
       style="fill:none;stroke:#1e223b;stroke-width:2.36198px;stroke-linecap:round;stroke-linejoin:round"
       id="rect324" />
    <path
       d="m 596.63104,615.95767 h -19.59323 a 3.6737294,3.4169095 0 0 0 -3.67373,3.41692 v 29.05738 a 3.6737294,3.4169095 0 0 1 -3.67374,3.41692 h -31.83898 a 3.6737294,3.4169095 0 0 0 -3.67373,3.41691 v 18.22351 a 3.6737294,3.4169095 0 0 0 3.67373,3.41691 h 58.77968 a 3.6737294,3.4169095 0 0 0 3.67372,-3.41691 v -54.11472 a 3.6737294,3.4169095 0 0 0 -3.67372,-3.41692 z"
       style="fill:none;stroke:#1e223b;stroke-width:2.36198px;stroke-linecap:round;stroke-linejoin:round"
       id="path326" />
    <rect
       x="494.99118"
       y="651.84888"
       width="26.940683"
       height="25.057335"
       rx="3.6737294"
       style="fill:none;stroke:#1e223b;stroke-width:2.36198px;stroke-linecap:round;stroke-linejoin:round"
       id="rect328" />
    <rect
       x="455.80472"
       y="651.84888"
       width="26.940683"
       height="25.057335"
       rx="3.6737294"
       style="fill:none;stroke:#1e223b;stroke-width:2.36198px;stroke-linecap:round;stroke-linejoin:round"
       id="rect330" />
    <rect
       x="416.61832"
       y="651.84888"
       width="26.940683"
       height="25.057335"
       rx="3.6737294"
       style="fill:none;stroke:#1e223b;stroke-width:2.36198px;stroke-linecap:round;stroke-linejoin:round"
       id="rect332" />
    <rect
       x="377.43182"
       y="651.84888"
       width="26.940683"
       height="25.057335"
       rx="3.6737294"
       style="fill:none;stroke:#1e223b;stroke-width:2.36198px;stroke-linecap:round;stroke-linejoin:round"
       id="rect334" />
    <rect
       x="299.05896"
       y="651.84888"
       width="66.127129"
       height="25.057335"
       rx="3.6737294"
       style="fill:none;stroke:#1e223b;stroke-width:2.36198px;stroke-linecap:round;stroke-linejoin:round"
       id="rect336" />
    <rect
       x="612.55054"
       y="687.73895"
       width="26.940683"
       height="25.057335"
       rx="3.6737294"
       style="fill:none;stroke:#1e223b;stroke-width:2.36198px;stroke-linecap:round;stroke-linejoin:round"
       id="rect338" />
    <rect
       x="573.36407"
       y="687.73895"
       width="26.940683"
       height="25.057335"
       rx="3.6737294"
       style="fill:none;stroke:#1e223b;stroke-width:2.36198px;stroke-linecap:round;stroke-linejoin:round"
       id="rect340" />
    <rect
       x="534.17767"
       y="687.73895"
       width="26.940683"
       height="25.057335"
       rx="3.6737294"
       style="fill:none;stroke:#1e223b;stroke-width:2.36198px;stroke-linecap:round;stroke-linejoin:round"
       id="rect342" />
    <rect
       x="416.61832"
       y="687.73895"
       width="105.31356"
       height="25.057335"
       rx="3.6737294"
       style="fill:none;stroke:#1e223b;stroke-width:2.36198px;stroke-linecap:round;stroke-linejoin:round"
       id="rect344" />
    <rect
       x="377.43182"
       y="687.73895"
       width="26.940683"
       height="25.057335"
       rx="3.6737294"
       style="fill:none;stroke:#1e223b;stroke-width:2.36198px;stroke-linecap:round;stroke-linejoin:round"
       id="rect346" />
    <rect
       x="338.24539"
       y="687.73895"
       width="26.940683"
       height="25.057335"
       rx="3.6737294"
       style="fill:none;stroke:#1e223b;stroke-width:2.36198px;stroke-linecap:round;stroke-linejoin:round"
       id="rect348" />
    <rect
       x="299.05896"
       y="687.73895"
       width="26.940683"
       height="25.057335"
       rx="3.6737294"
       style="fill:none;stroke:#1e223b;stroke-width:2.36198px;stroke-linecap:round;stroke-linejoin:round"
       id="rect350" />
    <rect
       x="324.95142"
       y="794.08124"
       width="53.881367"
       height="45.558796"
       style="fill:#f2a197;stroke-width:1.181"
       id="rect352" />
    <rect
       x="324.95142"
       y="794.08124"
       width="53.881367"
       height="45.558796"
       style="fill:none;stroke:#1e223b;stroke-width:2.36198px;stroke-linecap:round;stroke-linejoin:round"
       id="rect354" />
    <rect
       x="319.40527"
       y="829.38922"
       width="63.553066"
       height="29.059677"
       style="fill:#ffffff;stroke-width:1.181"
       id="rect356" />
    <rect
       x="319.40527"
       y="829.38922"
       width="63.553066"
       height="29.059677"
       style="fill:none;stroke:#1e223b;stroke-width:2.36198px;stroke-linecap:round;stroke-linejoin:round"
       id="rect358" />
    <path
       d="m 317.02592,857.71084 h 68.31178 a 7.9438275,7.3884974 0 0 1 7.94384,7.38851 V 998.08206 H 309.08211 V 865.09821 a 7.9438275,7.3884974 0 0 1 7.94381,-7.38737 z"
       style="fill:#1e223b;stroke-width:1.181"
       id="path360" />
    <path
       d="m 317.02592,857.71084 h 68.31178 a 7.9438275,7.3884974 0 0 1 7.94384,7.38851 V 998.08206 H 309.08211 V 865.09821 a 7.9438275,7.3884974 0 0 1 7.94381,-7.38737 z"
       style="fill:none;stroke:#1e223b;stroke-width:2.36198px;stroke-linecap:round;stroke-linejoin:round"
       id="path362" />
    <ellipse
       cx="371.60773"
       cy="843.91913"
       style="opacity:0.2;fill:#1e223b;stroke-width:1.181"
       id="circle364"
       rx="6.089819"
       ry="5.6640973" />
    <ellipse
       cx="371.60773"
       cy="843.91913"
       style="fill:none;stroke:#1e223b;stroke-width:2.36198px;stroke-linecap:round;stroke-linejoin:round"
       id="circle366"
       rx="6.089819"
       ry="5.6640973" />
    <path
       d="m 418.01087,735.03135 1.59077,0.85423 a 7.3474587,6.8338191 0 0 1 2.68936,9.33517 l -31.22669,50.3052 -14.31695,-7.68804 31.22671,-50.30521 a 7.3474587,6.8338191 0 0 1 10.0368,-2.50135 z"
       style="fill:#f2a197;stroke-width:1.181"
       id="path368" />
    <path
       d="m 418.01087,735.03135 1.59077,0.85423 a 7.3474587,6.8338191 0 0 1 2.68936,9.33517 l -31.22669,50.3052 -14.31695,-7.68804 31.22671,-50.30521 a 7.3474587,6.8338191 0 0 1 10.0368,-2.50135 z"
       style="fill:none;stroke:#1e223b;stroke-width:2.36198px;stroke-linecap:round;stroke-linejoin:round"
       id="path370" />
    <path
       d="m 387.92034,664.06889 h -1.83687 a 7.3474587,6.8338191 0 0 0 -7.34746,6.83383 v 51.25363 a 3.6737294,3.4169095 0 0 1 -3.67372,3.41692 v 0 a 3.6737294,3.4169095 0 0 1 -3.67373,-3.41692 v -61.16268 a 7.3474587,6.8338191 0 0 0 -7.34746,-6.83381 h -1.83687 a 7.3474587,6.8338191 0 0 0 -7.34745,6.83381 v 61.16268 a 3.6737294,3.4169095 0 0 1 -3.67374,3.41692 v 0 a 3.6737294,3.4169095 0 0 1 -3.67372,-3.41692 v -51.25363 a 7.3474587,6.8338191 0 0 0 -7.34746,-6.83383 H 338.325 a 7.3474587,6.8338191 0 0 0 -7.34747,6.83383 v 51.25363 a 3.6737294,3.4169095 0 0 1 -3.67373,3.41692 v 0 a 3.6737294,3.4169095 0 0 1 -3.67373,-3.41692 v -35.02331 a 7.3474587,6.8338191 0 0 0 -7.34744,-6.83382 h -1.83688 a 7.3474587,6.8338191 0 0 0 -7.34745,6.83382 v 100.50839 a 14.694917,13.667638 0 0 0 14.69491,13.66765 h 58.77967 A 14.694917,13.667638 0 0 0 395.2678,787.64143 V 670.90386 a 7.3474587,6.8338191 0 0 0 -7.34746,-6.83497 z"
       style="fill:#fdb3a6;stroke-width:1.181"
       id="path372" />
    <path
       d="m 387.92034,664.06889 h -1.83687 a 7.3474587,6.8338191 0 0 0 -7.34746,6.83383 v 51.25363 a 3.6737294,3.4169095 0 0 1 -3.67372,3.41692 v 0 a 3.6737294,3.4169095 0 0 1 -3.67373,-3.41692 v -61.16268 a 7.3474587,6.8338191 0 0 0 -7.34746,-6.83381 h -1.83687 a 7.3474587,6.8338191 0 0 0 -7.34745,6.83381 v 61.16268 a 3.6737294,3.4169095 0 0 1 -3.67374,3.41692 v 0 a 3.6737294,3.4169095 0 0 1 -3.67372,-3.41692 v -51.25363 a 7.3474587,6.8338191 0 0 0 -7.34746,-6.83383 H 338.325 a 7.3474587,6.8338191 0 0 0 -7.34747,6.83383 v 51.25363 a 3.6737294,3.4169095 0 0 1 -3.67373,3.41692 v 0 a 3.6737294,3.4169095 0 0 1 -3.67373,-3.41692 v -35.02331 a 7.3474587,6.8338191 0 0 0 -7.34744,-6.83382 h -1.83688 a 7.3474587,6.8338191 0 0 0 -7.34745,6.83382 v 100.50839 a 14.694917,13.667638 0 0 0 14.69491,13.66765 h 58.77967 A 14.694917,13.667638 0 0 0 395.2678,787.64143 V 670.90386 a 7.3474587,6.8338191 0 0 0 -7.34746,-6.83497 z"
       style="fill:none;stroke:#1e223b;stroke-width:2.36198px;stroke-linecap:round;stroke-linejoin:round"
       id="path374" />
    <rect
       x="457.64407"
       y="894.63171"
       width="53.881367"
       height="45.558796"
       style="fill:#f2a197;stroke-width:1.181"
       id="rect376" />
    <rect
       x="457.64407"
       y="894.63171"
       width="53.881367"
       height="45.558796"
       style="fill:none;stroke:#1e223b;stroke-width:2.36198px;stroke-linecap:round;stroke-linejoin:round"
       id="rect378" />
    <path
       d="m 457.63278,888.38874 -14.31693,7.68804 -31.22671,-50.30521 a 7.3474587,6.8338191 0 0 1 2.68935,-9.33518 l 1.59078,-0.85422 a 7.3474587,6.8338191 0 0 1 10.03682,2.50135 z"
       style="fill:#f2a197;stroke-width:1.181"
       id="path380" />
    <path
       d="m 457.63278,888.38874 -14.31693,7.68804 -31.22671,-50.30521 a 7.3474587,6.8338191 0 0 1 2.68935,-9.33518 l 1.59078,-0.85422 a 7.3474587,6.8338191 0 0 1 10.03682,2.50135 z"
       style="fill:none;stroke:#1e223b;stroke-width:2.36198px;stroke-linecap:round;stroke-linejoin:round"
       id="path382" />
    <path
       d="m 447.84499,764.61943 h 1.83687 a 7.3474587,6.8338191 0 0 1 7.34745,6.83382 v 51.25364 a 3.6737294,3.4169095 0 0 0 3.67374,3.41691 v 0 a 3.6737294,3.4169095 0 0 0 3.67371,-3.41691 v -8.16868 a 7.3474587,6.8338191 0 0 1 7.34747,-6.83382 h 1.83687 a 7.3474587,6.8338191 0 0 1 7.34745,6.83382 v 8.16868 a 3.6737294,3.4169095 0 0 0 3.67373,3.41691 v 0 a 3.6737294,3.4169095 0 0 0 3.67372,-3.41691 v -8.16868 a 7.3474587,6.8338191 0 0 1 7.34748,-6.83382 h 1.83685 a 7.3474587,6.8338191 0 0 1 7.34747,6.83382 v 8.16868 a 3.6737294,3.4169095 0 0 0 3.67373,3.41691 v 0 a 3.6737294,3.4169095 0 0 0 3.67372,-3.41691 v -8.16868 a 7.3474587,6.8338191 0 0 1 7.34746,-6.83382 h 1.83688 a 7.3474587,6.8338191 0 0 1 7.34745,6.83382 v 73.65376 A 14.694917,13.667638 0 0 1 513.97211,901.8596 H 455.19244 A 14.694917,13.667638 0 0 1 440.49753,888.19197 V 771.45439 a 7.3474587,6.8338191 0 0 1 7.34746,-6.83496 z"
       style="fill:#fdb3a6;stroke-width:1.181"
       id="path384" />
    <path
       d="m 447.84499,764.61943 h 1.83687 a 7.3474587,6.8338191 0 0 1 7.34745,6.83382 v 51.25364 a 3.6737294,3.4169095 0 0 0 3.67374,3.41691 v 0 a 3.6737294,3.4169095 0 0 0 3.67371,-3.41691 v -8.16868 a 7.3474587,6.8338191 0 0 1 7.34747,-6.83382 h 1.83687 a 7.3474587,6.8338191 0 0 1 7.34745,6.83382 v 8.16868 a 3.6737294,3.4169095 0 0 0 3.67373,3.41691 v 0 a 3.6737294,3.4169095 0 0 0 3.67372,-3.41691 v -8.16868 a 7.3474587,6.8338191 0 0 1 7.34748,-6.83382 h 1.83685 a 7.3474587,6.8338191 0 0 1 7.34747,6.83382 v 8.16868 a 3.6737294,3.4169095 0 0 0 3.67373,3.41691 v 0 a 3.6737294,3.4169095 0 0 0 3.67372,-3.41691 v -8.16868 a 7.3474587,6.8338191 0 0 1 7.34746,-6.83382 h 1.83688 a 7.3474587,6.8338191 0 0 1 7.34745,6.83382 v 73.65376 A 14.694917,13.667638 0 0 1 513.97211,901.8596 H 455.19244 A 14.694917,13.667638 0 0 1 440.49753,888.19197 V 771.45439 a 7.3474587,6.8338191 0 0 1 7.34746,-6.83496 z"
       style="fill:none;stroke:#1e223b;stroke-width:2.36198px;stroke-linecap:round;stroke-linejoin:round"
       id="path386" />
    <rect
       x="452.80817"
       y="929.9397"
       width="63.553066"
       height="29.059677"
       style="fill:#ffffff;stroke-width:1.181"
       id="rect388" />
    <rect
       x="452.80817"
       y="929.9397"
       width="63.553066"
       height="29.059677"
       style="fill:none;stroke:#1e223b;stroke-width:2.36198px;stroke-linecap:round;stroke-linejoin:round"
       id="rect390" />
    <path
       d="m 450.42885,958.26139 h 68.31178 a 7.9438275,7.3884974 0 0 1 7.94382,7.38849 v 34.46632 h -84.19821 v -34.46744 a 7.9438275,7.3884974 0 0 1 7.94261,-7.38737 z"
       style="fill:#1e223b;stroke-width:1.181"
       id="path392" />
    <path
       d="m 450.42885,958.26139 h 68.31178 a 7.9438275,7.3884974 0 0 1 7.94382,7.38849 v 34.46632 h -84.19821 v -34.46744 a 7.9438275,7.3884974 0 0 1 7.94261,-7.38737 z"
       style="fill:none;stroke:#1e223b;stroke-width:2.36198px;stroke-linecap:round;stroke-linejoin:round"
       id="path394" />
    <ellipse
       cx="466.24915"
       cy="944.46967"
       style="fill:none;stroke:#1e223b;stroke-width:2.36198px;stroke-linecap:round;stroke-linejoin:round"
       id="circle396"
       rx="6.089819"
       ry="5.6640973" />
    <ellipse
       cx="466.24915"
       cy="944.46967"
       style="opacity:0.2;fill:#1e223b;stroke-width:1.181"
       id="circle398"
       rx="6.089819"
       ry="5.6640973" />
    <line
       x1="487.03143"
       y1="94.065742"
       x2="553.15863"
       y2="94.065742"
       style="fill:none;stroke:#1e223b;stroke-width:3.543px;stroke-linecap:round;stroke-linejoin:round"
       id="line400" />
    <line
       x1="487.03143"
       y1="109.44183"
       x2="538.46362"
       y2="109.44183"
       style="fill:none;stroke:#1e223b;stroke-width:3.543px;stroke-linecap:round;stroke-linejoin:round"
       id="line402" />
    <line
       x1="487.03143"
       y1="124.81793"
       x2="516.42126"
       y2="124.81793"
       style="fill:none;stroke:#1e223b;stroke-width:3.543px;stroke-linecap:round;stroke-linejoin:round"
       id="line404" />
    <line
       x1="575.46179"
       y1="29.713949"
       x2="608.52533"
       y2="29.713949"
       style="fill:none;stroke:#1e223b;stroke-width:3.543px;stroke-linecap:round;stroke-linejoin:round"
       id="line406" />
    <line
       x1="575.46179"
       y1="37.686741"
       x2="596.2796"
       y2="37.686741"
       style="fill:none;stroke:#1e223b;stroke-width:3.543px;stroke-linecap:round;stroke-linejoin:round"
       id="line408" />
    <path
       d="M 463.09219,130.57656"
       style="fill:none;stroke:#1e223b;stroke-width:3.543px;stroke-linecap:round;stroke-linejoin:round"
       id="path410" />
    <path
       d="M 474.78566,265.75064"
       style="fill:none;stroke:#1e223b;stroke-width:3.543px;stroke-linecap:round;stroke-linejoin:round"
       id="path412" />
    <line
       x1="574.69147"
       y1="110.72774"
       x2="578.36523"
       y2="110.72774"
       style="fill:none;stroke:#1e223b;stroke-width:2.36198px;stroke-linecap:round;stroke-linejoin:round"
       id="line414" />
    <path
       d="m 588.08593,110.72773 h 27.20275 a 48.694059,45.289997 0 0 1 48.69406,45.29001 v 0 a 48.694059,45.289997 0 0 1 -48.69406,45.28999 h -80.28813 a 54.703054,50.878921 0 0 0 -54.70428,50.87892 v 5.62652"
       style="fill:none;stroke:#1e223b;stroke-width:2.36198px;stroke-linecap:round;stroke-linejoin:round;stroke-dasharray:7.03125, 9.37499"
       id="path416" />
    <line
       x1="480.29623"
       y1="262.33374"
       x2="480.29623"
       y2="265.75064"
       style="fill:none;stroke:#1e223b;stroke-width:2.36198px;stroke-linecap:round;stroke-linejoin:round"
       id="line418" />
    <line
       x1="118.87109"
       y1="393.43259"
       x2="272.60684"
       y2="393.43259"
       style="fill:none;stroke:#1e223b;stroke-width:2.36198px;stroke-linecap:round;stroke-linejoin:round;stroke-dasharray:7.08598, 9.44799"
       id="line420" />
    <path
       d="m 114.92796,651.84889 h 32.14513 a 55.244318,51.382347 0 0 0 55.24431,-51.38235 v -21.63359 a 54.96144,51.119244 0 0 1 54.96023,-51.11925 h 17.28978"
       style="fill:none;stroke:#1e223b;stroke-width:2.36198px;stroke-linecap:round;stroke-linejoin:round"
       id="path422" />
    <path
       d="m 277.98643,114.40546 h 16.60036 a 43.659825,40.607692 0 0 1 43.65861,40.6077 v 0 a 43.6586,40.606553 0 0 0 43.65982,40.60656 h 24.11803 a 43.659825,40.607692 0 0 1 43.65861,40.60767 v 29.52325"
       style="fill:none;stroke:#1e223b;stroke-width:2.36198px;stroke-linecap:round;stroke-linejoin:round;stroke-dasharray:7.08598, 9.44799"
       id="path424" />
    <path
       d="m 663.98274,385.33678 h 64.32945 a 42.571177,39.595148 0 0 0 42.57607,-39.59515 V 240.90402"
       style="fill:none;stroke:#1e223b;stroke-width:2.36198px;stroke-linecap:round;stroke-linejoin:round"
       id="path426" />
    <ellipse
       cx="930.51917"
       cy="697.42023"
       style="fill:none;stroke:#1e223b;stroke-width:2.36198px;stroke-linecap:round;stroke-linejoin:round"
       id="circle428"
       rx="37.361832"
       ry="34.749973" />
    <line
       x1="663.98273"
       y1="454.45743"
       x2="894.50922"
       y2="454.45743"
       style="fill:none;stroke:#1e223b;stroke-width:2.36198px;stroke-linecap:round;stroke-linejoin:round;stroke-dasharray:7.08598, 9.44799"
       id="line430" />
    <ellipse
       cx="896.49664"
       cy="717.211"
       style="fill:#ffffff;stroke-width:1.181"
       id="circle432"
       rx="43.334087"
       ry="40.304729" />
    <ellipse
       cx="896.49664"
       cy="717.211"
       style="fill:none;stroke:#1e223b;stroke-width:2.36198px;stroke-linecap:round;stroke-linejoin:round"
       id="circle434"
       rx="43.334087"
       ry="40.304729" />
    <line
       x1="853.16266"
       y1="717.211"
       x2="663.98273"
       y2="717.211"
       style="fill:none;stroke:#1e223b;stroke-width:2.36198px;stroke-linecap:round;stroke-linejoin:round;stroke-dasharray:7.08598, 9.44799"
       id="line436" />
    <ellipse
       cx="673.16705"
       cy="23.449614"
       style="opacity:0.39;fill:#ffffff;stroke-width:1.181"
       id="circle438"
       rx="9.1843243"
       ry="8.5422735" />
    <ellipse
       cx="673.16705"
       cy="23.449614"
       style="fill:none;stroke:#1e223b;stroke-width:2.36198px;stroke-linecap:round;stroke-linejoin:round"
       id="circle440"
       rx="9.1843243"
       ry="8.5422735" />
    <polyline
       points="844.256 784.114 859.373 752.113 894.355 757.482"
       style="fill:none;stroke:#1e223b;stroke-width:2px;stroke-linecap:round;stroke-linejoin:round"
       id="polyline442"
       transform="matrix(1.2245766,0,0,1.1389699,-155.8712,-139.42307)" />
    <rect
       x="785.86853"
       y="638.6311"
       width="107.85825"
       height="51.491684"
       rx="11.072619"
       style="fill:#f73e59;stroke-width:1.181"
       id="rect444" />
    <rect
       x="785.86853"
       y="638.6311"
       width="107.85825"
       height="51.491684"
       rx="11.072619"
       style="fill:none;stroke:#1e223b;stroke-width:2.36198px;stroke-linecap:round;stroke-linejoin:round"
       id="rect446" />
    <path
       d="m 799.85562,673.38112 2.61447,-3.35085 a 11.3506,10.557111 0 0 0 8.35772,3.42488 c 3.7962,0 5.26569,-1.73123 5.26569,-3.38844 0,-5.15725 -15.36599,-1.95219 -15.36599,-10.9774 0,-4.08889 3.79619,-7.22106 9.62395,-7.22106 a 13.683416,12.72685 0 0 1 9.86273,3.46247 l -2.61447,3.20506 a 10.776272,10.022935 0 0 0 -7.68422,-2.83489 c -2.69406,0 -4.4354,1.25287 -4.4354,3.05698 0,4.60372 15.36842,1.76769 15.36842,10.90337 0,4.0889 -3.13001,7.62426 -10.21909,7.62426 a 14.450002,13.439844 0 0 1 -10.77381,-3.90438 z"
       style="fill:#ffffff;stroke-width:1.181"
       id="path448" />
    <path
       d="m 826.90773,664.57574 c 0,-7.32927 5.5853,-12.70862 13.50709,-12.70862 7.88015,0 13.50461,5.37935 13.50461,12.70862 a 13.837714,12.870359 0 0 1 -3.52555,8.84296 l 2.17853,2.27794 -3.20718,2.50574 -2.2973,-2.39184 a 14.114468,13.127766 0 0 1 -6.65311,1.47269 c -7.92179,0.002 -13.50709,-5.3748 -13.50709,-12.70749 z m 17.22856,8.1425 -3.28676,-3.46361 3.24758,-2.50574 3.28677,3.46134 a 10.427268,9.6983282 0 0 0 1.78297,-5.63676 c 0,-5.08209 -3.44595,-8.87601 -8.75203,-8.87601 -5.34773,0 -8.75451,3.79392 -8.75451,8.87601 0,5.0479 3.40678,8.88396 8.75451,8.88396 a 8.7251072,8.1151601 0 0 0 3.72147,-0.73807 z"
       style="fill:#ffffff;stroke-width:1.181"
       id="path450" />
    <path
       d="m 861.01709,676.84473 v -24.56988 h 4.63379 v 20.77711 h 11.64328 v 3.7939 z"
       style="fill:#ffffff;stroke-width:1.181"
       id="path452" />
    <rect
       x="31.388577"
       y="137.1974"
       width="157.05806"
       height="59.45536"
       rx="13.21318"
       style="fill:#e44d26;stroke:#1e223b;stroke-width:2.36198px;stroke-miterlimit:10"
       id="rect454" />
    <rect
       x="31.388577"
       y="137.1974"
       width="157.05806"
       height="59.45536"
       rx="13.21318"
       style="fill:none;stroke:#1e223b;stroke-width:2.36198px;stroke-linecap:round;stroke-linejoin:round"
       id="rect456" />
    <path
       d="M 70.063153,180.39965 V 168.60221 H 54.993515 v 11.79744 h -5.081993 v -26.94688 h 5.081993 v 10.98763 h 15.069638 v -10.98763 h 5.081993 v 26.94688 z"
       style="fill:#ffffff;stroke-width:1.181"
       id="path458" />
    <path
       d="M 91.479769,180.39965 V 157.62026 H 82.70568 v -4.16066 h 22.62527 v 4.16066 h -8.774088 v 22.77939 z"
       style="fill:#ffffff;stroke-width:1.181"
       id="path460" />
    <path
       d="m 137.91204,180.39965 v -20.80669 l -8.86104,20.80669 h -2.16749 l -8.90269,-20.80442 v 20.80442 h -5.082 v -26.94688 h 7.16624 l 7.90586,18.50257 7.86056,-18.50257 h 7.16622 v 26.94688 z"
       style="fill:#ffffff;stroke-width:1.181"
       id="path462" />
    <path
       d="m 152.07304,180.39965 v -26.94688 h 5.08077 v 22.7794 h 12.76988 v 4.16748 z"
       style="fill:#ffffff;stroke-width:1.181"
       id="path464" />
  </g>
</svg>
