<svg xmlns="http://www.w3.org/2000/svg" xmlns:svg="http://www.w3.org/2000/svg" xmlns:xlink="http://www.w3.org/1999/xlink" id="Layer_1" x="0" y="0" version="1.1" viewBox="0 0 1000 1000" xml:space="preserve" style="enable-background:new 0 0 1000 1000"><metadata id="metadata249"/><style id="style2" type="text/css">.st2{fill:#2b2727}.st3{fill:#72361f}.st4{fill:#5b3318}.st5{fill:#783f21}.st6{opacity:.4}.st7{clip-path:url(#XMLID_34_)}.st8{fill:none;stroke:#300f0f;stroke-width:6;stroke-linecap:round;stroke-linejoin:round;stroke-miterlimit:10}.st9{opacity:.44;fill:#72361f;enable-background:new}.st10{fill:#c9c9c9}.st11{fill:#b5b5b5}.st12{fill:#f45145}.st13{fill:#db493e}.st14{fill:#aa3930}.st15{fill:#ababab}.st16{fill:#3b69a9}.st17{fill:#355e98}.st18{opacity:.23;fill:#72361f;enable-background:new}.st19{fill:#e1e1e1}.st20{fill:#fdc457}.st21{fill:#f2b24c}.st22{fill:#323b40}.st23{fill:#2d363a}.st24{fill:#7d4025}.st25{opacity:8.000000e-02;clip-path:url(#SVGID_2_)}.st26{stroke-width:5.8435}.st26,.st27,.st28{fill:none;stroke:#300f0f;stroke-linecap:round;stroke-linejoin:round;stroke-miterlimit:10}.st27{stroke-width:7.8052}.st28{stroke-width:5.3519}.st29{fill:#d98c40}.st30{fill:#c87634}.st31{clip-path:url(#SVGID_4_)}.st32,.st33{fill:none;stroke:#cf8139;stroke-width:6;stroke-linecap:round;stroke-linejoin:round;stroke-miterlimit:10}.st33{stroke-width:4.9126}</style><path id="XMLID_30_" d="M 913.73784,807.19812 H 63.999519 c -19.165954,0 -34.613133,-15.13992 -34.613133,-33.92464 v 0 c 0,-18.78471 15.447179,-33.92463 34.613133,-33.92463 H 913.73784 c 19.16595,0 34.61314,15.13992 34.61314,33.92463 v 0 c 0,18.64454 -15.44719,33.92464 -34.61314,33.92464 z" class="st2" style="stroke-width:1.416"/><path id="XMLID_46_" d="m 800.17242,438.37286 v -72.75572 c 0,-27.89671 -23.02775,-50.46641 -51.49063,-50.46641 v 0 c -28.46287,0 -51.49062,22.5697 -51.49062,50.46641 v 72.61554 c 0,46.40105 -38.47493,84.11066 -85.81771,84.11066 v 0 213.08036 c 0,18.64452 15.30417,33.64425 34.3271,33.64425 h 205.96248 c 19.02292,0 34.32709,-14.99973 34.32709,-33.64425 v -213.08036 0 c -47.48581,0.14017 -85.81771,-37.56943 -85.81771,-83.97048 z" class="st3" style="stroke-width:1.416"/><rect id="XMLID_2_" width="23.457" height="11.635" x="728.658" y="315.151" class="st3" style="stroke-width:1.416"/><path id="XMLID_43_" d="m 780.14828,438.37286 v -72.75572 c 0,-27.89671 -23.02775,-50.46641 -51.49063,-50.46641 v 0 c -28.46286,0 -51.49061,22.5697 -51.49061,50.46641 v 72.61554 c 0,46.40105 -38.47494,84.11066 -85.81771,84.11066 v 0 213.08036 c 0,18.64452 15.30417,33.64425 34.32708,33.64425 h 205.9625 c 19.02291,0 34.32708,-14.99973 34.32708,-33.64425 v -213.08036 0 c -47.48579,0.14017 -85.81771,-37.56943 -85.81771,-83.97048 z" class="st4" style="stroke-width:1.416"/><path id="XMLID_20_" d="m 865.96599,522.48351 v 0 c -32.32467,0 -60.35845,-17.52304 -75.0905,-43.31698 l -79.38137,31.40132 -40.19129,21.86877 95.25765,14.57918 99.40551,-19.34546 z" class="st4" style="stroke-width:1.416"/><ellipse id="XMLID_31_" cx="728.658" cy="366.598" class="st5" rx="17.164" ry="16.822" style="stroke-width:1.416"/><rect id="XMLID_1_" width="20.024" height="5.187" x="235.206" y="315.151" class="st3" style="stroke-width:1.416"/><rect id="XMLID_28_" width="493.595" height="33.644" x="235.206" y="349.776" class="st5" style="stroke-width:1.416"/><g id="g117" class="st6" transform="matrix(1.430295,0,0,1.4018443,-210.04501,-140.44868)"><defs id="defs104"><rect id="XMLID_32_" width="345.1" height="24" x="311.3" y="349.7" class="st6"/></defs><clipPath id="XMLID_34_"><use style="overflow:visible" id="use106" width="100%" height="100%" x="0" y="0" xlink:href="#XMLID_32_"/></clipPath><g id="XMLID_82_" class="st7" clip-path="url(#XMLID_34_)"><path id="XMLID_11_" d="m 331.5,316.7 c 1.2,8.3 8.1,53.2 41.3,68.7 4,1.9 20.1,9.4 28.7,2.7 11.3,-8.9 -3.1,-33.2 9.3,-48 8,-9.6 23.7,-11 34,-9.3 35.6,5.9 36.3,54.3 70.7,62 21.8,4.9 44.8,-9.3 56.7,-16.7 24.8,-15.3 29.2,-31.7 44,-32 9.1,-0.2 22.5,5.6 39.3,35.3" class="st8"/><path id="XMLID_10_" d="m 358.8,336 c -3.8,5.8 -4.4,13 -1.3,18.7 3,5.5 8.3,7.5 10,8 1.8,0.6 8.3,2.3 14,-1.3 5.6,-3.6 8.4,-11.1 6.7,-18.7" class="st8"/><path id="XMLID_95_" d="m 422.1,376 c -0.5,-1.4 -4.9,-14.1 2.7,-25.3 0.4,-0.7 6.9,-10.1 15.3,-10.7 11.9,-0.9 26.6,15.9 31.3,43.3" class="st8"/><path id="XMLID_96_" d="m 438.1,358 c -3.4,1.7 -4,8.6 -2,13.3 0.4,0.9 2.9,6.6 7.3,6.7 4.3,0.1 8.2,-5.3 8,-10 -0.2,-6.8 -9.1,-12 -13.3,-10 z" class="st8"/><path id="XMLID_97_" d="m 495.5,335.4 c 0.3,3.3 1.2,9.6 5.3,16 5.9,9.2 14.3,12.8 17.3,14 2.9,1.2 12.1,4.8 22.7,2 7,-1.8 9.8,-5.3 27.3,-21.3 6.1,-5.6 11.1,-10 14,-12.7" class="st8"/><path id="XMLID_98_" d="m 599.5,380 c 0.9,-8.2 6.3,-14.8 13.3,-16.7 0.7,-0.2 9.9,-2.5 16,4 4.4,4.7 4.1,10.8 4,12" class="st8"/><path id="XMLID_99_" d="m 527.5,338 c 0,9.1 4.4,15.8 9.3,16.7 4.2,0.7 8.2,-3 10,-4.7 5,-4.6 6.3,-10.4 6.7,-12.7" class="st8"/></g></g><rect id="XMLID_101_" width="22.742" height="33.364" x="423.862" y="349.776" class="st9" style="stroke-width:1.416"/><rect id="XMLID_134_" width="35.9" height="33.364" x="299.712" y="349.776" class="st9" style="stroke-width:1.416"/><rect id="XMLID_103_" width="31.466" height="33.364" x="579.907" y="349.776" class="st9" style="stroke-width:1.416"/><g id="XMLID_107_" transform="matrix(1.430295,0,0,1.4018443,-210.04501,-140.44868)"><polygon id="XMLID_26_" points="424.7 317.8 424.7 317.8 431.8 285.2 450.7 285.2 457.9 317.8 457.9 317.8 457.9 317.8 457.9 317.8 457.9 317.8 449.1 341.2 449.1 341.2 449.1 411.5 433.5 411.5 433.5 341.2 433.4 341.2 424.7 317.8" class="st10"/><polygon id="XMLID_24_" points="445.7 285.2 450.7 285.2 457.9 317.8 457.9 317.8 457.9 317.8 457.9 317.8 449.1 341.2 449.1 341.2 449.1 411.5 444.1 411.5 444.1 341.2 452.9 317.8" class="st11"/><path id="XMLID_15_" d="M 417.2,556.4 V 442.3 c 0,-5.5 3.3,-10.3 8.1,-12.3 2,-0.8 2.3,-3.5 0.6,-4.9 l -6.7,-5.6 c -1.8,-1.5 -2.8,-3.7 -2.8,-6 v -5.3 c 0,-2 1.6,-3.6 3.6,-3.6 h 42.4 c 2,0 3.6,1.6 3.6,3.6 v 5.3 c 0,2.3 -1,4.5 -2.8,6 l -6.7,5.6 c -1.6,1.4 -1.3,4 0.6,4.9 4.8,2.1 8.1,6.8 8.1,12.3 v 114.1 c 0,7.4 -6,13.4 -13.4,13.4 h -21.4 c -7.2,0.1 -13.2,-6 -13.2,-13.4 z" class="st12"/><path id="XMLID_16_" d="M 457.4,556.4 V 442.3 c 0,-5.5 -3.3,-10.3 -8.1,-12.3 -2,-0.8 -2.3,-3.5 -0.6,-4.9 l 6.7,-5.6 c 1.8,-1.5 2.8,-3.7 2.8,-6 v -5.3 c 0,-2 -1.6,-3.6 -3.6,-3.6 h 8 c 2,0 3.6,1.6 3.6,3.6 v 5.3 c 0,2.3 -1,4.5 -2.8,6 l -6.7,5.6 c -1.6,1.4 -1.3,4 0.6,4.9 4.8,2.1 8.1,6.8 8.1,12.3 v 114.1 c 0,7.4 -6,13.4 -13.4,13.4 h -8 c 7.4,0.1 13.4,-6 13.4,-13.4 z" class="st13"/><path id="XMLID_23_" d="M 437,550.3 V 455 c 0,-2.8 -2.2,-5 -5,-5 v 0 c -2.8,0 -5,2.2 -5,5 v 95.3 c 0,2.8 2.2,5 5,5 v 0 c 2.8,0 5,-2.3 5,-5 z" class="st14"/><path id="XMLID_25_" d="M 455.5,550.3 V 455 c 0,-2.8 -2.2,-5 -5,-5 v 0 c -2.8,0 -5,2.2 -5,5 v 95.3 c 0,2.8 2.2,5 5,5 v 0 c 2.8,0 5,-2.3 5,-5 z" class="st14"/></g><g id="XMLID_108_" transform="matrix(1.430295,0,0,1.4018443,-210.04501,-140.44868)"><path id="XMLID_9_" d="m 583.4,284.7 c -1.6,1.8 -4,4.4 -6,6.6 -2.1,2.3 -5.6,2.7 -8.2,0.8 -5.7,-4.1 -15.1,-11.2 -27,-12.1 -17.2,-1.4 -28.8,4.7 -39.3,12.9 -15.5,12.2 -25.3,26.8 -30.5,35.8 3.9,3.4 5.6,4.4 8.6,6.9 4.9,-5.1 14.5,-15.8 28.1,-19.2 2.1,-0.5 5.8,-1.4 10.2,0 1.5,0.5 4.3,1.6 6.8,4.4 4.3,4.8 4,10.7 4,12 v 38.8 h 25.5 v -37.1 c -0.5,-6.5 2.3,-12.5 7.2,-15 0.4,-0.2 5.2,-2.6 9.9,-0.8 3.4,1.3 7.6,5.2 10.8,8.3 0.3,0.3 1.1,1 2.4,1.5 0.7,0.2 1.5,0.4 2.2,0.3 4.6,-0.1 14,-0.3 20.5,-0.6 3.1,-0.1 5.5,-2.6 5.5,-5.7 v -33.8 c 0,-3.1 -2.5,-5.6 -5.6,-5.7 -6.2,-0.1 -15,-0.3 -20.3,-0.4 -1.8,0 -3.6,0.8 -4.8,2.1 z" class="st10"/><g id="XMLID_12_"><path id="XMLID_27_" d="m 517.2,314.6 c -2.8,-3.2 -6.2,-4.5 -7.8,-5.1 -5,-1.6 -9.4,-0.6 -11.8,0 -7.5,1.8 -13.9,5.6 -19.2,9.7 -2.4,3.5 -4.4,6.7 -6,9.4 3.9,3.4 5.6,4.4 8.6,6.9 4.9,-5.1 14.5,-15.8 28.1,-19.2 1.9,-0.5 5.3,-1.3 9.3,-0.3 -0.3,-0.3 -0.7,-0.8 -1.2,-1.4 z" class="st15"/><path id="XMLID_44_" d="m 612.7,323.2 c -7.5,0.2 -18.4,0.5 -23.7,0.6 -0.9,0 -1.8,-0.1 -2.6,-0.4 -1.5,-0.5 -2.5,-1.4 -2.8,-1.7 -3.7,-3.5 -8.6,-8 -12.5,-9.5 -5.4,-2.1 -11,0.8 -11.4,1 -5.6,3 -8.8,9.8 -8.3,17.4 v 41.2 h 4.3 v -37.1 c -0.5,-6.5 2.3,-12.5 7.2,-15 0.4,-0.2 5.2,-2.6 9.9,-0.8 3.4,1.3 7.6,5.2 10.8,8.3 0.3,0.3 1.1,1 2.4,1.5 0.7,0.2 1.5,0.4 2.2,0.3 4.6,-0.1 14,-0.3 20.5,-0.6 2.9,-0.1 5.3,-2.4 5.5,-5.2 -0.5,-0.1 -1,0 -1.5,0 z" class="st15"/></g><path id="XMLID_4_" d="m 546,548.7 h -4.8 c -12.6,0 -22.6,-12.4 -22.2,-27.3 l 4.7,-149.7 h 39.8 l 4.7,149.7 c 0.4,14.9 -9.6,27.3 -22.2,27.3 z" class="st16"/><path id="XMLID_93_" d="m 568.2,521.4 -4.7,-149.7 h -9.7 l 4.7,149.7 c 0.4,13.9 -8.3,25.6 -19.7,27.1 0.8,0.1 1.6,0.2 2.4,0.2 h 4.8 c 12.6,0 22.6,-12.4 22.2,-27.3 z" class="st17"/><path id="XMLID_7_" d="m 568.7,383.8 h -50.2 c -3.3,0 -6,-2.7 -6,-6 v 0 c 0,-3.3 2.7,-6 6,-6 h 50.2 c 3.3,0 6,2.7 6,6 v 0 c 0,3.3 -2.7,6 -6,6 z" class="st17"/></g><polygon id="XMLID_102_" points="564.5 408.1 565.4 435.2 521.1 460 521.8 437.5" class="st18" transform="matrix(1.430295,0,0,1.4018443,-210.04501,-140.44868)"/><g id="XMLID_109_" transform="matrix(1.430295,0,0,1.4018443,-210.04501,-140.44868)"><polygon id="XMLID_70_" points="416.5 528.4 468.4 595.3 762.7 425.5 682.2 322.6" class="st10"/><polygon id="XMLID_65_" points="455.6 578.7 468.8 595.6 759 427.6 751.1 408.7" class="st19"/><path id="XMLID_13_" d="m 823.4,357.7 -54.7,-70.6 c -8.4,-10.9 -24.1,-12.9 -35,-4.4 l -5.8,4.5 20.4,26.3 v 0 c 1.4,-0.5 2.8,-0.7 4.3,-0.7 h 0.1 c 0.3,0 0.7,0 1,0 0.1,0 0.1,0 0.2,0 0.9,0.1 1.9,0.2 2.8,0.5 0.1,0 0.3,0.1 0.4,0.1 0.2,0.1 0.4,0.1 0.7,0.2 0.2,0.1 0.4,0.1 0.6,0.2 0.2,0.1 0.4,0.2 0.6,0.2 0.2,0.1 0.5,0.2 0.7,0.3 0.1,0.1 0.3,0.1 0.4,0.2 0.4,0.2 0.7,0.4 1,0.7 0.1,0.1 0.2,0.2 0.4,0.3 0.2,0.2 0.5,0.4 0.7,0.5 0.1,0.1 0.2,0.2 0.4,0.3 0.2,0.2 0.4,0.4 0.7,0.6 0.1,0.1 0.2,0.2 0.3,0.3 0.3,0.3 0.6,0.7 0.9,1 l 26,33.6 c 0.3,0.4 0.5,0.7 0.8,1.1 0.1,0.1 0.1,0.2 0.2,0.4 0.2,0.3 0.3,0.5 0.4,0.8 0.1,0.1 0.1,0.3 0.2,0.4 0.1,0.3 0.2,0.5 0.4,0.8 0.1,0.1 0.1,0.3 0.2,0.4 0.1,0.4 0.3,0.8 0.4,1.2 0,0.2 0.1,0.3 0.1,0.5 0.1,0.3 0.1,0.5 0.2,0.8 0,0.2 0.1,0.4 0.1,0.6 0,0.2 0,0.4 0.1,0.6 0,0.2 0,0.5 0.1,0.7 0,0.2 0,0.3 0,0.5 0,1 -0.1,1.9 -0.2,2.8 0,0.1 0,0.1 0,0.2 -0.1,0.3 -0.1,0.6 -0.2,1 v 0.1 c -0.4,1.4 -1,2.7 -1.8,4 v 0 l 21.6,27.9 3.4,-2 c 12.8,-7.5 16.2,-24.9 6.9,-36.9 z" class="st20"/><g id="XMLID_135_"><path id="XMLID_146_" d="m 784.7,344.5 -26,-33.6 c -0.3,-0.4 -0.6,-0.7 -0.9,-1 -0.1,-0.1 -0.2,-0.2 -0.3,-0.3 -0.2,-0.2 -0.4,-0.4 -0.7,-0.6 -0.1,-0.1 -0.2,-0.2 -0.4,-0.3 -0.2,-0.2 -0.5,-0.4 -0.7,-0.5 -0.1,-0.1 -0.2,-0.2 -0.4,-0.3 -0.3,-0.2 -0.7,-0.5 -1,-0.7 -0.1,-0.1 -0.3,-0.1 -0.4,-0.2 -0.2,-0.1 -0.5,-0.2 -0.7,-0.3 -0.2,-0.1 -0.4,-0.2 -0.6,-0.2 -0.2,-0.1 -0.4,-0.1 -0.6,-0.2 -0.2,-0.1 -0.4,-0.2 -0.7,-0.2 -0.1,0 -0.3,-0.1 -0.4,-0.1 -0.9,-0.3 -1.9,-0.4 -2.8,-0.5 -0.1,0 -0.1,0 -0.2,0 -0.3,0 -0.7,0 -1,0 h -0.1 c -1.4,0 -2.9,0.3 -4.3,0.7 v 0 L 728,287.1 v 0 l 20.4,26.3 v 0 c 1.4,-0.5 2.8,-0.7 4.3,-0.7 h 0.1 c 0.3,0 0.7,0 1,0 0.1,0 0.1,0 0.2,0 0.9,0.1 1.9,0.2 2.8,0.5 0.1,0 0.3,0.1 0.4,0.1 0.2,0.1 0.4,0.1 0.7,0.2 0.2,0.1 0.4,0.1 0.6,0.2 0.2,0.1 0.4,0.2 0.6,0.2 0.2,0.1 0.5,0.2 0.7,0.3 0.1,0.1 0.3,0.1 0.4,0.2 0.4,0.2 0.7,0.4 1,0.7 0.1,0.1 0.2,0.2 0.4,0.3 0.2,0.2 0.5,0.4 0.7,0.5 0.1,0.1 0.2,0.2 0.4,0.3 0.2,0.2 0.4,0.4 0.7,0.6 0.1,0.1 0.2,0.2 0.3,0.3 0.3,0.3 0.6,0.7 0.9,1 l 20.7,26.7 c -0.3,0.1 -0.5,-0.1 -0.6,-0.3 z" class="st21"/><path id="XMLID_149_" d="m 823.4,357.7 -4.9,-6.3 c 8.2,11.9 4.6,28.4 -8.1,35.8 l -3.4,2 -15.8,-20.5 v 0 0 l 21.6,27.9 3.4,-2 c 13.1,-7.5 16.5,-24.9 7.2,-36.9 z" class="st21"/></g><g id="XMLID_45_"><path id="XMLID_66_" d="M 762.2,316.1 Z" class="st22"/><path id="XMLID_67_" d="m 761.1,315.3 c -0.3,-0.2 -0.7,-0.5 -1,-0.7 v 0 c 0.3,0.2 0.7,0.5 1,0.7 z" class="st22"/><path id="XMLID_68_" d="m 762.5,316.4 v 0 c 0.2,0.2 0.4,0.4 0.6,0.6 -0.1,-0.2 -0.3,-0.4 -0.6,-0.6 z" class="st22"/><path id="XMLID_72_" d="m 759.7,314.4 c -0.2,-0.1 -0.5,-0.2 -0.7,-0.3 v 0 c 0.2,0.1 0.4,0.2 0.7,0.3 z" class="st22"/><path id="XMLID_76_" d="m 755.3,312.9 c 0,0 0,0.1 0,0 0,0.1 0,0.1 0,0 z" class="st22"/><path id="XMLID_77_" d="m 752.8,312.7 c -0.1,0 -0.1,0 0,0 -0.1,0 -0.1,0 0,0 z" class="st22"/><path id="XMLID_79_" d="m 793.3,358.9 c 0,0.2 0,0.4 0.1,0.6 v 0 c 0,-0.2 -0.1,-0.4 -0.1,-0.6 z" class="st22"/><path id="XMLID_81_" d="m 758.4,313.8 c -0.1,0 -0.2,-0.1 -0.3,-0.1 0.1,0.1 0.2,0.1 0.3,0.1 z" class="st22"/><path id="XMLID_83_" d="m 753.9,312.8 c -0.1,0 -0.1,0 -0.2,0 v 0 c 0.1,0 0.2,0 0.2,0 z" class="st22"/><path id="XMLID_84_" d="m 793.2,358 c 0,0.1 0,0.2 0.1,0.3 v 0 c -0.1,-0.1 -0.1,-0.2 -0.1,-0.3 z" class="st22"/><path id="XMLID_85_" d="m 792.6,355.9 c 0.1,0.2 0.2,0.5 0.2,0.8 -0.1,-0.3 -0.1,-0.6 -0.2,-0.8 z" class="st22"/><path id="XMLID_86_" d="m 793.4,360.2 v 0 c 0,0.2 0,0.3 0,0.5 v 0 c 0,-0.2 0,-0.3 0,-0.5 z" class="st22"/><path id="XMLID_87_" d="m 792.1,354.7 c 0.1,0.1 0.1,0.3 0.2,0.4 -0.1,-0.2 -0.2,-0.3 -0.2,-0.4 z" class="st22"/><path id="XMLID_88_" d="m 791.1,368.7 v 0 c -0.9,1.4 -2,2.6 -3.3,3.6 l -8.5,6.6 c -12.8,9.9 -31.1,7.6 -41,-5.2 l -8,-10.4 c -9.9,-12.8 -7.6,-31.1 5.2,-41 l 8.5,-6.6 c 1.3,-1 2.8,-1.8 4.4,-2.3 v 0 0 l -20.4,-26.3 -53.3,41.3 79.2,102.2 62.3,-36 -3.4,2 z" class="st22"/><path id="XMLID_89_" d="m 791.4,353.4 c 0.1,0.1 0.2,0.3 0.2,0.4 0,-0.1 -0.1,-0.2 -0.2,-0.4 z" class="st22"/><path id="XMLID_90_" d="m 790.4,351.9 c 0.3,0.4 0.5,0.7 0.8,1.1 v 0 c -0.3,-0.3 -0.5,-0.7 -0.8,-1.1 z" class="st22"/><path id="XMLID_91_" d="M 793.2,363.5 Z" class="st22"/><path id="XMLID_92_" d="M 793.4,362.1 Z" class="st22"/></g><path id="XMLID_19_" d="M 725.2,284.1" class="st20"/></g><polygon id="XMLID_195_" points="753.8 430.6 748.4 423.7 807.1 389.4 812.7 396.6" class="st23" transform="matrix(1.430295,0,0,1.4018443,-210.04501,-140.44868)"/><path id="XMLID_14_" d="M 845.94185,769.20814 H 345.05252 V 522.48351 h 520.77043 v 227.09881 c 0.14304,10.79421 -8.86782,19.62582 -19.8811,19.62582 z" class="st24" style="stroke-width:1.416"/><g id="g203" transform="matrix(1.430295,0,0,1.4018443,-210.04501,-140.44868)"><g id="g201"><defs id="defs168"><path id="SVGID_1_" d="M 738.3,648.9 H 388.1 v -176 h 364.1 v 162 c 0.1,7.7 -6.2,14 -13.9,14 z"/></defs><clipPath id="SVGID_2_"><use style="overflow:visible" id="use170" width="100%" height="100%" x="0" y="0" xlink:href="#SVGID_1_"/></clipPath><g id="XMLID_166_" class="st25" clip-path="url(#SVGID_2_)"><path id="XMLID_147_" d="m 414.1,598.1 c 9,-15.2 40.8,1.6 26.3,18.3 -11.3,13.1 -34.9,-3.7 -26.3,-18.3 4.6,-7.8 -3.5,5.9 0,0 z" class="st8"/><path id="XMLID_148_" d="m 451,460.3 c 0.1,24.3 8.2,60.9 23.3,73.3 30,24.5 124.7,-16 126,-55.3 C 601.9,430.2 463.8,382 445,405 c -5.8,7.1 -5.3,27.6 -1.7,28.7 1.2,0.4 2.3,-2.2 3.7,-1.9 4.2,0.6 4,23.4 4,28.5 z" class="st26"/><path id="XMLID_150_" d="m 388.4,481.2 c -23.9,66.5 71.3,53.5 89.1,97.4 18.8,46.3 -42.4,82.5 -78.3,93.1" class="st8"/><path id="XMLID_154_" d="m 391.8,578.7 c 40.4,-27.6 81.9,-3.4 57.3,42.1 -14.4,26.6 -43.5,40.2 -72.9,41.9" class="st8"/><path id="XMLID_176_" d="M 689.8,566.6" class="st8"/><path id="XMLID_172_" d="M 677.1,771" class="st8"/><path id="XMLID_155_" d="m 728.3,533.6 c 3.9,2.4 10.6,5.6 19,5.6 3.8,0 8.6,-0.1 12.7,-3.4 1.1,-0.9 4.4,-3.6 4.5,-7.1 0.2,-6.3 -9.5,-12.4 -18.3,-13 -7.1,-0.4 -17.1,2.6 -19,9.8 -0.8,3.2 0.2,6.2 1.1,8.1 z" class="st8"/><path id="XMLID_161_" d="m 715.2,556.9 c 9.1,5 18.1,3.6 36,0.7 12.1,-1.9 18.7,-3.1 25.4,-8.5 1.9,-1.5 11.9,-9.6 12.7,-21.9 1.1,-15.9 -13.9,-28.9 -26.1,-33.9 -21.2,-8.6 -40.9,4.1 -44.4,6.3 -6.1,4 -21.1,13.6 -21.2,29.6 -0.1,12.7 9,23 17.6,27.7 z" class="st8"/><path id="XMLID_162_" d="m 786.1,576.7 c -5.3,4.1 -22.7,16.9 -46.7,14 -19.2,-2.3 -31.3,-13.4 -34.7,-16.7 -15,-14.7 -17.4,-32.4 -18,-38 -0.6,-5.6 -2,-19 5.2,-33.5 6.1,-12.2 15,-18.7 20.5,-22.6 22.6,-16.2 47,-13.9 51.5,-13.4 8.4,0.9 21.1,2.3 32.5,12 20,17 17.4,45.4 16.9,50.1 -2.6,28.7 -23.2,45.1 -27.2,48.1 z" class="st8"/><path id="XMLID_164_" d="m 795.7,590 c -3.3,3.2 -8.5,7.5 -15.7,11 -27.6,13.2 -58.5,0.4 -75.7,-6.7 C 686.6,587 674.4,578.5 657.6,567 628.5,546.9 625,538.5 606.3,533.7 c -6,-1.6 -25.2,-6.2 -44.5,2.5 -5.8,2.6 -10.2,6 -14.8,9.8 -22.3,18.2 -28.5,38.8 -48,82 -4.5,10 -11.2,24.5 -20,42" class="st8"/><path id="XMLID_165_" d="m 523,724 c 15.8,5.1 47.9,-66.9 69.5,-59.2 12.1,4.3 10.9,30.3 20.5,31.2 10.6,0.9 21,-30 22,-33 2.5,-7.7 19.4,-58.9 -9,-92 -3.9,-4.5 -12.7,-14.5 -27.2,-17.7 0,0 -15.5,-3.4 -33.8,5.7 -48.3,23.7 -62.5,158.3 -42,165 z" class="st8"/><path id="XMLID_173_" d="m 565,637 c 5.7,4.2 20.2,-5.7 28,-15 3.9,-4.6 12.1,-14.3 8.4,-21.8 -2.9,-5.8 -11.8,-7.9 -18.4,-6.2 -7.5,1.9 -11,8.5 -14,14 -4.8,8.9 -9.6,24.9 -4,29 z" class="st8"/><path id="XMLID_174_" d="m 604,438.3 c 9.8,10.1 20.7,24.5 17.6,38.8 -2.3,10.6 -11,15.1 -9.3,17.9 3.3,5.5 39.9,-2.4 64,-28 12.8,-13.6 18.7,-28.7 21.5,-38.6" class="st8"/><path id="XMLID_177_" d="m 507,497 c 7.6,8.2 22.6,15.4 34,10 11,-5.2 13.4,-19.6 14,-23.3 5,-29.8 -21.4,-65.8 -37,-62.9 -17,3.1 -31.4,54 -11,76.2 z" class="st8"/><path id="XMLID_178_" d="m 522.2,435.7 c 5.6,0.1 10.4,17.3 10.8,31.3 0.2,7 -0.5,23.8 -5.3,24.7 -6,1 -19.7,-22.8 -14,-43.1 0.1,-0.5 3.7,-13 8.5,-12.9 z" class="st8"/><path id="XMLID_179_" d="m 798.2,632.9 c -39,24.1 -57.4,23.2 -67,16.9 -6.9,-4.5 -9.9,-12.3 -28.2,-26.8 -7.7,-6.1 -13.8,-10 -21.2,-9.2 -7.2,0.8 -12.1,5.6 -13.4,7.1 -4.7,5 -5.7,10.8 -7.1,19.8 -1.6,10.4 -0.1,13.3 -2.1,23.3 -1.1,5.2 -2.5,9.3 -3.5,12" class="st8"/><path id="XMLID_52_" d="M 474.3,420.2" class="st26"/><path id="XMLID_53_" d="m 680.8,657.4 c -7.3,-10.6 -8.2,-20.9 -4,-24.7 5,-4.4 16.1,1.4 17.3,2 12.4,6.6 15.9,20.4 16.7,24" class="st8"/><path id="XMLID_56_" d="m 501.5,554.2 c -7.2,1.2 -14.8,8.2 -13.3,16 1,5.2 5.9,10.1 10.7,10 9.1,-0.1 16.7,-18.2 12,-24 -2.6,-3.2 -8.2,-2.2 -9.4,-2 z" class="st8"/><path id="XMLID_137_" d="m 548,613 c 3.9,-12.7 9.7,-31.5 27,-39 2.4,-1 14.7,-6.4 27.8,-0.6 13.6,6 17.8,19.6 18.7,22.7 5.7,20.3 -9.8,36.4 -10.7,37.3 -3.1,3.2 -5.8,4.6 -19.3,10.7 -26.3,11.7 -39.5,17.5 -43.5,15 -11.8,-7.5 -1.3,-41.7 0,-46.1 z" class="st8"/><path id="XMLID_144_" d="M 740.8,706.2" class="st8"/><path id="XMLID_145_" d="m 403,487.7 c 0.5,4.3 2.9,22.9 17.4,30.7 4.3,2.3 13.5,5.8 17.4,2 5.1,-4.9 -3.8,-16.8 -9.3,-40.1 -6.6,-27.4 -1.7,-41.7 -6,-42.7 -6.1,-1.5 -22.8,24.1 -19.5,50.1 z" class="st27"/><path id="XMLID_6_" d="m 761,662 c -20.6,-11.1 -30.3,-27.1 -27,-34 3.3,-6.8 21.7,-9.1 43,0" class="st8"/><path id="XMLID_8_" d="m 673,599 c -0.1,-4 -9,-9.5 -14,-6 -4.1,2.9 -4.1,10.5 -1,13 4.2,3.4 15.1,-2.5 15,-7 z" class="st8"/><path id="XMLID_18_" d="m 628,508 c -5,2.6 -7.4,3.9 -8,6 -2.1,7.3 12.8,18.5 26,23.5 8,3.1 17.4,6.5 24.3,1.6 8.5,-6 8.2,-21.5 2.7,-30.1 -0.9,-1.4 -3.2,-4.9 -7.6,-6.9 -2.1,-1 -4.8,-2.2 -11.4,-1.1 -12.7,2.2 -18.6,3.1 -26,7 z" class="st28"/><path id="XMLID_21_" d="m 650.4,514.8 c -6,0.6 -11.1,5.4 -9,9 1.7,2.9 7.6,4.5 12.3,3.4 5.3,-1.2 8.8,-5.7 6.6,-9 -1.7,-2.6 -6.2,-3.8 -9.9,-3.4 z" class="st8"/><path id="XMLID_29_" d="m 489.7,443.7 c -2,3.5 -17.3,31.8 -4,59.3 2.2,4.5 9,18.7 24,24 22,7.8 46.3,-9 58,-24.7 12.9,-17.3 13,-36.5 12.7,-44" class="st8"/></g></g></g><ellipse id="XMLID_49_" cx="347.055" cy="579.118" class="st5" rx="12.873" ry="12.617" style="stroke-width:1.416"/><path id="XMLID_3_" d="m 306.72061,438.37286 v -72.75572 c 0,-27.89671 -23.02775,-50.46641 -51.49063,-50.46641 v 0 c -28.46287,0 -51.49061,22.5697 -51.49061,50.46641 v 72.61554 c 0,46.40105 -38.47495,84.11066 -85.81771,84.11066 v 0 213.08036 c 0,18.64452 15.30415,33.64425 34.32708,33.64425 h 205.96249 c 19.02293,0 34.32708,-14.99973 34.32708,-33.64425 v -213.08036 0 c -47.48579,0.14017 -85.8177,-37.56943 -85.8177,-83.97048 z" class="st3" style="stroke-width:1.416"/><polygon id="XMLID_17_" points="398.9 648.9 413.9 634.9 755.4 634.9 742.4 648.9" class="st3" transform="matrix(1.430295,0,0,1.4018443,-210.04501,-140.44868)"/><path id="XMLID_42_" d="m 865.96599,522.48351 v 189.80975 0 23.13044 c 0,7.71013 -6.43632,14.01843 -14.30295,14.01843 h -23.59987 v 0 h -39.90524 v 19.62582 h 63.64813 c 19.02293,0 34.32709,-14.99973 34.32709,-33.64425 V 522.34334 h -20.16716 z" class="st3" style="stroke-width:1.416"/><path id="XMLID_5_" d="m 286.69649,438.37286 v -72.75572 c 0,-27.89671 -23.02777,-50.46641 -51.49064,-50.46641 v 0 c -28.46287,0 -51.49062,22.5697 -51.49062,50.46641 v 72.61554 c 0,46.40105 -38.47494,84.11066 -85.817706,84.11066 v 0 213.08036 c 0,18.64452 15.304166,33.64425 34.327076,33.64425 h 205.9625 c 19.02293,0 34.32709,-14.99973 34.32709,-33.64425 v -213.08036 0 c -47.48579,0.14017 -85.8177,-37.56943 -85.8177,-83.97048 z" class="st29" style="stroke-width:1.416"/><path id="XMLID_69_" d="m 100.90115,749.58232 c 5.43511,11.6353 17.30656,19.62582 31.18043,19.62582 h 205.9625 c 13.87385,0 25.7453,-7.99052 31.18042,-19.62582 z" class="st30" style="stroke-width:1.416"/><g id="g235" transform="matrix(1.430295,0,0,1.4018443,-210.04501,-140.44868)"><g id="g233"><defs id="defs212"><path id="SVGID_3_" d="M 347.3,412.9 V 361 c 0,-19.9 -16.1,-36 -36,-36 v 0 c -19.9,0 -36,16.1 -36,36 v 51.8 c 0,33.1 -26.9,60 -60,60 v 0 152 c 0,13.3 10.7,24 24,24 h 144 c 13.3,0 24,-10.7 24,-24 v -152 0 c -33.2,0.1 -60,-26.8 -60,-59.9 z"/></defs><clipPath id="SVGID_4_"><use style="overflow:visible" id="use214" width="100%" height="100%" x="0" y="0" xlink:href="#SVGID_3_"/></clipPath><g id="XMLID_117_" class="st31" clip-path="url(#SVGID_4_)"><path id="XMLID_104_" d="m 252.1,678.7 c -18.3,-25.6 -6.3,-74 23.3,-89.3 13.8,-7.1 27.2,-4.9 31.1,-4.3 37.2,6.6 69.2,55.1 56.7,84 -14.2,32.9 -87.1,43 -111.1,9.6 z" class="st32"/><path id="XMLID_106_" d="m 216.1,650.7 c -8,-22.4 10.7,-56.1 35.7,-72 46.7,-29.8 98.2,13.2 134,-16 29.9,-24.5 18.6,-74.8 25,-75 9.7,-0.3 58.1,115.1 0,176 -56.7,59.4 -179.4,29.9 -194.7,-13 z" class="st32"/><path id="XMLID_110_" d="m 277.8,656.7 c -9.2,-10 -14,-27.4 -5.7,-40 6.2,-9.4 17.2,-11.4 20.7,-12 15.9,-3 41.4,3.1 46,22.7 3.9,16.5 -9,34.7 -26,39.3 -12.4,3.4 -26.3,-0.5 -35,-10 z" class="st32"/><path id="XMLID_111_" d="m 379.5,625.7 c 5.3,-2.4 5.9,-19.5 -2.5,-25.8 -2.9,-2.2 -8.3,-4.1 -11.9,-1.6 -3.9,2.6 -3.4,8.8 -3.3,9.8 0.9,10.3 12.7,19.9 17.7,17.6 z" class="st33"/><path id="XMLID_112_" d="m 212.1,527.4 c 7.3,-2.6 17.6,2.2 21.3,9.3 8.9,17.1 -20.1,48.8 -29.3,45.3 -9.4,-3.5 -8.7,-48.6 8,-54.6 z" class="st32"/><path id="XMLID_113_" d="m 207.8,499.7 c 7,6.1 18,14.2 33,20.3 19.2,7.8 36.3,8.9 46.7,8.7 15.6,-3.9 24.2,-10.7 29.3,-17 26.1,-31.9 5.6,-103.7 -54,-177" class="st32"/><path id="XMLID_115_" d="m 219.4,470 c 8,19.7 33.8,35.9 52.4,28.7 13,-5 18,-19.6 19.6,-24.2 11,-32 -8.1,-76.9 -29.6,-78.8 -22.4,-1.9 -55.5,42.2 -42.4,74.3 z" class="st32"/><path id="XMLID_116_" d="m 403.8,377.7 c -5.9,-20 -23.1,-47.3 -38.9,-44.9 -18.2,2.8 -23.5,43.8 -25.1,48.9 -11.6,37.3 7.3,84.7 26,87 13.9,1.7 27,-22.6 31,-30 3.2,-5.9 15.9,-31.1 7,-61 z" class="st32"/><path id="XMLID_132_" d="m 352.9,490.3 c -3,1.6 -7.1,4.5 -25.1,40.4 -8.7,17.3 -9.6,20.3 -8,23 4.8,8.2 29.6,6.4 46.6,-4.9 20.3,-13.6 33.8,-43.1 24,-55.5 -7.1,-9.1 -25.6,-9.4 -37.5,-3 z" class="st32"/><path id="XMLID_136_" d="m 363.4,505.3 c -11.1,7.8 -21.3,22.8 -17.6,27.4 4.2,5.2 27.7,-1.1 32.5,-15.2 1.9,-5.7 1.2,-14.1 -3,-16.2 -3.6,-1.7 -8.5,1.6 -11.9,4 z" class="st32"/><path id="XMLID_139_" d="m 296.8,628.7 c -10.9,5.8 -7.5,36.6 1.3,39.3 7.7,2.4 26.9,-14.8 21.3,-28.7 -3.4,-8.7 -16,-14.1 -22.6,-10.6 z" class="st32"/><path id="XMLID_140_" d="m 244.8,548.7 c -0.5,3.3 8.9,7.9 16.7,8.7 2.7,0.3 7.4,0.7 9.3,-2 1.6,-2.2 0.9,-5.8 -0.7,-8 -5.2,-7.2 -24.6,-3.2 -25.3,1.3 z" class="st32"/><path id="XMLID_141_" d="m 232.1,454.7 c 1,16 18.6,31.5 27.7,28 8.2,-3.2 12.3,-22.9 3.7,-34.7 -6,-8.2 -18.9,-13.6 -26,-8.7 -6.1,4.2 -5.5,14 -5.4,15.4 z" class="st32"/><path id="XMLID_114_" d="m 305.8,349.7 c -3.7,2.5 -3.3,13.9 4,20 8.2,6.8 20.6,3.3 22,-1 2.2,-6.7 -20,-23.1 -26,-19 z" class="st32"/><path id="XMLID_50_" d="m 452.8,570.7 c -14.2,-5.1 -40.3,-8.1 -53,8 -14.3,18.1 -0.2,45.8 2,50 1.6,3 14.8,26.9 43,31 16.7,2.4 41.4,-1.8 50,-18 12,-22.7 -12.1,-60.2 -42,-71 z" class="st33"/></g></g></g><ellipse id="XMLID_57_" cx="347.055" cy="645.846" class="st3" rx="12.873" ry="12.617" style="stroke-width:1.416"/><ellipse id="XMLID_105_" cx="347.055" cy="579.118" class="st3" rx="12.873" ry="12.617" style="stroke-width:1.416"/><ellipse id="XMLID_60_" cx="347.055" cy="712.434" class="st3" rx="12.873" ry="12.617" style="stroke-width:1.416"/><ellipse id="XMLID_64_" cx="121.926" cy="579.118" class="st3" rx="12.873" ry="12.617" style="stroke-width:1.416"/><ellipse id="XMLID_63_" cx="121.926" cy="645.846" class="st3" rx="12.873" ry="12.617" style="stroke-width:1.416"/><ellipse id="XMLID_61_" cx="121.926" cy="712.434" class="st3" rx="12.873" ry="12.617" style="stroke-width:1.416"/><ellipse id="XMLID_38_" cx="235.206" cy="366.598" class="st3" rx="17.164" ry="16.822" style="stroke-width:1.416"/></svg>