<svg xmlns="http://www.w3.org/2000/svg" xmlns:svg="http://www.w3.org/2000/svg" id="svg8" width="210mm" height="297mm" version="1.1" viewBox="0 0 210 297"><defs id="defs2"><linearGradient id="XMLID_198_" x1="502.686" x2="502.686" y1="552.985" y2="488.985" gradientUnits="userSpaceOnUse"><stop style="stop-color:#57aa63" id="stop204" offset="0"/><stop style="stop-color:#9aa642" id="stop206" offset="1"/></linearGradient></defs><metadata id="metadata5"/><g id="layer1"><g style="opacity:.47;isolation:isolate;mix-blend-mode:multiply" id="g10" transform="matrix(0.35926838,0,0,0.54164468,-4.9996744,-28.509585)"><path style="fill:#76d1ff;stroke-width:.951977" id="path6" d="m 472.23698,207.38657 107.11188,-24.05235 a 23.541734,19.728152 0 0 0 16.64601,-24.16215 v 0 a 23.541734,19.728152 0 0 0 -28.83285,-13.9495 L 398.3901,183.11723 a 23.541734,19.728152 0 0 1 -28.83285,-13.95036 v 0 a 23.541734,19.728152 0 0 1 16.64498,-24.16041 l 76.82313,-17.25495 a 23.541734,19.728152 0 0 0 16.64914,-24.16215 v 0 A 23.541734,19.728152 0 0 0 450.84164,89.639873 L 60.57589,177.26797 a 23.540695,19.727281 0 0 0 -16.647057,24.16128 v 0 a 23.541734,19.728152 0 0 0 28.834932,13.95385 l 60.765715,-13.64448 a 23.542774,19.729024 0 0 1 28.83285,13.95036 v 0 a 23.540695,19.727281 0 0 1 -16.64706,24.16128 L 41.702362,263.20544 a 23.542774,19.729024 0 0 0 -16.647057,24.16215 v 0 a 23.541734,19.728152 0 0 0 28.832853,13.95036 l 64.911872,-14.57608 a 23.542774,19.729024 0 0 1 28.83286,13.95037 v 0 a 23.540695,19.727281 0 0 1 -16.64706,24.16128 l -4.60581,1.03442 a 23.541734,19.728152 0 0 0 -16.6429,24.17348 v 0 a 23.541734,19.728152 0 0 0 28.83285,13.95123 l 4.36767,-0.98039 a 23.540695,19.727281 0 0 1 28.83182,13.95036 v 0 a 23.540695,19.727281 0 0 1 -16.64602,24.16215 l -64.672696,14.52117 a 23.541734,19.728152 0 0 0 -16.646017,24.16215 v 0 a 23.541734,19.728152 0 0 0 28.832853,13.94948 l 118.17351,-26.53513 a 23.541734,19.728152 0 0 1 28.83286,13.95036 v 0 a 23.541734,19.728152 0 0 1 -16.64914,24.16302 l -18.93904,4.25186 a 23.542774,19.729024 0 0 0 -16.64602,24.16215 v 0 a 23.540695,19.727281 0 0 0 28.83285,13.94949 l 300.90117,-67.56531 a 23.541734,19.728152 0 0 0 16.64602,-24.16214 v 0 a 23.541734,19.728152 0 0 0 -28.83285,-13.95036 l -8.85181,1.9878 a 23.541734,19.728152 0 0 1 -28.83285,-13.946 v 0 a 23.541734,19.728152 0 0 1 16.65018,-24.16129 l 58.20542,-13.07192 a 23.541734,19.728152 0 0 0 16.64706,-24.16216 v 0 a 23.541734,19.728152 0 0 0 -28.83285,-13.95036 l -82.5323,18.5299 a 23.541734,19.728152 0 0 1 -28.83286,-13.95036 v 0 a 23.542774,19.729024 0 0 1 16.6481,-24.15779 l 58.43836,-13.1216 a 23.540695,19.727281 0 0 0 16.64602,-24.16216 v 0 a 23.540695,19.727281 0 0 0 -28.83285,-13.9582 l -7.0517,1.58345 A 23.541734,19.728152 0 0 1 455.592,231.55133 v 0 a 23.541734,19.728152 0 0 1 16.64498,-24.16476 z"/><rect style="fill:#76d1ff" id="rect8" width="51.443" height="45.28" x="521.468" y="221.723" rx="22.638" transform="rotate(-15,547.19116,244.36411)"/></g><g style="isolation:isolate" id="g602" transform="matrix(0.29418285,0,0,0.28871938,50.603055,86.55052)"><g style="opacity:.33;mix-blend-mode:multiply" id="g184"><rect style="fill:#4e4e4e;stroke:#000;stroke-linecap:round;stroke-linejoin:round" id="rect12" width="260" height="45.478" x="177.95" y="261.845" rx="14"/><rect style="fill:#4e4e4e" id="rect14" width="260" height="45.478" x="177.95" y="261.845" rx="14"/><path style="opacity:.17;mix-blend-mode:multiply;fill:#4e4e4e" id="path16" d="m 191.95,261.845 h 232 a 14,14 0 0 1 14,14 v 20.438 a 8.549,8.549 0 0 1 -8.549,8.549 H 186.5 a 8.549,8.549 0 0 1 -8.549,-8.549 v -20.438 a 14,14 0 0 1 14,-14 z"/><rect style="fill:#4e4e4e;stroke:#46505c;stroke-width:4px;stroke-linecap:round;stroke-linejoin:round" id="rect18" width="260" height="45.478" x="177.95" y="261.845" rx="14"/><rect style="fill:#4e4e4e" id="rect20" width="34.941" height="224" x="290.48" y="172.44" transform="rotate(90,307.9505,284.4395)"/><rect style="fill:#4e4e4e;stroke:#46505c;stroke-linecap:round;stroke-linejoin:round" id="rect22" width="34.941" height="224" x="290.48" y="172.44" transform="rotate(90,307.9505,284.4395)"/><rect style="fill:#4e4e4e" id="rect24" width="260" height="172" x="177.951" y="307.323" rx="14"/><rect style="fill:#4e4e4e;stroke:#e6f3ff;stroke-width:2px;stroke-miterlimit:10" id="rect26" width="164" height="252" x="225.95" y="267.323" rx="10" transform="rotate(90,307.9505,393.3235)"/><path style="fill:#4e4e4e" id="path28" d="M 291.9,471.5 H 324 a 4,4 0 0 1 4,4 v 3.82 h -40.1 v -3.82 a 4,4 0 0 1 4,-4 z"/><rect style="fill:#4e4e4e;stroke:#46505c;stroke-width:4px;stroke-linecap:round;stroke-linejoin:round" id="rect30" width="260" height="172" x="177.951" y="307.323" rx="14"/><rect style="fill:#4e4e4e" id="rect32" width="230" height="92" x="192.95" y="320.743" rx="3"/><rect style="fill:#4e4e4e;stroke:#626c84;stroke-linecap:round;stroke-linejoin:round" id="rect34" width="14" height="14" x="224.035" y="390.243" rx="1"/><rect style="fill:#4e4e4e;stroke:#626c84;stroke-linecap:round;stroke-linejoin:round" id="rect36" width="14" height="14" x="202.396" y="390.243" rx="1"/><rect style="fill:#4e4e4e;stroke:#626c84;stroke-linecap:round;stroke-linejoin:round" id="rect38" width="100.554" height="14" x="245.673" y="390.243" rx="1"/><rect style="fill:#4e4e4e;stroke:#626c84;stroke-linecap:round;stroke-linejoin:round" id="rect40" width="14" height="14" x="353.866" y="390.243" rx="1"/><rect style="fill:#4e4e4e;stroke:#626c84;stroke-linecap:round;stroke-linejoin:round" id="rect42" width="10" height="6.125" x="389.505" y="398.118" rx="1"/><rect style="fill:#4e4e4e;stroke:#626c84;stroke-linecap:round;stroke-linejoin:round" id="rect44" width="10" height="6.125" x="389.505" y="390.243" rx="1"/><rect style="fill:#4e4e4e;stroke:#626c84;stroke-linecap:round;stroke-linejoin:round" id="rect46" width="10" height="6.125" x="403.505" y="398.118" rx="1"/><rect style="fill:#4e4e4e;stroke:#626c84;stroke-linecap:round;stroke-linejoin:round" id="rect48" width="10" height="6.125" x="375.505" y="398.118" rx="1"/><rect style="fill:#4e4e4e;stroke:#626c84;stroke-linecap:round;stroke-linejoin:round" id="rect50" width="33.639" height="14" x="202.396" y="370.323" rx="1"/><rect style="fill:#4e4e4e;stroke:#626c84;stroke-linecap:round;stroke-linejoin:round" id="rect52" width="14" height="14" x="243.854" y="370.323" rx="1"/><rect style="fill:#4e4e4e;stroke:#626c84;stroke-linecap:round;stroke-linejoin:round" id="rect54" width="14" height="14" x="265.493" y="370.323" rx="1"/><rect style="fill:#4e4e4e;stroke:#626c84;stroke-linecap:round;stroke-linejoin:round" id="rect56" width="14" height="14" x="287.131" y="370.323" rx="1"/><rect style="fill:#4e4e4e;stroke:#626c84;stroke-linecap:round;stroke-linejoin:round" id="rect58" width="14" height="14" x="308.77" y="370.323" rx="1"/><rect style="fill:#4e4e4e;stroke:#626c84;stroke-linecap:round;stroke-linejoin:round" id="rect60" width="14" height="14" x="330.408" y="370.323" rx="1"/><rect style="fill:#4e4e4e;stroke:#626c84;stroke-linecap:round;stroke-linejoin:round" id="rect62" width="14" height="14" x="352.047" y="370.323" rx="1"/><rect style="fill:#4e4e4e;stroke:#626c84;stroke-linecap:round;stroke-linejoin:round" id="rect64" width="38" height="14" x="375.505" y="370.323" rx="1"/><rect style="fill:#4e4e4e;stroke:#626c84;stroke-linecap:round;stroke-linejoin:round" id="rect66" width="14" height="14" x="236.035" y="349.843" rx="1"/><rect style="fill:#4e4e4e;stroke:#626c84;stroke-linecap:round;stroke-linejoin:round" id="rect68" width="26" height="14" x="202.396" y="349.843" rx="1"/><rect style="fill:#4e4e4e;stroke:#626c84;stroke-linecap:round;stroke-linejoin:round" id="rect70" width="14" height="14" x="257.673" y="349.843" rx="1"/><rect style="fill:#4e4e4e;stroke:#626c84;stroke-linecap:round;stroke-linejoin:round" id="rect72" width="14" height="14" x="279.312" y="349.843" rx="1"/><rect style="fill:#4e4e4e;stroke:#626c84;stroke-linecap:round;stroke-linejoin:round" id="rect74" width="14" height="14" x="300.95" y="349.843" rx="1"/><rect style="fill:#4e4e4e;stroke:#626c84;stroke-linecap:round;stroke-linejoin:round" id="rect76" width="14" height="14" x="322.589" y="349.843" rx="1"/><rect style="fill:#4e4e4e;stroke:#626c84;stroke-linecap:round;stroke-linejoin:round" id="rect78" width="14" height="14" x="344.228" y="349.843" rx="1"/><rect style="fill:#4e4e4e;stroke:#626c84;stroke-linecap:round;stroke-linejoin:round" id="rect80" width="14" height="14" x="365.866" y="349.843" rx="1"/><rect style="fill:#4e4e4e;stroke:#626c84;stroke-linecap:round;stroke-linejoin:round" id="rect82" width="26" height="14" x="387.505" y="349.843" rx="1"/><rect style="fill:#4e4e4e;stroke:#626c84;stroke-linecap:round;stroke-linejoin:round" id="rect84" width="14" height="14" x="224.297" y="330.243" rx="1"/><rect style="fill:#4e4e4e;stroke:#626c84;stroke-linecap:round;stroke-linejoin:round" id="rect86" width="14" height="14" x="202.396" y="330.243" rx="1"/><rect style="fill:#4e4e4e;stroke:#626c84;stroke-linecap:round;stroke-linejoin:round" id="rect88" width="14" height="14" x="246.198" y="330.243" rx="1"/><rect style="fill:#4e4e4e;stroke:#626c84;stroke-linecap:round;stroke-linejoin:round" id="rect90" width="14" height="14" x="268.099" y="330.243" rx="1"/><rect style="fill:#4e4e4e;stroke:#626c84;stroke-linecap:round;stroke-linejoin:round" id="rect92" width="14" height="14" x="290" y="330.243" rx="1"/><rect style="fill:#4e4e4e;stroke:#626c84;stroke-linecap:round;stroke-linejoin:round" id="rect94" width="14" height="14" x="311.901" y="330.243" rx="1"/><rect style="fill:#4e4e4e;stroke:#626c84;stroke-linecap:round;stroke-linejoin:round" id="rect96" width="14" height="14" x="333.802" y="330.243" rx="1"/><rect style="fill:#4e4e4e;stroke:#626c84;stroke-linecap:round;stroke-linejoin:round" id="rect98" width="14" height="14" x="355.703" y="330.243" rx="1"/><rect style="fill:#4e4e4e;stroke:#626c84;stroke-linecap:round;stroke-linejoin:round" id="rect100" width="14" height="14" x="377.604" y="330.243" rx="1"/><rect style="fill:#4e4e4e;stroke:#626c84;stroke-linecap:round;stroke-linejoin:round" id="rect102" width="14" height="14" x="399.505" y="330.243" rx="1"/><rect style="fill:#4e4e4e" id="rect104" width="14" height="14" x="224.035" y="390.243" rx="1"/><rect style="fill:#4e4e4e" id="rect106" width="14" height="14" x="202.396" y="390.243" rx="1"/><rect style="fill:#4e4e4e" id="rect108" width="100.554" height="14" x="245.673" y="390.243" rx="1"/><rect style="fill:#4e4e4e" id="rect110" width="14" height="14" x="353.866" y="390.243" rx="1"/><rect style="fill:#4e4e4e" id="rect112" width="10" height="6.125" x="389.505" y="398.118" rx="1"/><rect style="fill:#4e4e4e" id="rect114" width="10" height="6.125" x="389.505" y="390.243" rx="1"/><rect style="fill:#4e4e4e" id="rect116" width="10" height="6.125" x="403.505" y="398.118" rx="1"/><rect style="fill:#4e4e4e" id="rect118" width="10" height="6.125" x="375.505" y="398.118" rx="1"/><rect style="fill:#4e4e4e" id="rect120" width="33.639" height="14" x="202.396" y="370.323" rx="1"/><rect style="fill:#4e4e4e" id="rect122" width="14" height="14" x="243.854" y="370.323" rx="1"/><rect style="fill:#4e4e4e" id="rect124" width="14" height="14" x="265.493" y="370.323" rx="1"/><rect style="fill:#4e4e4e" id="rect126" width="14" height="14" x="287.131" y="370.323" rx="1"/><rect style="fill:#4e4e4e" id="rect128" width="14" height="14" x="308.77" y="370.323" rx="1"/><rect style="fill:#4e4e4e" id="rect130" width="14" height="14" x="330.408" y="370.323" rx="1"/><rect style="fill:#4e4e4e" id="rect132" width="14" height="14" x="352.047" y="370.323" rx="1"/><rect style="fill:#4e4e4e" id="rect134" width="38" height="14" x="375.505" y="370.323" rx="1"/><rect style="fill:#4e4e4e" id="rect136" width="14" height="14" x="236.035" y="349.843" rx="1"/><rect style="fill:#4e4e4e" id="rect138" width="26" height="14" x="202.396" y="349.843" rx="1"/><rect style="fill:#4e4e4e" id="rect140" width="14" height="14" x="257.673" y="349.843" rx="1"/><rect style="fill:#4e4e4e" id="rect142" width="14" height="14" x="279.312" y="349.843" rx="1"/><rect style="fill:#4e4e4e" id="rect144" width="14" height="14" x="300.95" y="349.843" rx="1"/><rect style="fill:#4e4e4e" id="rect146" width="14" height="14" x="322.589" y="349.843" rx="1"/><rect style="fill:#4e4e4e" id="rect148" width="14" height="14" x="344.228" y="349.843" rx="1"/><rect style="fill:#4e4e4e" id="rect150" width="14" height="14" x="365.866" y="349.843" rx="1"/><rect style="fill:#4e4e4e" id="rect152" width="26" height="14" x="387.505" y="349.843" rx="1"/><rect style="fill:#4e4e4e" id="rect154" width="14" height="14" x="224.297" y="330.243" rx="1"/><rect style="fill:#4e4e4e" id="rect156" width="14" height="14" x="202.396" y="330.243" rx="1"/><rect style="fill:#4e4e4e" id="rect158" width="14" height="14" x="246.198" y="330.243" rx="1"/><rect style="fill:#4e4e4e" id="rect160" width="14" height="14" x="268.099" y="330.243" rx="1"/><rect style="fill:#4e4e4e" id="rect162" width="14" height="14" x="290" y="330.243" rx="1"/><rect style="fill:#4e4e4e" id="rect164" width="14" height="14" x="311.901" y="330.243" rx="1"/><rect style="fill:#4e4e4e" id="rect166" width="14" height="14" x="333.802" y="330.243" rx="1"/><rect style="fill:#4e4e4e" id="rect168" width="14" height="14" x="355.703" y="330.243" rx="1"/><rect style="fill:#4e4e4e" id="rect170" width="14" height="14" x="377.604" y="330.243" rx="1"/><rect style="fill:#4e4e4e" id="rect172" width="14" height="14" x="399.505" y="330.243" rx="1"/><path style="fill:#4e4e4e" id="path174" d="m 222.95,298.339 h 170 v 13.446 a 4,4 0 0 1 -4,4 h -162 a 4,4 0 0 1 -4,-4 z"/><path style="opacity:.25;mix-blend-mode:multiply;fill:#4e4e4e" id="path176" d="m 388.95,311.784 h -162 a 4,4 0 0 1 -4,-4 v 4 a 4,4 0 0 0 4,4 h 162 a 4,4 0 0 0 4,-4 v -4 a 4,4 0 0 1 -4,4 z"/><path style="fill:#4e4e4e;stroke:#46505c;stroke-width:2px;stroke-linecap:round;stroke-linejoin:round" id="path178" d="m 222.95,298.339 h 170 v 13.446 a 4,4 0 0 1 -4,4 h -162 a 4,4 0 0 1 -4,-4 z"/><rect style="fill:#4e4e4e" id="rect180" width="74" height="51" x="270.951" y="417.743" rx="2"/><rect style="fill:#4e4e4e;stroke:#626c84;stroke-linecap:round;stroke-linejoin:round" id="rect182" width="74" height="51" x="270.951" y="417.743" rx="2"/></g><g style="opacity:.33;mix-blend-mode:multiply" id="g218"><path style="fill:#4e4e4e;stroke:#46505c;stroke-width:4px;stroke-linecap:round;stroke-linejoin:round" id="path186" d="m 90.15,401.363 h 13.466 a 0.692,0.692 0 0 1 0.692,0.692 v 9.616 a 0.692,0.692 0 0 1 -0.692,0.692 H 90.15 a 5,5 0 0 1 -5,-5 v -1 a 5,5 0 0 1 5,-5 z" transform="matrix(0.573,-0.819,0.819,0.573,-292.917,251.165)"/><path style="fill:#4e4e4e;stroke:#46505c;stroke-width:4px;stroke-linecap:round;stroke-linejoin:round" id="path188" d="m 90.15,401.363 h 13.466 a 0.692,0.692 0 0 1 0.692,0.692 v 9.616 a 0.692,0.692 0 0 1 -0.692,0.692 H 90.15 a 5,5 0 0 1 -5,-5 v -1 a 5,5 0 0 1 5,-5 z" transform="matrix(0.573,-0.819,0.819,0.573,-292.917,251.165)"/><circle style="fill:#4e4e4e;stroke:#46505c;stroke-width:4px;stroke-linecap:round;stroke-linejoin:round" id="circle190" cx="117.084" cy="374.922" r="32.576"/><circle style="fill:#4e4e4e;stroke:#46505c;stroke-width:4px;stroke-linecap:round;stroke-linejoin:round" id="circle192" cx="117.084" cy="374.922" r="32.576"/><circle style="fill:#4e4e4e;stroke:#46505c;stroke-width:4px;stroke-linecap:round;stroke-linejoin:round" id="circle194" cx="117.084" cy="374.922" r="25.355"/><circle style="fill:#4e4e4e;stroke:#46505c;stroke-width:4px;stroke-linecap:round;stroke-linejoin:round" id="circle196" cx="117.084" cy="374.922" r="25.355"/><path style="opacity:.33;mix-blend-mode:multiply;fill:#4e4e4e;stroke:#46505c;stroke-width:4px;stroke-linecap:round;stroke-linejoin:round" id="path198" d="m 100.509,369.659 c 0.339,-0.764 0.706,-1.513 1.08,-2.246 1.7,-3.332 3.733,-6.786 6.978,-8.827 2.755,-1.734 6.608,-2.413 9.594,-0.879 2.59,1.33 4.151,4.065 6.514,5.767 a 42.738,42.738 0 0 0 4.954,2.605 7.44,7.44 0 0 1 3.813,3.921 c 0.8,2.444 -0.519,5.052 -0.532,7.624 a 7.58,7.58 0 0 0 1.137,4.017 3.909,3.909 0 0 1 0.875,1.979 2.6,2.6 0 0 1 -1.715,2.06 c -2.626,1.241 -5.693,0.793 -8.581,0.481 -2.888,-0.312 -6.086,-0.378 -8.369,1.418 a 24.329,24.329 0 0 0 -2.589,2.792 4.072,4.072 0 0 1 -6.25,0.637 26.771,26.771 0 0 1 -5.326,-6.041 16.421,16.421 0 0 1 -3.173,-6.557 c -0.519,-2.975 0.346,-5.952 1.59,-8.751 z"/><circle style="opacity:.33;mix-blend-mode:multiply;fill:#4e4e4e;stroke:#46505c;stroke-width:4px;stroke-linecap:round;stroke-linejoin:round" id="circle200" cx="122.212" cy="392.543" r="1.574"/><circle style="opacity:.33;mix-blend-mode:multiply;fill:#4e4e4e;stroke:#46505c;stroke-width:4px;stroke-linecap:round;stroke-linejoin:round" id="circle202" cx="118.115" cy="393.124" r="1.09"/><circle style="opacity:.33;mix-blend-mode:multiply;fill:#4e4e4e;stroke:#46505c;stroke-width:4px;stroke-linecap:round;stroke-linejoin:round" id="circle204" cx="125.931" cy="391.079" r=".988"/><circle style="opacity:.33;mix-blend-mode:multiply;fill:#4e4e4e;stroke:#46505c;stroke-width:4px;stroke-linecap:round;stroke-linejoin:round" id="circle206" cx="114.667" cy="393.532" r=".708"/><circle style="opacity:.33;mix-blend-mode:multiply;fill:#4e4e4e;stroke:#46505c;stroke-width:4px;stroke-linecap:round;stroke-linejoin:round" id="circle208" cx="129.052" cy="390.035" r=".432"/><circle style="opacity:.33;mix-blend-mode:multiply;fill:#4e4e4e;stroke:#46505c;stroke-width:4px;stroke-linecap:round;stroke-linejoin:round" id="circle210" cx="97.409" cy="368.931" r="1.014"/><circle style="opacity:.33;mix-blend-mode:multiply;fill:#4e4e4e;stroke:#46505c;stroke-width:4px;stroke-linecap:round;stroke-linejoin:round" id="circle212" cx="125.014" cy="357.133" r=".954"/><circle style="opacity:.33;mix-blend-mode:multiply;fill:#4e4e4e;stroke:#46505c;stroke-width:4px;stroke-linecap:round;stroke-linejoin:round" id="circle214" cx="131.215" cy="361.833" r=".864"/><circle style="opacity:.33;mix-blend-mode:multiply;fill:#4e4e4e;stroke:#46505c;stroke-width:4px;stroke-linecap:round;stroke-linejoin:round" id="circle216" cx="131.924" cy="364.281" r=".378"/></g><path style="fill:#fff;stroke:#e6f3ff;stroke-width:2px;stroke-miterlimit:10" id="path220" d="m 82.928,393.186 h 13.465 a 0.692,0.692 0 0 1 0.692,0.692 v 9.616 a 0.692,0.692 0 0 1 -0.692,0.692 H 82.928 a 5,5 0 0 1 -5,-5 v -1 a 5,5 0 0 1 5,-5 z" transform="rotate(-55.011,87.504406,398.68399)"/><path style="opacity:.18;fill:#4e4e4e;stroke:#46505c;stroke-width:4px;stroke-linecap:round;stroke-linejoin:round" id="path222" d="m 89.06,388.081 a 0.692,0.692 0 0 0 -0.963,0.171 l -3.477,4.966 a 36.623,36.623 0 0 0 4.269,3.494 37.022,37.022 0 0 0 4.742,2.815 l 3.477,-4.968 a 0.69,0.69 0 0 0 -0.17,-0.963 z"/><path style="fill:none;stroke:#46505c;stroke-width:4px;stroke-linecap:round;stroke-linejoin:round" id="path224" d="m 82.928,393.186 h 13.465 a 0.692,0.692 0 0 1 0.692,0.692 v 9.616 a 0.692,0.692 0 0 1 -0.692,0.692 H 82.928 a 5,5 0 0 1 -5,-5 v -1 a 5,5 0 0 1 5,-5 z" transform="rotate(-55.011,87.504406,398.68399)"/><circle style="fill:#fff;stroke:#e6f3ff;stroke-width:2px;stroke-miterlimit:10" id="circle226" cx="109.862" cy="366.746" r="32.576"/><circle style="fill:none;stroke:#46505c;stroke-width:4px;stroke-linecap:round;stroke-linejoin:round" id="circle228" cx="109.862" cy="366.746" r="32.576"/><circle style="fill:#845b5b" id="circle230" cx="109.862" cy="366.746" r="25.355"/><circle style="fill:none;stroke:#46505c;stroke-width:2px;stroke-linecap:round;stroke-linejoin:round" id="circle232" cx="109.862" cy="366.746" r="25.355"/><path style="opacity:.33;mix-blend-mode:multiply;fill:#845b5b" id="path234" d="m 93.287,361.482 c 0.339,-0.763 0.706,-1.513 1.08,-2.246 1.7,-3.331 3.734,-6.785 6.978,-8.827 2.756,-1.734 6.608,-2.412 9.594,-0.879 2.59,1.33 4.151,4.066 6.514,5.767 a 42.752,42.752 0 0 0 4.955,2.6 7.447,7.447 0 0 1 3.813,3.918 c 0.8,2.445 -0.519,5.053 -0.533,7.624 a 7.58,7.58 0 0 0 1.137,4.017 3.91,3.91 0 0 1 0.876,1.979 2.6,2.6 0 0 1 -1.715,2.061 c -2.627,1.24 -5.694,0.793 -8.582,0.48 -2.888,-0.313 -6.085,-0.377 -8.369,1.418 a 24.412,24.412 0 0 0 -2.589,2.792 4.073,4.073 0 0 1 -6.25,0.638 26.8,26.8 0 0 1 -5.326,-6.042 16.409,16.409 0 0 1 -3.17,-6.552 c -0.527,-2.972 0.344,-5.949 1.587,-8.748 z"/><circle style="opacity:.33;mix-blend-mode:multiply;fill:#845b5b" id="circle236" cx="114.99" cy="384.366" r="1.574"/><circle style="opacity:.33;mix-blend-mode:multiply;fill:#845b5b" id="circle238" cx="110.893" cy="384.947" r="1.09"/><circle style="opacity:.33;mix-blend-mode:multiply;fill:#845b5b" id="circle240" cx="118.709" cy="382.903" r=".988"/><circle style="opacity:.33;mix-blend-mode:multiply;fill:#845b5b" id="circle242" cx="107.445" cy="385.356" r=".708"/><circle style="opacity:.33;mix-blend-mode:multiply;fill:#845b5b" id="circle244" cx="121.83" cy="381.859" r=".432"/><circle style="opacity:.33;mix-blend-mode:multiply;fill:#845b5b" id="circle246" cx="90.187" cy="360.755" r="1.014"/><circle style="opacity:.33;mix-blend-mode:multiply;fill:#845b5b" id="circle248" cx="117.792" cy="348.956" r=".954"/><circle style="opacity:.33;mix-blend-mode:multiply;fill:#845b5b" id="circle250" cx="123.993" cy="353.656" r=".864"/><circle style="opacity:.33;mix-blend-mode:multiply;fill:#845b5b" id="circle252" cx="124.702" cy="356.104" r=".378"/><circle style="fill:#845b5b" id="circle254" cx="112.084" cy="368.84" r="2"/><circle style="fill:#845b5b" id="circle256" cx="105.57" cy="361.159" r="3.5"/><rect style="fill:none;stroke:#000;stroke-linecap:round;stroke-linejoin:round" id="rect258" width="260" height="164" x="170" y="133.904" rx="14"/><rect style="fill:#626c84" id="rect260" width="260" height="164" x="170" y="133.904" rx="14"/><rect style="fill:#626c84" id="rect262" width="260" height="164" x="170" y="133.904" rx="14"/><rect style="opacity:.17;mix-blend-mode:multiply;fill:#626c84" id="rect264" width="260" height="155.016" x="170" y="133.904" rx="14"/><path style="opacity:.1;fill:#fff" id="path266" d="m 184,137.9 h 232 a 14,14 0 0 1 14,14 v 132 0 -136 a 14,14 0 0 0 -14,-14 H 184 a 14,14 0 0 0 -14,14 v 4 a 14,14 0 0 1 14,-14 z"/><g style="opacity:.1" id="g272"><polygon style="fill:#fff" id="polygon268" points="368.38 133.904 249.227 297.904 265.296 297.904 384.449 133.904"/><polygon style="fill:#fff" id="polygon270" points="393.719 133.904 274.566 297.904 279.51 297.904 398.664 133.904"/></g><rect style="fill:none;stroke:#46505c;stroke-width:4px;stroke-linecap:round;stroke-linejoin:round" id="rect274" width="260" height="164" x="170" y="133.904" rx="14"/><rect style="fill:#fd848e" id="rect276" width="126" height="224" x="237" y="103.384" transform="rotate(90,300,215.384)"/><g style="opacity:.06" id="g282"><polygon style="fill:#fff" id="polygon278" points="355.953 152.384 264.409 278.384 280.478 278.384 372.022 152.384"/><polygon style="fill:#fff" id="polygon280" points="381.293 152.384 289.748 278.384 294.693 278.384 386.237 152.384"/></g><rect style="fill:none;stroke:#46505c;stroke-linecap:round;stroke-linejoin:round" id="rect284" width="126" height="224" x="237" y="103.384" transform="rotate(90,300,215.384)"/><rect style="fill:#e6f3ff" id="rect286" width="260" height="172" x="170" y="297.904" rx="14"/><rect style="fill:#fff;stroke:#e6f3ff;stroke-width:2px;stroke-miterlimit:10" id="rect288" width="164" height="252" x="218" y="257.904" rx="10" transform="rotate(90,300,383.904)"/><path style="fill:#e6f3ff" id="path290" d="m 283.949,462.084 h 32.1 a 4,4 0 0 1 4,4 v 3.82 h -40.1 v -3.82 a 4,4 0 0 1 4,-4 z"/><rect style="fill:none;stroke:#46505c;stroke-width:4px;stroke-linecap:round;stroke-linejoin:round" id="rect292" width="260" height="172" x="170" y="297.904" rx="14"/><rect style="fill:#e6f3ff" id="rect294" width="230" height="92" x="185" y="311.323" rx="3"/><rect style="fill:none;stroke:#626c84;stroke-linecap:round;stroke-linejoin:round" id="rect296" width="14" height="14" x="216.084" y="380.823" rx="1"/><rect style="fill:none;stroke:#626c84;stroke-linecap:round;stroke-linejoin:round" id="rect298" width="14" height="14" x="194.446" y="380.823" rx="1"/><rect style="fill:none;stroke:#626c84;stroke-linecap:round;stroke-linejoin:round" id="rect300" width="100.554" height="14" x="237.723" y="380.823" rx="1"/><rect style="fill:none;stroke:#626c84;stroke-linecap:round;stroke-linejoin:round" id="rect302" width="14" height="14" x="345.916" y="380.823" rx="1"/><rect style="fill:none;stroke:#626c84;stroke-linecap:round;stroke-linejoin:round" id="rect304" width="10" height="6.125" x="381.554" y="388.698" rx="1"/><rect style="fill:none;stroke:#626c84;stroke-linecap:round;stroke-linejoin:round" id="rect306" width="10" height="6.125" x="381.554" y="380.823" rx="1"/><rect style="fill:none;stroke:#626c84;stroke-linecap:round;stroke-linejoin:round" id="rect308" width="10" height="6.125" x="395.554" y="388.698" rx="1"/><rect style="fill:none;stroke:#626c84;stroke-linecap:round;stroke-linejoin:round" id="rect310" width="10" height="6.125" x="367.554" y="388.698" rx="1"/><rect style="fill:none;stroke:#626c84;stroke-linecap:round;stroke-linejoin:round" id="rect312" width="33.639" height="14" x="194.446" y="360.904" rx="1"/><rect style="fill:none;stroke:#626c84;stroke-linecap:round;stroke-linejoin:round" id="rect314" width="14" height="14" x="235.904" y="360.904" rx="1"/><rect style="fill:none;stroke:#626c84;stroke-linecap:round;stroke-linejoin:round" id="rect316" width="14" height="14" x="257.542" y="360.904" rx="1"/><rect style="fill:none;stroke:#626c84;stroke-linecap:round;stroke-linejoin:round" id="rect318" width="14" height="14" x="279.181" y="360.904" rx="1"/><rect style="fill:none;stroke:#626c84;stroke-linecap:round;stroke-linejoin:round" id="rect320" width="14" height="14" x="300.819" y="360.904" rx="1"/><rect style="fill:none;stroke:#626c84;stroke-linecap:round;stroke-linejoin:round" id="rect322" width="14" height="14" x="322.458" y="360.904" rx="1"/><rect style="fill:none;stroke:#626c84;stroke-linecap:round;stroke-linejoin:round" id="rect324" width="14" height="14" x="344.096" y="360.904" rx="1"/><rect style="fill:none;stroke:#626c84;stroke-linecap:round;stroke-linejoin:round" id="rect326" width="38" height="14" x="367.554" y="360.904" rx="1"/><rect style="fill:none;stroke:#626c84;stroke-linecap:round;stroke-linejoin:round" id="rect328" width="14" height="14" x="228.084" y="340.424" rx="1"/><rect style="fill:none;stroke:#626c84;stroke-linecap:round;stroke-linejoin:round" id="rect330" width="26" height="14" x="194.446" y="340.424" rx="1"/><rect style="fill:none;stroke:#626c84;stroke-linecap:round;stroke-linejoin:round" id="rect332" width="14" height="14" x="249.723" y="340.424" rx="1"/><rect style="fill:none;stroke:#626c84;stroke-linecap:round;stroke-linejoin:round" id="rect334" width="14" height="14" x="271.361" y="340.424" rx="1"/><rect style="fill:none;stroke:#626c84;stroke-linecap:round;stroke-linejoin:round" id="rect336" width="14" height="14" x="293" y="340.424" rx="1"/><rect style="fill:none;stroke:#626c84;stroke-linecap:round;stroke-linejoin:round" id="rect338" width="14" height="14" x="314.639" y="340.424" rx="1"/><rect style="fill:none;stroke:#626c84;stroke-linecap:round;stroke-linejoin:round" id="rect340" width="14" height="14" x="336.277" y="340.424" rx="1"/><rect style="fill:none;stroke:#626c84;stroke-linecap:round;stroke-linejoin:round" id="rect342" width="14" height="14" x="357.916" y="340.424" rx="1"/><rect style="fill:none;stroke:#626c84;stroke-linecap:round;stroke-linejoin:round" id="rect344" width="26" height="14" x="379.554" y="340.424" rx="1"/><rect style="fill:none;stroke:#626c84;stroke-linecap:round;stroke-linejoin:round" id="rect346" width="14" height="14" x="216.347" y="320.823" rx="1"/><rect style="fill:none;stroke:#626c84;stroke-linecap:round;stroke-linejoin:round" id="rect348" width="14" height="14" x="194.446" y="320.823" rx="1"/><rect style="fill:none;stroke:#626c84;stroke-linecap:round;stroke-linejoin:round" id="rect350" width="14" height="14" x="238.248" y="320.823" rx="1"/><rect style="fill:none;stroke:#626c84;stroke-linecap:round;stroke-linejoin:round" id="rect352" width="14" height="14" x="260.149" y="320.823" rx="1"/><rect style="fill:none;stroke:#626c84;stroke-linecap:round;stroke-linejoin:round" id="rect354" width="14" height="14" x="282.05" y="320.823" rx="1"/><rect style="fill:none;stroke:#626c84;stroke-linecap:round;stroke-linejoin:round" id="rect356" width="14" height="14" x="303.95" y="320.823" rx="1"/><rect style="fill:none;stroke:#626c84;stroke-linecap:round;stroke-linejoin:round" id="rect358" width="14" height="14" x="325.851" y="320.823" rx="1"/><rect style="fill:none;stroke:#626c84;stroke-linecap:round;stroke-linejoin:round" id="rect360" width="14" height="14" x="347.752" y="320.823" rx="1"/><rect style="fill:none;stroke:#626c84;stroke-linecap:round;stroke-linejoin:round" id="rect362" width="14" height="14" x="369.653" y="320.823" rx="1"/><rect style="fill:none;stroke:#626c84;stroke-linecap:round;stroke-linejoin:round" id="rect364" width="14" height="14" x="391.554" y="320.823" rx="1"/><rect style="fill:#626c84" id="rect366" width="14" height="14" x="216.084" y="380.823" rx="1"/><rect style="fill:#626c84" id="rect368" width="14" height="14" x="194.446" y="380.823" rx="1"/><rect style="fill:#626c84" id="rect370" width="100.554" height="14" x="237.723" y="380.823" rx="1"/><rect style="fill:#626c84" id="rect372" width="14" height="14" x="345.916" y="380.823" rx="1"/><rect style="fill:#626c84" id="rect374" width="10" height="6.125" x="381.554" y="388.698" rx="1"/><rect style="fill:#626c84" id="rect376" width="10" height="6.125" x="381.554" y="380.823" rx="1"/><rect style="fill:#626c84" id="rect378" width="10" height="6.125" x="395.554" y="388.698" rx="1"/><rect style="fill:#626c84" id="rect380" width="10" height="6.125" x="367.554" y="388.698" rx="1"/><rect style="fill:#626c84" id="rect382" width="33.639" height="14" x="194.446" y="360.904" rx="1"/><rect style="fill:#626c84" id="rect384" width="14" height="14" x="235.904" y="360.904" rx="1"/><rect style="fill:#626c84" id="rect386" width="14" height="14" x="257.542" y="360.904" rx="1"/><rect style="fill:#626c84" id="rect388" width="14" height="14" x="279.181" y="360.904" rx="1"/><rect style="fill:#626c84" id="rect390" width="14" height="14" x="300.819" y="360.904" rx="1"/><rect style="fill:#626c84" id="rect392" width="14" height="14" x="322.458" y="360.904" rx="1"/><rect style="fill:#626c84" id="rect394" width="14" height="14" x="344.096" y="360.904" rx="1"/><rect style="fill:#626c84" id="rect396" width="38" height="14" x="367.554" y="360.904" rx="1"/><rect style="fill:#626c84" id="rect398" width="14" height="14" x="228.084" y="340.424" rx="1"/><rect style="fill:#626c84" id="rect400" width="26" height="14" x="194.446" y="340.424" rx="1"/><rect style="fill:#626c84" id="rect402" width="14" height="14" x="249.723" y="340.424" rx="1"/><rect style="fill:#626c84" id="rect404" width="14" height="14" x="271.361" y="340.424" rx="1"/><rect style="fill:#626c84" id="rect406" width="14" height="14" x="293" y="340.424" rx="1"/><rect style="fill:#626c84" id="rect408" width="14" height="14" x="314.639" y="340.424" rx="1"/><rect style="fill:#626c84" id="rect410" width="14" height="14" x="336.277" y="340.424" rx="1"/><rect style="fill:#626c84" id="rect412" width="14" height="14" x="357.916" y="340.424" rx="1"/><rect style="fill:#626c84" id="rect414" width="26" height="14" x="379.554" y="340.424" rx="1"/><rect style="fill:#626c84" id="rect416" width="14" height="14" x="216.347" y="320.823" rx="1"/><rect style="fill:#626c84" id="rect418" width="14" height="14" x="194.446" y="320.823" rx="1"/><rect style="fill:#626c84" id="rect420" width="14" height="14" x="238.248" y="320.823" rx="1"/><rect style="fill:#626c84" id="rect422" width="14" height="14" x="260.149" y="320.823" rx="1"/><rect style="fill:#626c84" id="rect424" width="14" height="14" x="282.05" y="320.823" rx="1"/><rect style="fill:#626c84" id="rect426" width="14" height="14" x="303.95" y="320.823" rx="1"/><rect style="fill:#626c84" id="rect428" width="14" height="14" x="325.851" y="320.823" rx="1"/><rect style="fill:#626c84" id="rect430" width="14" height="14" x="347.752" y="320.823" rx="1"/><rect style="fill:#626c84" id="rect432" width="14" height="14" x="369.653" y="320.823" rx="1"/><rect style="fill:#626c84" id="rect434" width="14" height="14" x="391.554" y="320.823" rx="1"/><path style="fill:#626c84" id="path436" d="m 215,288.92 h 170 v 13.446 a 4,4 0 0 1 -4,4 H 219 a 4,4 0 0 1 -4,-4 z"/><rect style="opacity:.12;fill:#fff" id="rect438" width="170" height="2" x="215" y="288.92"/><path style="opacity:.25;mix-blend-mode:multiply;fill:#626c84" id="path440" d="M 381,302.365 H 219 a 4,4 0 0 1 -4,-4 v 4 a 4,4 0 0 0 4,4 h 162 a 4,4 0 0 0 4,-4 v -4 a 4,4 0 0 1 -4,4 z"/><path style="fill:none;stroke:#46505c;stroke-width:2px;stroke-linecap:round;stroke-linejoin:round" id="path442" d="m 215,288.92 h 170 v 13.446 a 4,4 0 0 1 -4,4 H 219 a 4,4 0 0 1 -4,-4 z"/><rect style="fill:#e6f3ff" id="rect444" width="74" height="51" x="263" y="408.323" rx="2"/><rect style="fill:none;stroke:#626c84;stroke-linecap:round;stroke-linejoin:round" id="rect446" width="74" height="51" x="263" y="408.323" rx="2"/><circle style="opacity:.52;fill:#fff" id="circle448" cx="300" cy="144.052" r="3"/><circle style="fill:none;stroke:#46505c;stroke-linecap:round;stroke-linejoin:round" id="circle450" cx="300" cy="144.052" r="3"/><rect style="fill:#fff" id="rect452" width="14" height="2" x="349.36" y="165.129" rx="1"/><rect style="fill:#fff" id="rect454" width="14" height="2" x="375.334" y="165.129" rx="1"/><rect style="fill:#fff" id="rect456" width="14" height="2" x="323.387" y="165.129" rx="1"/><circle style="fill:#fff" id="circle458" cx="207.233" cy="166.65" r="4.837"/><g style="opacity:.72" id="g464"><rect style="fill:#fff" id="rect460" width="101.234" height="3.645" x="249.324" y="219.611"/><rect style="fill:#fff" id="rect462" width="75.629" height="3.698" x="262.127" y="207.513"/></g><rect style="fill:none;stroke:#fff;stroke-miterlimit:10" id="rect466" width="39.773" height="10.962" x="283.113" y="247.945" rx="5.481"/><polygon style="opacity:.15;mix-blend-mode:screen;fill:#331f5b" id="polygon468" points="404.591 600.399 199.191 600.399"/><polygon style="opacity:.15;mix-blend-mode:screen;fill:#331f5b" id="polygon470" points="404.591 600.399 199.191 600.399"/></g><g id="g220" transform="matrix(0.18828516,0,0,0.18982516,-25.517106,15.572521)"><ellipse id="XMLID_22_" cx="504.2" cy="776.8" class="st4" rx="92.5" ry="17.2"/><path id="XMLID_104_" d="m 475.2,660.3 c -23.5,0 -42.5,17.4 -42.5,39 v 1.4 c 0,42.1 31.3,76.1 69.9,76.1 38.6,0 69.9,-34.1 69.9,-76.1 v -1.4 c 0,-21.5 -19,-39 -42.5,-39 z" class="st5"/><ellipse id="XMLID_24_" cx="502.7" cy="674" class="st6" rx="49.3" ry="13.7"/><ellipse id="XMLID_10_" cx="502.7" cy="672.7" class="st4" rx="36.8" ry="10.2"/><path id="XMLID_188_" d="m 502.7,744.7 c -34.9,0 -63.8,-16.8 -69.1,-53.2 -0.6,2.5 -0.9,5.1 -0.9,7.8 v 1.4 c 0,42.1 31.3,76.1 69.9,76.1 38.6,0 69.9,-34.1 69.9,-76.1 v -1.4 c 0,-2.7 -0.3,-5.3 -0.9,-7.8 -5.1,36.4 -34,53.2 -68.9,53.2 z" class="st6"/><path id="XMLID_184_" d="m 475.2,660.3 c -23.5,0 -42.5,17.4 -42.5,39 v 1.4 c 0,42.1 31.3,76.1 69.9,76.1 38.6,0 69.9,-34.1 69.9,-76.1 v -1.4 c 0,-21.5 -19,-39 -42.5,-39 z" class="st7"/><line id="XMLID_17_" x1="612.5" x2="648.5" y1="285.1" y2="285.1" class="st7"/><circle id="XMLID_53_" cx="664.5" cy="285.1" r="16" class="st8"/><circle id="XMLID_16_" cx="664.5" cy="285.1" r="16" class="st7"/><g id="XMLID_42_"><path id="XMLID_50_" d="m 626,522.5 c -0.9,-7.5 -0.6,-15 0.8,-22.4 0.9,-3.8 5,-6.8 8.6,-6.6 v 0 c 3.7,0.1 7.5,3.3 8.2,7.2 0.9,7.5 0.6,15 -0.8,22.4 -0.9,3.8 -5,6.8 -8.6,6.6 v 0 c -3.7,-0.1 -7.6,-3.3 -8.2,-7.2 z" class="st9"/><g id="XMLID_101_"><path id="XMLID_49_" d="m 647.3,522.1 c -2.5,-6.9 -4.1,-14.2 -4.3,-21.6 -0.1,-3.8 3.2,-7.6 6.8,-8.3 v 0 c 3.6,-0.7 8,1.5 9.4,5.1 2.7,6.9 4.1,14.2 4.3,21.6 0.1,3.8 -3.2,7.6 -6.8,8.3 v 0 c -3.5,0.7 -7.9,-1.5 -9.4,-5.1 z" class="st4"/><path id="XMLID_48_" d="m 667.6,517 c -4,-6 -7.2,-12.6 -9.1,-19.6 -1,-3.6 1.3,-8 4.5,-9.4 v 0 c 3.4,-1.5 8,-0.5 10.1,2.6 4.1,5.9 7.2,12.6 9.1,19.6 1,3.6 -1.3,8 -4.5,9.4 v 0 c -3.2,1.5 -7.9,0.4 -10.1,-2.6 z" class="st9"/><path id="XMLID_47_" d="m 685.8,507.5 c -5.2,-4.8 -9.7,-10.4 -13.1,-16.6 -1.8,-3.3 -0.5,-7.9 2.2,-10 v 0 c 3,-2.3 7.5,-2.2 10.3,0.2 5.3,4.7 9.7,10.4 13.1,16.6 1.8,3.3 0.5,7.9 -2.2,10 v 0 c -2.8,2.2 -7.5,2.2 -10.3,-0.2 z" class="st9"/><path id="XMLID_46_" d="m 701.3,494.3 c -6,-3.4 -11.6,-7.7 -16.2,-12.9 -2.4,-2.7 -2.3,-7.4 -0.2,-10 v 0 c 2.4,-2.9 6.6,-3.8 9.8,-2.1 6.1,3.3 11.6,7.7 16.2,12.9 2.4,2.7 2.3,7.4 0.2,10 v 0 c -2.1,2.7 -6.6,3.8 -9.8,2.1 z" class="st9"/><path id="XMLID_45_" d="m 713.5,477.9 c -6.5,-1.9 -12.8,-4.7 -18.4,-8.6 -2.9,-2 -3.9,-6.5 -2.5,-9.5 v 0 c 1.7,-3.4 5.4,-5.2 8.9,-4.2 6.6,1.8 12.8,4.7 18.4,8.6 2.9,2 3.9,6.5 2.5,9.5 v 0 c -1.4,3 -5.5,5.1 -8.9,4.2 z" class="st9"/><path id="XMLID_44_" d="m 721.7,458.9 c -6.7,-0.3 -13.3,-1.4 -19.5,-3.8 -3.2,-1.2 -5.2,-5.3 -4.6,-8.5 v 0 c 0.9,-3.8 4,-6.2 7.4,-6.1 6.7,0.1 13.3,1.4 19.5,3.8 3.2,1.2 5.2,5.3 4.6,8.5 v 0 c -0.5,3.1 -3.9,6.1 -7.4,6.1 z" class="st9"/><path id="XMLID_43_" d="m 724.5,439.3 c -6.5,0.4 -13,-0.2 -19.3,-1.8 -3.3,-1 -5.6,-4.6 -5.3,-7.8 v 0 c 0.5,-3.9 3.3,-6.3 6.7,-6.7 6.5,-0.4 13,0.2 19.3,1.8 3.3,1 5.6,4.6 5.3,7.8 v 0 c -0.3,3.2 -3.3,6.4 -6.7,6.7 z" class="st9"/></g></g><g id="XMLID_97_"><path id="XMLID_68_" d="m 626,522.5 c -0.9,-7.5 -0.6,-15 0.8,-22.4 0.9,-3.8 5,-6.8 8.6,-6.6 v 0 c 3.7,0.1 7.5,3.3 8.2,7.2 0.9,7.5 0.6,15 -0.8,22.4 -0.9,3.8 -5,6.8 -8.6,6.6 v 0 c -3.7,-0.1 -7.6,-3.3 -8.2,-7.2 z" class="st10"/><path id="XMLID_66_" d="m 647.3,522.1 c -2.5,-6.9 -4.1,-14.2 -4.3,-21.6 -0.1,-3.8 3.2,-7.6 6.8,-8.3 v 0 c 3.6,-0.7 8,1.5 9.4,5.1 2.7,6.9 4.1,14.2 4.3,21.6 0.1,3.8 -3.2,7.6 -6.8,8.3 v 0 c -3.5,0.7 -7.9,-1.5 -9.4,-5.1 z" class="st10"/><path id="XMLID_65_" d="m 667.6,517 c -4,-6 -7.2,-12.6 -9.1,-19.6 -1,-3.6 1.3,-8 4.5,-9.4 v 0 c 3.4,-1.5 8,-0.5 10.1,2.6 4.1,5.9 7.2,12.6 9.1,19.6 1,3.6 -1.3,8 -4.5,9.4 v 0 c -3.2,1.5 -7.9,0.4 -10.1,-2.6 z" class="st10"/><path id="XMLID_64_" d="m 685.8,507.5 c -5.2,-4.8 -9.7,-10.4 -13.1,-16.6 -1.8,-3.3 -0.5,-7.9 2.2,-10 v 0 c 3,-2.3 7.5,-2.2 10.3,0.2 5.3,4.7 9.7,10.4 13.1,16.6 1.8,3.3 0.5,7.9 -2.2,10 v 0 c -2.8,2.2 -7.5,2.2 -10.3,-0.2 z" class="st10"/><path id="XMLID_63_" d="m 701.3,494.3 c -6,-3.4 -11.6,-7.7 -16.2,-12.9 -2.4,-2.7 -2.3,-7.4 -0.2,-10 v 0 c 2.4,-2.9 6.6,-3.8 9.8,-2.1 6.1,3.3 11.6,7.7 16.2,12.9 2.4,2.7 2.3,7.4 0.2,10 v 0 c -2.1,2.7 -6.6,3.8 -9.8,2.1 z" class="st10"/><path id="XMLID_62_" d="m 713.5,477.9 c -6.5,-1.9 -12.8,-4.7 -18.4,-8.6 -2.9,-2 -3.9,-6.5 -2.5,-9.5 v 0 c 1.7,-3.4 5.4,-5.2 8.9,-4.2 6.6,1.8 12.8,4.7 18.4,8.6 2.9,2 3.9,6.5 2.5,9.5 v 0 c -1.4,3 -5.5,5.1 -8.9,4.2 z" class="st10"/><path id="XMLID_61_" d="m 721.7,458.9 c -6.7,-0.3 -13.3,-1.4 -19.5,-3.8 -3.2,-1.2 -5.2,-5.3 -4.6,-8.5 v 0 c 0.9,-3.8 4,-6.2 7.4,-6.1 6.7,0.1 13.3,1.4 19.5,3.8 3.2,1.2 5.2,5.3 4.6,8.5 v 0 c -0.5,3.1 -3.9,6.1 -7.4,6.1 z" class="st10"/><path id="XMLID_60_" d="m 724.5,439.3 c -6.5,0.4 -13,-0.2 -19.3,-1.8 -3.3,-1 -5.6,-4.6 -5.3,-7.8 v 0 c 0.5,-3.9 3.3,-6.3 6.7,-6.7 6.5,-0.4 13,0.2 19.3,1.8 3.3,1 5.6,4.6 5.3,7.8 v 0 c -0.3,3.2 -3.3,6.4 -6.7,6.7 z" class="st10"/></g><path id="XMLID_57_" d="m 726.8,371.7 v 19.5 c 0,5.3 -4.3,9.6 -9.6,9.6 -5.3,0 -9.6,-4.3 -9.6,-9.6 v -12.8 h -19.3 v 16.4 c 0,16 12.9,28.9 28.9,28.9 v 0 c 16,0 28.9,-12.9 28.9,-28.9 v -23.1 z" class="st6"/><path id="XMLID_187_" d="m 711.4,398.9 c -2.3,-1.8 -3.8,-4.5 -3.8,-7.6 V 383 c 0,-0.8 -0.1,-1.7 -0.1,-2.5 0,-0.7 0,-1.3 0,-2 h -19.2 v 16.4 c 0,16 12.9,28.9 28.9,28.9 v 0 c 5.2,0 10.1,-1.4 14.3,-3.8 -8.8,-4.3 -16,-11.8 -20.1,-21.1 z" class="st8"/><path id="XMLID_59_" d="m 726.8,371.7 v 19.5 c 0,5.3 -4.3,9.6 -9.6,9.6 -5.3,0 -9.6,-4.3 -9.6,-9.6 v -12.8 h -19.3 v 16.4 c 0,16 12.9,28.9 28.9,28.9 v 0 c 16,0 28.9,-12.9 28.9,-28.9 v -23.1 z" class="st7"/><g id="XMLID_256_"><path id="XMLID_279_" d="m 379.4,522.5 c 0.9,-7.5 0.6,-15 -0.8,-22.4 -0.9,-3.8 -5,-6.8 -8.6,-6.6 v 0 c -3.7,0.1 -7.5,3.3 -8.2,7.2 -0.9,7.5 -0.6,15 0.8,22.4 0.9,3.8 5,6.8 8.6,6.6 v 0 c 3.7,-0.1 7.6,-3.3 8.2,-7.2 z" class="st9"/><g id="XMLID_257_"><path id="XMLID_276_" d="m 358,522.1 c 2.5,-6.9 4.1,-14.2 4.3,-21.6 0.1,-3.8 -3.2,-7.6 -6.8,-8.3 v 0 c -3.6,-0.7 -8,1.5 -9.4,5.1 -2.7,6.9 -4.1,14.2 -4.3,21.6 -0.1,3.8 3.2,7.6 6.8,8.3 v 0 c 3.6,0.7 8,-1.5 9.4,-5.1 z" class="st4"/><path id="XMLID_273_" d="m 337.8,517 c 4,-6 7.2,-12.6 9.1,-19.6 1,-3.6 -1.3,-8 -4.5,-9.4 v 0 c -3.4,-1.5 -8,-0.5 -10.1,2.6 -4.1,5.9 -7.2,12.6 -9.1,19.6 -1,3.6 1.3,8 4.5,9.4 v 0 c 3.1,1.5 7.9,0.4 10.1,-2.6 z" class="st9"/><path id="XMLID_270_" d="m 319.6,507.5 c 5.2,-4.8 9.7,-10.4 13.1,-16.6 1.8,-3.3 0.5,-7.9 -2.2,-10 v 0 c -3,-2.3 -7.5,-2.2 -10.3,0.2 -5.3,4.7 -9.7,10.4 -13.1,16.6 -1.8,3.3 -0.5,7.9 2.2,10 v 0 c 2.7,2.2 7.5,2.2 10.3,-0.2 z" class="st9"/><path id="XMLID_267_" d="m 304.1,494.3 c 6,-3.4 11.6,-7.7 16.2,-12.9 2.4,-2.7 2.3,-7.4 0.2,-10 v 0 c -2.4,-2.9 -6.6,-3.8 -9.8,-2.1 -6.1,3.3 -11.6,7.7 -16.2,12.9 -2.4,2.7 -2.3,7.4 -0.2,10 v 0 c 2.1,2.7 6.6,3.8 9.8,2.1 z" class="st9"/><path id="XMLID_264_" d="m 291.9,477.9 c 6.5,-1.9 12.8,-4.7 18.4,-8.6 2.9,-2 3.9,-6.5 2.5,-9.5 v 0 c -1.7,-3.4 -5.4,-5.2 -8.9,-4.2 -6.6,1.8 -12.8,4.7 -18.4,8.6 -2.9,2 -3.9,6.5 -2.5,9.5 v 0 c 1.4,3 5.4,5.1 8.9,4.2 z" class="st9"/><path id="XMLID_261_" d="m 283.6,458.9 c 6.7,-0.3 13.3,-1.4 19.5,-3.8 3.2,-1.2 5.2,-5.3 4.6,-8.5 v 0 c -0.9,-3.8 -4,-6.2 -7.4,-6.1 -6.7,0.1 -13.3,1.4 -19.5,3.8 -3.2,1.2 -5.2,5.3 -4.6,8.5 v 0 c 0.6,3.1 4,6.1 7.4,6.1 z" class="st9"/><path id="XMLID_258_" d="m 280.8,439.3 c 6.5,0.4 13,-0.2 19.3,-1.8 3.3,-1 5.6,-4.6 5.3,-7.8 v 0 c -0.5,-3.9 -3.3,-6.3 -6.7,-6.7 -6.5,-0.4 -13,0.2 -19.3,1.8 -3.3,1 -5.6,4.6 -5.3,7.8 v 0 c 0.4,3.2 3.3,6.4 6.7,6.7 z" class="st9"/></g></g><g id="XMLID_247_"><path id="XMLID_255_" d="m 379.4,522.5 c 0.9,-7.5 0.6,-15 -0.8,-22.4 -0.9,-3.8 -5,-6.8 -8.6,-6.6 v 0 c -3.7,0.1 -7.5,3.3 -8.2,7.2 -0.9,7.5 -0.6,15 0.8,22.4 0.9,3.8 5,6.8 8.6,6.6 v 0 c 3.7,-0.1 7.6,-3.3 8.2,-7.2 z" class="st10"/><path id="XMLID_254_" d="m 358,522.1 c 2.5,-6.9 4.1,-14.2 4.3,-21.6 0.1,-3.8 -3.2,-7.6 -6.8,-8.3 v 0 c -3.6,-0.7 -8,1.5 -9.4,5.1 -2.7,6.9 -4.1,14.2 -4.3,21.6 -0.1,3.8 3.2,7.6 6.8,8.3 v 0 c 3.6,0.7 8,-1.5 9.4,-5.1 z" class="st10"/><path id="XMLID_253_" d="m 337.8,517 c 4,-6 7.2,-12.6 9.1,-19.6 1,-3.6 -1.3,-8 -4.5,-9.4 v 0 c -3.4,-1.5 -8,-0.5 -10.1,2.6 -4.1,5.9 -7.2,12.6 -9.1,19.6 -1,3.6 1.3,8 4.5,9.4 v 0 c 3.1,1.5 7.9,0.4 10.1,-2.6 z" class="st10"/><path id="XMLID_252_" d="m 319.6,507.5 c 5.2,-4.8 9.7,-10.4 13.1,-16.6 1.8,-3.3 0.5,-7.9 -2.2,-10 v 0 c -3,-2.3 -7.5,-2.2 -10.3,0.2 -5.3,4.7 -9.7,10.4 -13.1,16.6 -1.8,3.3 -0.5,7.9 2.2,10 v 0 c 2.7,2.2 7.5,2.2 10.3,-0.2 z" class="st10"/><path id="XMLID_251_" d="m 304.1,494.3 c 6,-3.4 11.6,-7.7 16.2,-12.9 2.4,-2.7 2.3,-7.4 0.2,-10 v 0 c -2.4,-2.9 -6.6,-3.8 -9.8,-2.1 -6.1,3.3 -11.6,7.7 -16.2,12.9 -2.4,2.7 -2.3,7.4 -0.2,10 v 0 c 2.1,2.7 6.6,3.8 9.8,2.1 z" class="st10"/><path id="XMLID_250_" d="m 291.9,477.9 c 6.5,-1.9 12.8,-4.7 18.4,-8.6 2.9,-2 3.9,-6.5 2.5,-9.5 v 0 c -1.7,-3.4 -5.4,-5.2 -8.9,-4.2 -6.6,1.8 -12.8,4.7 -18.4,8.6 -2.9,2 -3.9,6.5 -2.5,9.5 v 0 c 1.4,3 5.4,5.1 8.9,4.2 z" class="st10"/><path id="XMLID_249_" d="m 283.6,458.9 c 6.7,-0.3 13.3,-1.4 19.5,-3.8 3.2,-1.2 5.2,-5.3 4.6,-8.5 v 0 c -0.9,-3.8 -4,-6.2 -7.4,-6.1 -6.7,0.1 -13.3,1.4 -19.5,3.8 -3.2,1.2 -5.2,5.3 -4.6,8.5 v 0 c 0.6,3.1 4,6.1 7.4,6.1 z" class="st10"/><path id="XMLID_248_" d="m 280.8,439.3 c 6.5,0.4 13,-0.2 19.3,-1.8 3.3,-1 5.6,-4.6 5.3,-7.8 v 0 c -0.5,-3.9 -3.3,-6.3 -6.7,-6.7 -6.5,-0.4 -13,0.2 -19.3,1.8 -3.3,1 -5.6,4.6 -5.3,7.8 v 0 c 0.4,3.2 3.3,6.4 6.7,6.7 z" class="st10"/></g><path id="XMLID_191_" d="m 278.5,371.7 v 19.5 c 0,5.3 4.3,9.6 9.6,9.6 5.3,0 9.6,-4.3 9.6,-9.6 V 378.4 H 317 v 16.4 c 0,16 -12.9,28.9 -28.9,28.9 v 0 c -16,0 -28.9,-12.9 -28.9,-28.9 v -23.1 z" class="st6"/><path id="XMLID_183_" d="m 294,398.9 c 2.3,-1.8 3.8,-4.5 3.8,-7.6 V 383 c 0,-0.8 0.1,-1.7 0.1,-2.5 0,-0.7 0,-1.3 0,-2 h 19.2 v 16.4 c 0,16 -12.9,28.9 -28.9,28.9 v 0 c -5.2,0 -10.1,-1.4 -14.3,-3.8 8.8,-4.3 16,-11.8 20.1,-21.1 z" class="st8"/><path id="XMLID_84_" d="m 278.5,371.7 v 19.5 c 0,5.3 4.3,9.6 9.6,9.6 5.3,0 9.6,-4.3 9.6,-9.6 V 378.4 H 317 v 16.4 c 0,16 -12.9,28.9 -28.9,28.9 v 0 c -16,0 -28.9,-12.9 -28.9,-28.9 v -23.1 z" class="st7"/><path id="XMLID_52_" d="m 608.7,326.1 h -16 v -82 h 16 c 4.4,0 8,3.6 8,8 v 66 c 0,4.5 -3.6,8 -8,8 z" class="st8"/><path id="XMLID_20_" d="m 608.7,244.1 h -16 v 11 h 16 c 4.4,0 8,3.6 8,8 v -11 c 0,-4.4 -3.6,-8 -8,-8 z" class="st11"/><path id="XMLID_15_" d="m 608.7,326.1 h -16 v -82 h 16 c 4.4,0 8,3.6 8,8 v 66 c 0,4.5 -3.6,8 -8,8 z" class="st7"/><line id="XMLID_93_" x1="392.9" x2="356.9" y1="285.1" y2="285.1" class="st7"/><circle id="XMLID_69_" cx="340.9" cy="285.1" r="16" class="st8"/><circle id="XMLID_92_" cx="340.9" cy="285.1" r="16" class="st7"/><path id="XMLID_67_" d="m 396.7,326.1 h 16 v -82 h -16 c -4.4,0 -8,3.6 -8,8 v 66 c 0,4.5 3.6,8 8,8 z" class="st8"/><path id="XMLID_23_" d="m 396.7,244.1 c -4.4,0 -8,3.6 -8,8 v 11 c 0,-4.4 3.6,-8 8,-8 h 16 v -11 z" class="st12"/><path id="XMLID_94_" d="m 396.7,326.1 h 16 v -82 h -16 c -4.4,0 -8,3.6 -8,8 v 66 c 0,4.5 3.6,8 8,8 z" class="st7"/><path id="XMLID_5_" d="m 608.7,326.1 h -16 v -82 h 16 c 4.4,0 8,3.6 8,8 v 66 c 0,4.5 -3.6,8 -8,8 z" class="st7"/><path id="XMLID_4_" d="m 396.7,326.1 h 16 v -82 h -16 c -4.4,0 -8,3.6 -8,8 v 66 c 0,4.5 3.6,8 8,8 z" class="st7"/><path id="XMLID_88_" d="m 556.7,379.1 h -108 c -22.1,0 -40,-17.9 -40,-40 v -108 c 0,-22.1 17.9,-40 40,-40 h 108 c 22.1,0 40,17.9 40,40 v 108 c 0,22.1 -17.9,40 -40,40 z" class="st5"/><path id="XMLID_39_" d="m 556.7,379.1 h -108 c -22.1,0 -40,-17.9 -40,-40 v -108 c 0,-22.1 17.9,-40 40,-40 h 108 c 22.1,0 40,17.9 40,40 v 108 c 0,22.1 -17.9,40 -40,40 z" class="st5"/><path id="XMLID_108_" d="m 556.7,379.1 h -108 c -22.1,0 -40,-17.9 -40,-40 v -108 c 0,-22.1 17.9,-40 40,-40 h 108 c 22.1,0 40,17.9 40,40 v 108 c 0,22.1 -17.9,40 -40,40 z" class="st5"/><path id="XMLID_133_" d="m 556.7,191.1 h -108 c -22.1,0 -40,17.9 -40,40 v 9.9 c 0,-22.1 17.9,-40 40,-40 h 108 c 22.1,0 40,17.9 40,40 v -9.9 c 0,-22.1 -17.9,-40 -40,-40 z" class="st11"/><path id="XMLID_154_" d="m 556.7,362.7 h -108 c -22.1,0 -40,-13 -40,-35.1 v 11.5 c 0,22.1 17.9,40 40,40 h 108 c 22.1,0 40,-17.9 40,-40 v -11.5 c 0,22.2 -17.9,35.1 -40,35.1 z" class="st8"/><path id="XMLID_2_" d="m 556.7,379.1 h -108 c -22.1,0 -40,-17.9 -40,-40 v -108 c 0,-22.1 17.9,-40 40,-40 h 108 c 22.1,0 40,17.9 40,40 v 108 c 0,22.1 -17.9,40 -40,40 z" class="st7"/><ellipse id="XMLID_90_" cx="502.7" cy="191.1" class="st13" rx="40" ry="22"/><ellipse id="XMLID_76_" cx="502.7" cy="191.1" class="st14" rx="40" ry="22"/><ellipse id="XMLID_38_" cx="502.7" cy="191.1" class="st5" rx="40" ry="18.9"/><path id="XMLID_126_" d="m 541.4,186.6 c -3,10.5 -19.5,13.5 -39.5,13.5 -18.6,0 -34.2,-1.9 -38.7,-11.3 -0.3,1.1 -0.5,-1.8 -0.5,-0.6 0,12.1 17.9,21.9 40,21.9 22.1,0 40,-9.8 40,-21.9 0,-2 -0.5,0.1 -1.3,-1.6 z" class="st8"/><ellipse id="XMLID_6_" cx="502.7" cy="191.1" class="st7" rx="40" ry="18.9"/><circle id="XMLID_74_" cx="502.7" cy="284.3" r="42.1" class="st15"/><circle id="XMLID_89_" cx="502.7" cy="277.6" r="42.1" class="st12"/><circle id="XMLID_7_" cx="502.7" cy="277.6" r="42.1" class="st7"/><circle id="XMLID_58_" cx="501.9" cy="287" r="20.9" class="st16"/><circle id="XMLID_54_" cx="501.9" cy="287" r="20.9" class="st7"/><circle id="XMLID_55_" cx="501.9" cy="287" r="11.1" class="st4"/><g id="XMLID_107_"><g id="XMLID_239_"><line id="XMLID_246_" x1="546.9" x2="546.9" y1="346.7" y2="354.7" class="st17"/><line id="XMLID_245_" x1="532.1" x2="532.1" y1="345.1" y2="356.4" class="st17"/><line id="XMLID_244_" x1="517.4" x2="517.4" y1="343.4" y2="358.1" class="st17"/><line id="XMLID_243_" x1="502.7" x2="502.7" y1="341.7" y2="359.7" class="st17"/><line id="XMLID_242_" x1="458.5" x2="458.5" y1="346.7" y2="354.7" class="st17"/><line id="XMLID_241_" x1="473.2" x2="473.2" y1="345.1" y2="356.4" class="st17"/><line id="XMLID_240_" x1="488" x2="488" y1="343.4" y2="358.1" class="st17"/></g></g><g id="XMLID_8_"><g id="XMLID_220_"><line id="XMLID_227_" x1="546.9" x2="546.9" y1="343.7" y2="351.7" class="st7"/><line id="XMLID_226_" x1="532.1" x2="532.1" y1="342.1" y2="353.4" class="st7"/><line id="XMLID_225_" x1="517.4" x2="517.4" y1="340.4" y2="355.1" class="st7"/><line id="XMLID_224_" x1="502.7" x2="502.7" y1="338.7" y2="356.7" class="st7"/><line id="XMLID_223_" x1="458.5" x2="458.5" y1="343.7" y2="351.7" class="st7"/><line id="XMLID_222_" x1="473.2" x2="473.2" y1="342.1" y2="353.4" class="st7"/><line id="XMLID_221_" x1="488" x2="488" y1="340.4" y2="355.1" class="st7"/></g></g><rect id="XMLID_91_" width="32" height="44" x="486.7" y="379.1" class="st6"/><rect id="XMLID_87_" width="32" height="16.4" x="486.7" y="379.1" class="st4"/><rect id="XMLID_18_" width="32" height="44" x="486.7" y="379.1" class="st7"/><path id="XMLID_95_" d="m 638.3,530.2 c -18.4,50 -49.4,93.9 -89.1,127.9 -26.7,22.9 -66.3,22.9 -93,0 -39.7,-34 -70.7,-77.9 -89.1,-127.9 -14.5,-39.3 7.3,-82.4 47.4,-94.3 27.9,-8.3 57.5,-12.8 88.2,-12.8 30.7,0 60.2,4.5 88.2,12.8 40.1,11.9 61.9,55 47.4,94.3 z" class="st5"/><path id="XMLID_119_" d="m 638.3,530.2 c -18.4,50 -49.4,93.9 -89.1,127.9 -26.7,22.9 -66.3,22.9 -93,0 -39.7,-34 -70.7,-77.9 -89.1,-127.9 -14.5,-39.3 7.3,-82.4 47.4,-94.3 27.9,-8.3 57.5,-12.8 88.2,-12.8 30.7,0 60.2,4.5 88.2,12.8 40.1,11.9 61.9,55 47.4,94.3 z" class="st5"/><path id="XMLID_195_" d="m 414.5,443.9 c 27.9,-8.3 57.5,-12.8 88.2,-12.8 30.7,0 60.2,4.5 88.2,12.8 30.3,9 50.1,35.7 51.8,65.2 1.8,-32.5 -18.8,-63.4 -51.8,-73.2 -27.9,-8.3 -57.5,-12.8 -88.2,-12.8 -30.7,0 -60.2,4.5 -88.2,12.8 -33,9.8 -53.6,40.7 -51.8,73.2 1.7,-29.4 21.5,-56.2 51.8,-65.2 z" class="st11"/><path id="XMLID_175_" d="m 551.3,624 c -27.9,22.9 -69.4,22.9 -97.3,0 -40.2,-32.9 -71.8,-75 -91.3,-122.9 -0.5,9.6 0.8,19.5 4.4,29.1 18.4,50 49.4,93.9 89.1,127.9 26.7,22.9 66.3,22.9 93,0 39.7,-34 70.7,-77.9 89.1,-127.9 3.6,-9.6 4.9,-19.5 4.4,-29.1 -19.5,47.9 -51.2,90 -91.4,122.9 z" class="st6"/><path id="XMLID_28_" d="m 638.3,530.2 c -18.4,50 -49.4,93.9 -89.1,127.9 -26.7,22.9 -66.3,22.9 -93,0 -39.7,-34 -70.7,-77.9 -89.1,-127.9 -14.5,-39.3 7.3,-82.4 47.4,-94.3 27.9,-8.3 57.5,-12.8 88.2,-12.8 30.7,0 60.2,4.5 88.2,12.8 40.1,11.9 61.9,55 47.4,94.3 z" class="st7"/><linearGradient id="linearGradient4253" x1="502.686" x2="502.686" y1="552.985" y2="488.985" gradientUnits="userSpaceOnUse"><stop style="stop-color:#57aa63" id="stop4249" offset="0"/><stop style="stop-color:#9aa642" id="stop4251" offset="1"/></linearGradient><path id="XMLID_96_" d="m 547,553 h -88.7 c -6.4,0 -11.7,-5.2 -11.7,-11.7 v -40.7 c 0,-6.4 5.2,-11.7 11.7,-11.7 H 547 c 6.4,0 11.7,5.2 11.7,11.7 v 40.7 c 0,6.5 -5.2,11.7 -11.7,11.7 z" class="st18" style="fill:url(#XMLID_198_)"/><polyline id="XMLID_21_" points="446.7 535 460.8 510.8 472.2 544.6 488.3 507.9 500.8 534.3 509.8 500.3 526.2 544.6 540.9 508.4 558.7 534.3" class="st19"/><path id="XMLID_103_" d="m 548.6,509.1 h -91.9 c -5.6,0 -10.1,-4.5 -10.1,-10.1 v 0 c 0,-5.6 4.5,-10.1 10.1,-10.1 h 91.9 c 5.6,0 10.1,4.5 10.1,10.1 v 0 c 0,5.6 -4.5,10.1 -10.1,10.1 z" class="st20"/><path id="XMLID_19_" d="m 547,553 h -88.7 c -6.4,0 -11.7,-5.2 -11.7,-11.7 v -40.7 c 0,-6.4 5.2,-11.7 11.7,-11.7 H 547 c 6.4,0 11.7,5.2 11.7,11.7 v 40.7 c 0,6.5 -5.2,11.7 -11.7,11.7 z" class="st10"/><ellipse id="XMLID_51_" cx="502.7" cy="185.5" class="st11" rx="13.5" ry="5.6"/><ellipse id="XMLID_70_" cx="501.4" cy="279.1" class="st12" rx="6.3" ry="4.9"/><ellipse id="XMLID_116_" cx="666.1" cy="280.1" class="st11" rx="5.2" ry="4"/><ellipse id="XMLID_134_" cx="339.3" cy="280.1" class="st11" rx="5.2" ry="4"/><circle id="XMLID_25_" cx="503.3" cy="575.7" r="11.7" class="st6"/><circle id="XMLID_9_" cx="503.3" cy="575.7" r="11.7" class="st21"/><path id="XMLID_37_" d="m 509.8,573.3 -1.3,-2.2 c -0.2,-0.3 -0.6,-0.5 -1,-0.3 v 0 c -1.1,0.6 -2.4,-0.2 -2.4,-1.4 v 0 c 0,-0.4 -0.3,-0.7 -0.7,-0.7 h -2.5 c -0.4,0 -0.7,0.3 -0.7,0.7 v 0 c 0,1.2 -1.3,2 -2.4,1.4 v 0 c -0.3,-0.2 -0.8,-0.1 -1,0.3 l -1.3,2.2 c -0.2,0.3 -0.1,0.8 0.3,1 v 0 c 1.1,0.6 1.1,2.1 0,2.7 v 0 c -0.3,0.2 -0.5,0.6 -0.3,1 l 1.3,2.2 c 0.2,0.3 0.6,0.5 1,0.3 v 0 c 1.1,-0.6 2.4,0.2 2.4,1.4 v 0 c 0,0.4 0.3,0.7 0.7,0.7 h 2.5 c 0.4,0 0.7,-0.3 0.7,-0.7 v 0 c 0,-1.2 1.3,-2 2.4,-1.4 v 0 c 0.3,0.2 0.8,0.1 1,-0.3 l 1.3,-2.2 c 0.2,-0.3 0.1,-0.8 -0.3,-1 v 0 c -1.1,-0.6 -1.1,-2.1 0,-2.7 v 0 c 0.4,-0.2 0.5,-0.6 0.3,-1 z" class="st4"/></g></g><style id="style2" type="text/css">.st4{fill:#430b48}.st5{fill:#e0e0e0}.st6{fill:#cfc3d8}.st7{fill:none;stroke:#430b48;stroke-width:8;stroke-linecap:round;stroke-linejoin:round;stroke-miterlimit:10}.st8{fill:#bfb0cc}.st9{fill:#4b1151}.st10{fill:none;stroke:#430b48;stroke-width:6;stroke-linecap:round;stroke-linejoin:round;stroke-miterlimit:10}.st11{fill:#fff}.st12{fill:#e6eef1}.st13{fill:#fea74a}.st14{fill:#bbc6cc}.st15{fill:#cfc3d8;stroke:#cfc3d8;stroke-width:8;stroke-linecap:round;stroke-linejoin:round;stroke-miterlimit:10}.st16{fill:#23b5e2}.st17{fill:none;stroke:#bbc6cc;stroke-width:8;stroke-linecap:round;stroke-linejoin:round;stroke-miterlimit:10}.st18{fill:url(#XMLID_198_)}.st19{fill:none;stroke:#3a3a3a;stroke-width:4;stroke-linecap:round;stroke-linejoin:round;stroke-miterlimit:10}.st20{opacity:.3;fill:#fff}.st21{fill:none;stroke:#430b48;stroke-width:4;stroke-linecap:round;stroke-linejoin:round;stroke-miterlimit:10}</style></svg>