<svg xmlns="http://www.w3.org/2000/svg" xmlns:svg="http://www.w3.org/2000/svg" id="svg8" width="1500" height="700" version="1.1" viewBox="0 0 396.875 185.208"><metadata id="metadata5"/><g id="layer1"><g id="g976" transform="matrix(0.28315748,0,0,0.30904333,11.615896,9.9660978)"><path id="path959" fill="#7cb342" d="m 12,29 c 0,1.1 -0.9,2 -2,2 -1.1,0 -2,-0.9 -2,-2 v -9 c 0,-1.1 0.9,-2 2,-2 1.1,0 2,0.9 2,2 z m 28,0 c 0,1.1 -0.9,2 -2,2 -1.1,0 -2,-0.9 -2,-2 v -9 c 0,-1.1 0.9,-2 2,-2 1.1,0 2,0.9 2,2 z M 22,40 c 0,1.1 -0.9,2 -2,2 -1.1,0 -2,-0.9 -2,-2 v -9 c 0,-1.1 0.9,-2 2,-2 1.1,0 2,0.9 2,2 z m 8,0 c 0,1.1 -0.9,2 -2,2 -1.1,0 -2,-0.9 -2,-2 v -9 c 0,-1.1 0.9,-2 2,-2 1.1,0 2,0.9 2,2 z"/><path id="path961" fill="#7cb342" d="m 14,18 v 15 c 0,1.1 0.9,2 2,2 h 16 c 1.1,0 2,-0.9 2,-2 V 18 Z M 24,8 c -6,0 -9.7,3.6 -10,8 H 34 C 33.7,11.6 30,8 24,8 Z m -4,5.6 c -0.6,0 -1,-0.4 -1,-1 0,-0.6 0.4,-1 1,-1 0.6,0 1,0.4 1,1 0,0.5 -0.4,1 -1,1 z m 8,0 c -0.6,0 -1,-0.4 -1,-1 0,-0.6 0.4,-1 1,-1 0.6,0 1,0.4 1,1 0,0.5 -0.4,1 -1,1 z"/><path id="path963" fill="#7cb342" d="m 28.3,10.5 c -0.2,0 -0.4,-0.1 -0.6,-0.2 C 27.2,10 27.1,9.4 27.4,8.9 L 29.1,6.4 C 29.4,5.9 30,5.8 30.5,6.1 31,6.4 31.1,7 30.8,7.5 L 29.1,10 c -0.1,0.3 -0.4,0.5 -0.8,0.5 z m -9,-0.4 C 19,10.1 18.6,9.9 18.5,9.6 L 17.2,7.5 C 16.9,7 17,6.4 17.5,6.1 18,5.8 18.6,5.9 18.9,6.4 l 1.3,2.1 c 0.3,0.5 0.2,1.1 -0.3,1.4 -0.2,0.1 -0.4,0.2 -0.6,0.2 z"/></g><g id="g1110" transform="matrix(0.42232425,0,0,0.47150168,216.7873,40.298498)"><path id="path1081" fill="#03a9f4" d="m 40,20 c 0.391,-1.735 -0.092,-3.78 -2.5,-6 -3.914,3.543 -2.795,7.227 -1.5,9 0,0 -0.166,1 -4,1 C 28.166,24 2,24 2,24 2,24 0.167,40 18,40 33.593,40 37.973,27.997 38.828,24.924 39.182,24.972 39.579,25.003 40,25 42.147,24.983 44.93,23.829 46,19.516 43.162,18.533 41.339,18.978 40,20 Z"/><path id="path1083" fill="#0288d1" d="M 2.165,28 C 2.9,32.739 5.983,40 18,40 30.185,40 35.523,32.67 37.682,28 Z"/><path id="path1085" fill="#81d4fa" d="M 19.812,39.938 C 18.892,39.616 14.74,38.848 14,33 9.791,34.863 6.062,34.375 4.421,34.008 6.583,37.237 10.591,40 18,40 c 0.623,0 1.224,-0.024 1.812,-0.062 z"/><path id="path1087" fill="#fff" d="m 18,30 a 2,2 0 1 0 0,4 2,2 0 1 0 0,-4 z"/><path id="path1089" fill="#37474f" d="m 14.914,33.597 c 0.224,0.505 0.02,1.162 -0.51,1.318 -3.301,0.973 -6.146,1.102 -8.297,1.102 -0.644,-0.619 -1.194,-1.279 -1.656,-1.963 2.585,0 6.71,-0.12 9.144,-0.966 0.522,-0.182 1.095,0.002 1.319,0.509 z M 2,27 c 0,0 1.875,0.125 3,-1 1.875,1.688 5.94,1.088 7,0 1.063,1.688 6.938,1.375 8,0 1.25,1.438 6.625,1.75 8,0 0.479,1.461 6.819,1.874 8,0 1.061,1.088 5.063,1.938 7.311,0 0.564,1.188 2.689,1 2.689,1 v 1 H 2 m 15,4 c 0,0.552 0.448,1 1,1 0.552,0 1,-0.448 1,-1 0,-0.552 -0.448,-1 -1,-1 -0.552,0 -1,0.448 -1,1 z"/><path id="path1091" fill="#01579b" d="M 11,24 H 6 v -5 h 5 z m 10,-5 h -5 v 5 h 5 z m 10,0 h -5 v 5 h 5 z M 16,14 h -5 v 5 h 5 z m 10,0 h -5 v 5 h 5 z"/><path id="path1093" fill="#0288d1" d="m 16,24 h -5 v -5 h 5 z m 10,-5 h -5 v 5 h 5 z M 26,9 h -5 v 5 h 5 z m -5,5 h -5 v 5 h 5 z"/></g><g id="g1176" transform="matrix(0.32397657,0,0,0.34529699,23.762367,151.38928)"><path id="path1162" fill="#ffd600" d="M 6,42 V 6 h 36 v 36 z"/><path id="path1164" fill="#000001" d="m 29.538,32.947 c 0.692,1.124 1.444,2.201 3.037,2.201 1.338,0 2.04,-0.665 2.04,-1.585 0,-1.101 -0.726,-1.492 -2.198,-2.133 L 31.61,31.086 c -2.329,-0.988 -3.878,-2.226 -3.878,-4.841 0,-2.41 1.845,-4.244 4.728,-4.244 2.053,0 3.528,0.711 4.592,2.573 l -2.514,1.607 c -0.553,-0.988 -1.151,-1.377 -2.078,-1.377 -0.946,0 -1.545,0.597 -1.545,1.377 0,0.964 0.6,1.354 1.985,1.951 l 0.807,0.344 C 36.452,29.645 38,30.839 38,33.523 38,36.415 35.716,38 32.65,38 29.651,38 27.948,36.495 27,34.632 Z m -11.586,0.082 c 0.506,0.906 1.275,1.603 2.381,1.603 1.058,0 1.667,-0.418 1.667,-2.043 V 22 h 3.333 v 11.101 c 0,3.367 -1.953,4.899 -4.805,4.899 -2.577,0 -4.437,-1.746 -5.195,-3.368 z"/></g><g id="g1219" transform="matrix(0.49706443,0,0,0.52970075,165.86852,73.49501)"><path id="path1196" fill="#388e3c" d="m 120.44162,79.670042 -4.907,2.715 c -0.184,0.101 -0.297,0.289 -0.297,0.492 v 5.433 c 0,0.203 0.113,0.39 0.297,0.492 l 4.908,2.717 c 0.183,0.101 0.41,0.101 0.593,0 l 4.907,-2.717 c 0.182,-0.102 0.295,-0.289 0.295,-0.492 v -5.433 c 0,-0.203 -0.113,-0.39 -0.297,-0.492 l -4.906,-2.715 c -0.092,-0.051 -0.195,-0.076 -0.297,-0.076 -0.103,0 -0.205,0.025 -0.297,0.076 m 25.248,4.891 -0.818,0.452 c -0.031,0.017 -0.049,0.048 -0.049,0.082 v 0.906 c 0,0.034 0.019,0.065 0.049,0.082 l 0.818,0.453 c 0.031,0.017 0.068,0.017 0.099,0 l 0.818,-0.453 c 0.03,-0.017 0.049,-0.048 0.049,-0.082 v -0.906 c 0,-0.034 -0.019,-0.065 -0.05,-0.082 l -0.818,-0.452 c -0.015,-0.009 -0.032,-0.013 -0.049,-0.013 -0.017,0 -0.034,0.004 -0.049,0.013"/><path id="path1198" fill="#37474f" d="m 138.98862,73.912042 -2.389,-1.333 c -0.075,-0.042 -0.167,-0.041 -0.241,0.003 -0.074,0.044 -0.12,0.123 -0.12,0.209 l -0.001,8.052 -2.203,-1.219 c -0.092,-0.051 -0.195,-0.076 -0.297,-0.076 -0.102,0 -0.205,0.025 -0.297,0.076 h 0.001 l -4.907,2.715 c -0.184,0.101 -0.297,0.289 -0.297,0.491 v 5.433 c 0,0.203 0.113,0.39 0.297,0.492 l 4.908,2.717 c 0.183,0.101 0.41,0.101 0.593,0 l 4.907,-2.717 c 0.182,-0.101 0.295,-0.289 0.295,-0.492 v -13.927 c 0,-0.176 -0.096,-0.338 -0.249,-0.424 z m -2.885,13.094 -2.23,1.235 c -0.083,0.046 -0.186,0.046 -0.269,0 l -2.231,-1.235 c -0.085,-0.046 -0.136,-0.132 -0.136,-0.224 v -2.47 c 0,-0.092 0.051,-0.177 0.135,-0.224 l 2.231,-1.234 h -0.001 c 0.042,-0.023 0.088,-0.034 0.135,-0.034 0.047,0 0.093,0.012 0.135,0.034 l 2.23,1.234 c 0.084,0.047 0.135,0.133 0.135,0.225 v 2.47 c 0,0.091 -0.051,0.177 -0.134,0.223 z"/><path id="path1200" fill="#2e7d32" d="m 120.44162,79.670042 -5.204,8.64 c 0,0.203 0.113,0.39 0.297,0.492 l 4.908,2.717 c 0.183,0.101 0.41,0.101 0.593,0 l 5.202,-8.642 c 0,-0.203 -0.113,-0.39 -0.297,-0.492 l -4.906,-2.715 c -0.092,-0.051 -0.195,-0.076 -0.297,-0.076 -0.103,0 -0.205,0.025 -0.297,0.076"/><path id="path1202" fill="#4caf50" d="m 120.44162,79.670042 -4.907,2.715 c -0.184,0.101 -0.297,0.289 -0.297,0.492 l 5.204,8.642 c 0.183,0.101 0.41,0.101 0.593,0 l 4.907,-2.717 c 0.183,-0.102 0.296,-0.289 0.296,-0.492 l -5.203,-8.64 c -0.092,-0.051 -0.195,-0.076 -0.297,-0.076 -0.103,0 -0.205,0.025 -0.297,0.076"/><path id="path1204" fill="#37474f" d="m 150.94062,82.339042 -4.906,-2.715 c -0.092,-0.051 -0.195,-0.076 -0.297,-0.076 -0.102,0 -0.205,0.025 -0.297,0.076 h 0.001 l -4.907,2.715 c -0.183,0.101 -0.297,0.293 -0.297,0.503 v 5.411 c 0,0.209 0.114,0.402 0.297,0.503 l 4.908,2.717 c 0.184,0.102 0.409,0.102 0.593,0 l 2.263,-1.253 c 0.207,-0.115 0.206,-0.412 -0.002,-0.526 l -4.924,-2.687 c -0.083,-0.047 -0.135,-0.134 -0.135,-0.228 v -2.466 c 0,-0.092 0.05,-0.177 0.13,-0.221 l 2.235,-1.236 h -0.001 c 0.042,-0.023 0.088,-0.034 0.135,-0.034 0.047,0 0.093,0.012 0.135,0.034 l 2.235,1.237 c 0.08,0.044 0.13,0.129 0.13,0.221 v 2.012 c 0,0.086 0.046,0.166 0.121,0.209 0.075,0.042 0.167,0.042 0.242,-0.001 l 2.398,-1.393 c 0.148,-0.086 0.24,-0.245 0.24,-0.417 v -1.88 c 0,-0.211 -0.114,-0.404 -0.297,-0.505 z m -37,0 -4.906,-2.715 c -0.092,-0.051 -0.195,-0.076 -0.297,-0.076 -0.102,0 -0.205,0.025 -0.297,0.076 h 0.001 l -4.907,2.715 c -0.183,0.101 -0.297,0.293 -0.297,0.503 v 7.465 c 0,0.086 0.046,0.166 0.121,0.209 0.075,0.042 0.167,0.042 0.242,-0.001 l 2.398,-1.393 c 0.148,-0.086 0.239,-0.245 0.239,-0.417 v -4.393 c 0,-0.092 0.05,-0.177 0.13,-0.221 l 2.235,-1.236 v 0 c 0.042,-0.023 0.088,-0.034 0.135,-0.034 0.047,0 0.093,0.012 0.135,0.034 l 2.235,1.237 c 0.08,0.044 0.13,0.129 0.13,0.221 v 4.393 c 0,0.172 0.091,0.331 0.24,0.417 l 2.398,1.393 c 0.075,0.043 0.167,0.043 0.242,0.001 0.074,-0.044 0.12,-0.124 0.12,-0.21 v -7.464 c 0,-0.21 -0.114,-0.403 -0.297,-0.504 z"/></g><g id="g1349" transform="matrix(0.32817956,0,0,0.33882486,285.05537,11.503036)"><polygon id="polygon1335" fill="#81c784" points="45 8 29.24 8 23.987 17 18.734 8 2.974 8 23.987 44"/><polygon id="polygon1337" fill="#455a64" points="23.987 30 36.828 8 29.24 8 23.987 17 18.734 8 11.146 8"/></g><g id="g1488" transform="matrix(0.30678368,0,0,0.30276466,99.277727,18.658871)"><path id="path1462" fill="#00549d" fill-rule="evenodd" d="m 22.903,3.286 c 0.679,-0.381 1.515,-0.381 2.193,0 3.355,1.883 13.451,7.551 16.807,9.434 0.679,0.38 1.097,1.084 1.097,1.846 0,3.766 0,15.101 0,18.867 0,0.762 -0.418,1.466 -1.097,1.847 -3.355,1.883 -13.451,7.551 -16.807,9.434 -0.679,0.381 -1.515,0.381 -2.193,0 C 19.548,42.831 9.452,37.163 6.096,35.28 5.418,34.899 5,34.196 5,33.434 5,29.668 5,18.333 5,14.567 5,13.805 5.418,13.101 6.097,12.72 9.451,10.837 19.549,5.169 22.903,3.286 Z" clip-rule="evenodd"/><path id="path1464" fill="#0086d4" fill-rule="evenodd" d="M 5.304,34.404 C 5.038,34.048 5,33.71 5,33.255 5,29.511 5,18.241 5,14.496 5,13.738 5.417,13.038 6.094,12.66 9.437,10.788 19.499,5.153 22.842,3.28 c 0.677,-0.379 1.594,-0.371 2.271,0.008 3.343,1.872 13.371,7.459 16.714,9.331 0.27,0.152 0.476,0.335 0.66,0.576 z" clip-rule="evenodd"/><path id="path1466" fill="#fff" fill-rule="evenodd" d="m 24,10 c 7.727,0 14,6.273 14,14 0,7.727 -6.273,14 -14,14 -7.727,0 -14,-6.273 -14,-14 0,-7.727 6.273,-14 14,-14 z m 0,7 c 3.863,0 7,3.136 7,7 0,3.863 -3.137,7 -7,7 -3.863,0 -7,-3.137 -7,-7 0,-3.864 3.136,-7 7,-7 z" clip-rule="evenodd"/><path id="path1468" fill="#0075c0" fill-rule="evenodd" d="m 42.485,13.205 c 0.516,0.483 0.506,1.211 0.506,1.784 0,3.795 -0.032,14.589 0.009,18.384 0.004,0.396 -0.127,0.813 -0.323,1.127 L 23.593,24 Z" clip-rule="evenodd"/><path id="path1470" fill="#fff" fill-rule="evenodd" d="m 31,21 h 2 v 6 h -2 z m 7,0 h 2 v 6 h -2 z" clip-rule="evenodd"/><path id="path1472" fill="#fff" fill-rule="evenodd" d="m 29,23 h 6 v 2 h -6 z m 7,0 h 6 v 2 h -6 z" clip-rule="evenodd"/></g><g id="g1538" transform="matrix(0.43214439,0,0,0.41798634,283.22408,144.84035)"><path id="path1518" fill="#80deea" d="M 24,34 C 11.1,34 1,29.6 1,24 1,18.4 11.1,14 24,14 c 12.9,0 23,4.4 23,10 0,5.6 -10.1,10 -23,10 z m 0,-18 c -12.6,0 -21,4.1 -21,8 0,3.9 8.4,8 21,8 12.6,0 21,-4.1 21,-8 0,-3.9 -8.4,-8 -21,-8 z"/><path id="path1520" fill="#80deea" d="m 15.1,44.6 c -1,0 -1.8,-0.2 -2.6,-0.7 C 7.6,41.1 8.9,30.2 15.3,19 v 0 c 3,-5.2 6.7,-9.6 10.3,-12.4 3.9,-3 7.4,-3.9 9.8,-2.5 2.5,1.4 3.4,4.9 2.8,9.8 -0.6,4.6 -2.6,10 -5.6,15.2 -3,5.2 -6.7,9.6 -10.3,12.4 -2.6,2 -5.1,3.1 -7.2,3.1 z M 32.9,5.4 c -1.6,0 -3.7,0.9 -6,2.7 C 23.5,10.8 20,15 17.1,20 v 0 c -6.3,10.9 -6.9,20.3 -3.6,22.2 1.7,1 4.5,0.1 7.6,-2.3 C 24.5,37.2 28,33 30.9,28 33.8,23 35.7,17.9 36.3,13.6 36.8,9.6 36.2,6.8 34.5,5.8 34,5.6 33.5,5.4 32.9,5.4 Z"/><path id="path1522" fill="#80deea" d="M 33,44.6 C 28,44.6 20.8,38.5 15.4,29 8.9,17.8 7.6,6.9 12.5,4.1 v 0 c 4.9,-2.8 13.7,3.7 20.2,14.9 3,5.2 5,10.6 5.6,15.2 0.7,4.9 -0.3,8.3 -2.8,9.8 -0.8,0.4 -1.6,0.6 -2.5,0.6 z M 13.5,5.8 c -3.3,1.9 -2.7,11.3 3.6,22.2 6.3,10.9 14.1,16.1 17.4,14.2 1.7,-1 2.3,-3.8 1.8,-7.8 C 35.7,30.1 33.8,25 30.9,20 24.6,9.1 16.8,3.9 13.5,5.8 Z"/><circle id="circle1524" cx="24" cy="24" r="4" fill="#80deea"/></g><g id="g1674" transform="matrix(0.33882487,0,0,0.38336978,295.48639,66.436402)"><rect id="rect1657" width="36" height="36" x="6" y="6" fill="#1976d2"/><polygon id="polygon1659" fill="#fff" points="14.227 25.264 18.984 25.264 18.984 40 22.753 40 22.753 25.264 27.49 25.264 27.49 22 14.227 22"/><path id="path1661" fill="#fff" d="m 39.194,26.084 c 0,0 -1.787,-1.192 -3.807,-1.192 -2.02,0 -2.747,0.96 -2.747,1.986 0,2.648 7.381,2.383 7.381,7.712 0,8.209 -11.254,4.568 -11.254,4.568 V 35.22 c 0,0 2.152,1.622 4.733,1.622 2.581,0 2.483,-1.688 2.483,-1.92 0,-2.449 -7.315,-2.449 -7.315,-7.878 0,-7.381 10.658,-4.469 10.658,-4.469 z"/></g><g id="g1773" transform="matrix(0.32747028,0,0,0.33491742,362.57628,18.956203)"><path id="path1753" fill="#e65100" d="M 41,5 H 7 l 3,34 14,4 14,-4 z"/><path id="path1755" fill="#ff6d00" d="M 24,8 V 39.9 L 35.2,36.7 37.7,8 Z"/><path id="path1757" fill="#fff" d="m 24,25 v -4 h 8.6 L 31.9,32.5 24,35.1 v -4.2 l 4.1,-1.4 0.3,-4.5 z m 8.9,-8 0.3,-4 H 24 v 4 z"/><path id="path1759" fill="#eee" d="m 24,30.9 v 4.2 L 16.1,32.5 15.7,27 h 4 l 0.2,2.5 z M 19.1,17 H 24 v -4 h -9.1 l 0.7,12 H 24 v -4 h -4.6 z"/></g><path id="path2069-6" fill="#f4511e" d="m 159.26345,154.46016 -5.00058,-4.7713 c -0.15339,-0.14636 -0.36814,-0.23418 -0.58289,-0.23418 0,0 0,0 0,0 -0.21476,0 -0.4295,0.0878 -0.58289,0.23418 l -1.07375,1.02451 1.25782,1.20014 c 0.12272,-0.0585 0.24543,-0.0878 0.39882,-0.0878 0.52153,0 0.92035,0.38052 0.92035,0.87815 0,0.14635 -0.0308,0.26344 -0.0921,0.38052 l 1.22714,1.17088 c 0.12271,-0.0585 0.24543,-0.0878 0.39882,-0.0878 0.52153,0 0.92035,0.38054 0.92035,0.87815 0,0.49762 -0.39882,0.87816 -0.92035,0.87816 -0.52153,0 -0.92035,-0.38054 -0.92035,-0.87816 0,-0.14635 0.0308,-0.26344 0.0921,-0.38053 l -1.22713,-1.17087 c -0.0308,0 -0.0613,0.0293 -0.0921,0.0293 v 3.04426 c 0.36813,0.11709 0.61357,0.43908 0.61357,0.81962 0,0.49761 -0.39883,0.87815 -0.92035,0.87815 -0.52153,0 -0.92036,-0.38054 -0.92036,-0.87815 0,-0.38054 0.24544,-0.70253 0.61358,-0.81962 v -3.07353 c -0.36814,-0.11708 -0.61358,-0.43907 -0.61358,-0.81961 0,-0.14635 0.0308,-0.26345 0.0921,-0.38053 l -1.25782,-1.20014 -3.49734,3.36625 c -0.15339,0.14636 -0.24542,0.35126 -0.24542,0.55616 0,0.2049 0.0921,0.40981 0.24542,0.55616 l 5.00058,4.7713 c 0,0 0,0 0,0 0.15339,0.14635 0.36813,0.23418 0.58289,0.23418 0.21475,0 0.4295,-0.0878 0.58289,-0.23418 l 5.00058,-4.7713 c 0.15339,-0.14635 0.24542,-0.35126 0.24542,-0.55616 0,-0.2049 -0.0921,-0.4098 -0.24542,-0.55616 z" style="stroke-width:.299669"/></g></svg>