<svg xmlns="http://www.w3.org/2000/svg" id="Layer_1" data-name="Layer 1" viewBox="0 0 147.5 583.78"><defs><style>.cls-1{fill:#fff;stroke:#000}.cls-2{fill:#e8417c}</style></defs><title>Font</title><path d="M77.07,657.8V628l140-22.8v22l-27.8,4h.4v25l27.4,4v20.4Zm93.6-24-69.2,9.8v.4l69.2,9.6Z" class="cls-1" transform="translate(-74.57 -97.41)"/><path d="M77.07,594.6V561.4q0-17,7.9-24.8t24.3-7.8h5.6q10.8,0,17.6,3.5a20.52,20.52,0,0,1,9.8,10.7h.4q5.61-16.39,29.2-16.4h12q16.2,0,24.7,8.5t8.5,24.9v34.6Zm57-30.6q0-6.6-3.4-9.9t-11.4-3.3h-7.8q-7.59,0-11,2.7c-2.26,1.8-3.4,4.64-3.4,8.5v10.6h37Zm63-4q0-5.79-3.1-8.6t-10.7-2.8h-12.2q-9.6,0-13.3,3.3t-3.7,10.9v9.8h43Z" class="cls-1" transform="translate(-74.57 -97.41)"/><path d="M209.87,506.8q-9.19,8.61-26,8.6h-73.6q-16.8,0-26-8.6T75.07,482q0-16.19,9.2-24.79t26-8.61h73.6q16.8,0,26,8.61t9.2,24.79Q219.07,498.2,209.87,506.8Zm-24.6-36.2h-76.4q-13.8,0-13.8,11.4t13.8,11.4h76.4q13.8,0,13.8-11.4T185.27,470.6Z" class="cls-1" transform="translate(-74.57 -97.41)"/><path d="M210,426.21q-9.09,8.4-26.1,8.4H77.07v-22h108.4q7.2,0,10.4-2.9c2.14-1.94,3.2-4.7,3.2-8.3s-1.06-6.37-3.2-8.3-5.6-2.9-10.4-2.9H77.07V369h106.8q17,0,26.1,8.4t9.1,24.4Q219.07,417.8,210,426.21Z" class="cls-1" transform="translate(-74.57 -97.41)"/><path d="M97.07,336.21v23h-20v-68h20v23h120v22Z" class="cls-1" transform="translate(-74.57 -97.41)"/><path d="M210,241q-9.09,8.4-26.1,8.4H77.07v-22h108.4q7.2,0,10.4-2.9c2.14-1.93,3.2-4.7,3.2-8.3s-1.06-6.37-3.2-8.3-5.6-2.9-10.4-2.9H77.07v-21.2h106.8q17,0,26.1,8.4t9.1,24.4Q219.07,232.62,210,241Z" class="cls-1" transform="translate(-74.57 -97.41)"/><path d="M210,163.81q-9.09,8.2-26.1,8.2h-8v-20.8h9.6q13.6,0,13.6-11.4,0-5.59-3.3-8.5t-10.7-2.9a29.74,29.74,0,0,0-15.5,4q-6.69,4-16.1,14.8-12,13.6-21.7,19a44.22,44.22,0,0,1-21.9,5.4q-16.59,0-25.7-8.4t-9.1-24.4q0-15.8,9.1-23.9t26.1-8.1h5.8v20.8h-7.2q-7.2,0-10.5,2.8t-3.3,8.2q0,11,13.4,11a26.36,26.36,0,0,0,14.2-4.1q6.6-4.09,16-14.9,12-13.8,21.8-19t23-5.2q17.21,0,26.4,8.5t9.2,24.7Q219.07,155.62,210,163.81Z" class="cls-1" transform="translate(-74.57 -97.41)"/><path d="M80.07,648.8V619l140-22.8v22l-27.8,4h.4v25l27.4,4v20.4Zm93.6-24-69.2,9.8v.4l69.2,9.6Z" class="cls-2" transform="translate(-74.57 -97.41)"/><path d="M80.07,585.6V552.4q0-17,7.9-24.8t24.3-7.8h5.6q10.8,0,17.6,3.5a20.52,20.52,0,0,1,9.8,10.7h.4q5.61-16.39,29.2-16.4h12q16.2,0,24.7,8.5t8.5,24.9v34.6Zm57-30.6q0-6.6-3.4-9.9t-11.4-3.3h-7.8q-7.59,0-11,2.7c-2.26,1.8-3.4,4.64-3.4,8.5v10.6h37Zm63-4q0-5.79-3.1-8.6t-10.7-2.8h-12.2q-9.6,0-13.3,3.3t-3.7,10.9v9.8h43Z" class="cls-2" transform="translate(-74.57 -97.41)"/><path d="M212.87,497.8q-9.19,8.61-26,8.6h-73.6q-16.8,0-26-8.6T78.07,473q0-16.19,9.2-24.79t26-8.61h73.6q16.8,0,26,8.61t9.2,24.79Q222.07,489.2,212.87,497.8Zm-24.6-36.2h-76.4q-13.8,0-13.8,11.4t13.8,11.4h76.4q13.8,0,13.8-11.4T188.27,461.6Z" class="cls-2" transform="translate(-74.57 -97.41)"/><path d="M213,417.21q-9.09,8.4-26.1,8.4H80.07v-22h108.4q7.2,0,10.4-2.9c2.14-1.94,3.2-4.7,3.2-8.3s-1.06-6.37-3.2-8.3-5.6-2.9-10.4-2.9H80.07V360h106.8q17,0,26.1,8.4t9.1,24.4Q222.07,408.8,213,417.21Z" class="cls-2" transform="translate(-74.57 -97.41)"/><path d="M100.07,327.21v23h-20v-68h20v23h120v22Z" class="cls-2" transform="translate(-74.57 -97.41)"/><path d="M213,232q-9.09,8.4-26.1,8.4H80.07v-22h108.4q7.2,0,10.4-2.9c2.14-1.93,3.2-4.7,3.2-8.3s-1.06-6.37-3.2-8.3-5.6-2.9-10.4-2.9H80.07v-21.2h106.8q17,0,26.1,8.4t9.1,24.4Q222.07,223.62,213,232Z" class="cls-2" transform="translate(-74.57 -97.41)"/><path d="M213,154.81q-9.09,8.2-26.1,8.2h-8v-20.8h9.6q13.6,0,13.6-11.4,0-5.59-3.3-8.5t-10.7-2.9a29.74,29.74,0,0,0-15.5,4q-6.69,4-16.1,14.8-12,13.6-21.7,19a44.22,44.22,0,0,1-21.9,5.4q-16.59,0-25.7-8.4t-9.1-24.4q0-15.8,9.1-23.9t26.1-8.1h5.8v20.8h-7.2q-7.2,0-10.5,2.8t-3.3,8.2q0,11,13.4,11a26.36,26.36,0,0,0,14.2-4.1q6.6-4.09,16-14.9,12-13.8,21.8-19t23-5.2q17.21,0,26.4,8.5t9.2,24.7Q222.07,146.62,213,154.81Z" class="cls-2" transform="translate(-74.57 -97.41)"/></svg>