<?xml version="1.0" encoding="UTF-8" standalone="no"?>
<svg
   xmlns:dc="http://purl.org/dc/elements/1.1/"
   xmlns:cc="http://creativecommons.org/ns#"
   xmlns:rdf="http://www.w3.org/1999/02/22-rdf-syntax-ns#"
   xmlns:svg="http://www.w3.org/2000/svg"
   xmlns="http://www.w3.org/2000/svg"
   xmlns:sodipodi="http://sodipodi.sourceforge.net/DTD/sodipodi-0.dtd"
   xmlns:inkscape="http://www.inkscape.org/namespaces/inkscape"
   width="1920"
   height="1080"
   viewBox="0 0 507.99999 285.75"
   version="1.1"
   id="svg8"
   sodipodi:docname="error.svg"
   inkscape:version="1.0.1 (3bc2e813f5, 2020-09-07)">
  <defs
     id="defs2">
    <linearGradient
       id="b951b20a-1330-40a2-8498-70064fea6747"
       x1="600"
       y1="847.65997"
       x2="600"
       y2="99"
       gradientUnits="userSpaceOnUse">
      <stop
         offset="0"
         stop-color="#6c63ff"
         id="stop1178" />
      <stop
         offset="1"
         stop-color="#3f3d56"
         id="stop1180" />
    </linearGradient>
    <linearGradient
       id="a09f8209-a7b7-4999-9a81-8afbf160c3ae"
       x1="661.46997"
       y1="455.57999"
       x2="661.46997"
       y2="52.330002"
       gradientTransform="translate(168)"
       gradientUnits="userSpaceOnUse">
      <stop
         offset="0"
         stop-color="gray"
         stop-opacity="0.25"
         id="stop1183" />
      <stop
         offset="0.54"
         stop-color="gray"
         stop-opacity="0.12"
         id="stop1185" />
      <stop
         offset="1"
         stop-color="gray"
         stop-opacity="0.1"
         id="stop1187" />
    </linearGradient>
    <linearGradient
       id="b951b20a-1330-40a2-8498-70064fea6747-7"
       x1="600"
       y1="847.66"
       x2="600"
       y2="99"
       gradientUnits="userSpaceOnUse">
      <stop
         offset="0"
         stop-color="#6c63ff"
         id="stop2397" />
      <stop
         offset="1"
         stop-color="#3f3d56"
         id="stop2399" />
    </linearGradient>
    <linearGradient
       id="a09f8209-a7b7-4999-9a81-8afbf160c3ae-1"
       x1="661.47"
       y1="455.58"
       x2="661.47"
       y2="52.33"
       gradientTransform="translate(168)"
       gradientUnits="userSpaceOnUse">
      <stop
         offset="0"
         stop-color="gray"
         stop-opacity="0.25"
         id="stop2402" />
      <stop
         offset="0.54"
         stop-color="gray"
         stop-opacity="0.12"
         id="stop2404" />
      <stop
         offset="1"
         stop-color="gray"
         stop-opacity="0.1"
         id="stop2406" />
    </linearGradient>
  </defs>
  <sodipodi:namedview
     id="base"
     pagecolor="#ffffff"
     bordercolor="#666666"
     borderopacity="1.0"
     inkscape:pageopacity="0.0"
     inkscape:pageshadow="2"
     inkscape:zoom="0.49497475"
     inkscape:cx="979.24039"
     inkscape:cy="596.97259"
     inkscape:document-units="mm"
     inkscape:current-layer="g2911"
     inkscape:document-rotation="0"
     showgrid="false"
     units="px"
     inkscape:window-width="1920"
     inkscape:window-height="1001"
     inkscape:window-x="-9"
     inkscape:window-y="-9"
     inkscape:window-maximized="1" />
  <metadata
     id="metadata5">
    <rdf:RDF>
      <cc:Work
         rdf:about="">
        <dc:format>image/svg+xml</dc:format>
        <dc:type
           rdf:resource="http://purl.org/dc/dcmitype/StillImage" />
        <dc:title></dc:title>
      </cc:Work>
    </rdf:RDF>
  </metadata>
  <g
     inkscape:label="Layer 1"
     inkscape:groupmode="layer"
     id="layer1">
    <g
       id="g1692"
       transform="matrix(0.41672886,0,0,0.34380665,6.9410631,7.0422845)">
      <g
         id="g2911"
         transform="matrix(1.0214431,0,0,1.0432595,-11.544315,-20.211751)">
        <path
           d="m 1142.29,408.43 q -7,-9.82 -14.87,-19 a 278.6,278.6 0 0 0 -96.83,-72.77 273.46,273.46 0 0 0 -31.27,-11.93 q -11.1,-3.48 -22.58,-6 L 962.3,295.9 a 278.45,278.45 0 0 0 -209.12,49 q -10.77,-1.31 -21.8,-1.75 c -0.28,-0.77 -0.57,-1.54 -0.87,-2.32 q -3.68,-9.74 -7.89,-19.2 a 374.37,374.37 0 0 0 -62.4,-96.88 c -1.18,-1.32 -2.36,-2.64 -3.56,-3.94 A 378,378 0 0 0 600.1,170.24 373.18,373.18 0 0 0 380.86,99 h -0.53 q -8.76,0 -17.41,0.41 l -22.27,1.68 c -1.83,0.19 -3.66,0.39 -5.48,0.62 v 0 l -22.51,3.4 q -8.94,1.62 -17.73,3.69 A 375.19,375.19 0 0 0 91.8,234.85 q -9.48,11.43 -18,23.63 c -2.71,3.86 -5.35,7.75 -7.9,11.71 -1.23,1.9 -2.44,3.8 -3.64,5.72 Q 56.32,285.42 51,295.3 45.33,305.77 40.32,316.62 a 1.42,1.42 0 0 0 -0.08,0.18 370.54,370.54 0 0 0 -24.73,72.49 v 0 q -2.27,9.84 -4,19.86 -0.68,3.84 -1.26,7.7 l -0.12,0.86 c -1,7 -1.89,14 -2.54,21.13 l -0.87,0.08 c 0.07,0.21 0.14,0.42 0.19,0.64 a 6.45,6.45 0 0 0 0.58,0.31 c -0.08,0.91 -0.15,1.82 -0.22,2.72 A 8.61,8.61 0 0 1 7.08,445 Q 6,459 6,473.34 A 372.42,372.42 0 0 0 48.54,646.8 l 0.39,0.74 A 375.84,375.84 0 0 0 168.57,782 372,372 0 0 0 300.7,839.17 l 8.27,1.69 q 17.14,3.32 34.83,5 18,1.74 36.53,1.75 a 376.28,376.28 0 0 0 51.33,-3.5 h 440.39 l 3.58,0.55 a 277.83,277.83 0 0 0 266.66,-436.28 z"
           transform="translate(-6,-52.33)"
           fill="url(#b951b20a-1330-40a2-8498-70064fea6747)"
           id="path2413"
           style="fill:url(#b951b20a-1330-40a2-8498-70064fea6747-7)" />
        <path
           d="m 995,613.28 v 0 c -0.05,-3.27 -0.16,-6.5 -0.34,-9.74 q -0.32,-6.1 -0.89,-12.15 a 274.18,274.18 0 0 0 -5.43,-34 c -0.11,-0.5 -0.23,-1 -0.35,-1.51 q -3,-12.95 -7.17,-25.43 Q 978,522.07 974.67,514 v 0 q -1.18,-2.91 -2.44,-5.75 a 271.5,271.5 0 0 0 -13,-26 v 0 l -0.63,-1.1 c -1.45,-2.52 -3,-5 -4.48,-7.51 v 0 l -0.61,-1 c -0.29,-0.47 -0.58,-0.87 -0.83,-1.32 v -0.06 q -2.94,-4.67 -6.06,-9.19 a 276.24,276.24 0 0 0 -21.3,-27.1 v 0 a 277.85,277.85 0 0 0 -37.09,-34.58 c 0,0 0,0 0,0 -3.33,-2.55 -6.7,-5.05 -10.15,-7.47 0,0 0,0 0,0 A 273.4,273.4 0 0 0 753.3,345.04 q -10.77,-1.31 -21.8,-1.75 c -1.81,-0.08 -3.62,-0.13 -5.43,-0.16 -2,-0.06 -4,-0.07 -6,-0.07 A 278.73,278.73 0 0 0 684.95,345.28 274.07,274.07 0 0 0 627.89,358.9 275.22,275.22 0 0 0 390,222 a 271.16,271.16 0 0 0 -29.36,1.57 c -1.08,0.09 -2.16,0.22 -3.24,0.35 a 273.83,273.83 0 0 0 -39.17,7.55 c -3.82,-6.28 -7.89,-12.43 -12.2,-18.38 -4.31,-5.95 -8.69,-11.59 -13.37,-17.09 q -6,-7 -12.38,-13.62 a 5.55,5.55 0 0 0 -0.42,-0.42 273.79,273.79 0 0 0 -20.94,-19.36 c -3.9,-3.26 -7.89,-6.42 -12,-9.44 q -7.71,-5.76 -15.83,-10.94 -5.7,-3.66 -11.58,-7 A 376.23,376.23 0 0 0 91.8,234.85 q -9.48,11.43 -18,23.63 c -2.71,3.86 -5.35,7.75 -7.9,11.71 -1.23,1.9 -2.44,3.8 -3.64,5.72 Q 56.32,285.42 51,295.3 45.33,305.77 40.32,316.62 a 1.42,1.42 0 0 0 -0.08,0.18 370.54,370.54 0 0 0 -24.73,72.49 v 0 q -2.27,9.84 -4,19.86 -0.68,3.84 -1.26,7.7 l -0.12,0.86 c -1,7 -1.89,14 -2.54,21.13 l -0.87,0.08 c 0.07,0.21 0.14,0.42 0.19,0.64 a 6.45,6.45 0 0 0 0.58,0.31 c -0.08,0.91 -0.15,1.82 -0.22,2.72 A 8.61,8.61 0 0 1 7.08,445 Q 6,459 6,473.34 A 372.42,372.42 0 0 0 48.54,646.8 c 0.33,0.05 0.67,0.1 1,0.13 v 0 a 276.23,276.23 0 0 0 105.21,-7.46 q 4.68,7.72 9.86,15.1 3.83,5.48 7.92,10.74 A 276.34,276.34 0 0 0 255.68,737 c 1.41,0.8 2.84,1.57 4.27,2.34 A 270.73,270.73 0 0 0 300,756.88 q 8,2.79 16.31,5.09 c 0.31,0.08 0.62,0.18 0.93,0.25 a 272.89,272.89 0 0 0 53.13,9 q 9.72,0.71 19.62,0.71 a 278,278 0 0 0 44.34,-3.56 271.65,271.65 0 0 0 27.18,-5.87 v 0 q 10.5,-2.81 20.65,-6.43 2.85,4.89 5.89,9.64 A 271.45,271.45 0 0 0 511,796.67 q 6.29,7.38 13.11,14.29 a 276,276 0 0 0 39.45,33.2 h 308.49 l 3.58,0.55 A 277.57,277.57 0 0 0 915.9,811 274.3,274.3 0 0 0 991,664.69 q 1.37,-8 2.27,-16.06 A 277.48,277.48 0 0 0 995,618 c 0,-1.6 0,-3.16 0,-4.72 z"
           transform="translate(-6,-52.33)"
           fill="#6c63ff"
           opacity="0.3"
           id="path2415" />
        <path
           d="M 1194,569.87 A 278.29,278.29 0 0 1 1054.29,811 H 512.83 q -1,-7.15 -1.81,-14.29 c -0.43,-3.56 -0.83,-7.11 -1.21,-10.67 -0.66,-6.18 -1.24,-12.41 -1.69,-18.69 -2.4,-33.62 -1,-68 12.4,-98.09 a 118.7,118.7 0 0 1 5.68,-11.26 124.72,124.72 0 0 1 10.45,-15.37 139.73,139.73 0 0 1 11,-12.23 166.74,166.74 0 0 1 16.71,-14.4 c 2.81,-2.13 5.7,-4.2 8.64,-6.19 l 0.54,-0.36 c 15.07,-10.14 31.65,-18.44 48.35,-25.52 l 3.46,-1.44 0.9,-0.37 c 1.63,-0.68 3.26,-1.33 4.89,-2 l 0.65,-0.26 q 13.21,-5.26 26.61,-9.76 22.76,-7.67 46.17,-13.19 5.82,-1.38 11.68,-2.61 5.67,-1.21 11.37,-2.28 12.61,-2.4 25.32,-4.16 c 0.88,-0.12 1.75,-0.24 2.63,-0.34 l 5.54,-0.73 1,-0.12 c 1.59,-0.2 3.19,-0.38 4.79,-0.56 6.53,-0.75 13.07,-1.39 19.61,-2 0,0 0,0 0,0 0.26,0 0.51,0 0.76,-0.09 h 0.06 q 10.39,-0.88 20.8,-1.64 l 4.86,-0.36 4,-0.28 q 11.88,-0.84 23.76,-1.68 c 6.42,-0.49 12.83,-1 19.24,-1.57 1.09,-0.09 2.17,-0.18 3.26,-0.29 l 2.21,-0.21 a 4.07,4.07 0 0 0 0.6,-0.06 h 0.28 l 3.71,-0.37 a 1.66,1.66 0 0 1 0.22,0 v 0 c 1.07,-0.1 2.12,-0.21 3.18,-0.33 8.5,-0.88 17,-1.92 25.44,-3.19 l 2.58,-0.38 a 363.89,363.89 0 0 0 43.37,-9.38 q 4.88,-1.39 9.7,-2.94 5.53,-1.79 11,-3.8 l 1.54,-0.57 c 2.54,-1 5.06,-2 7.56,-3 v 0 c 3.64,-1.5 7.24,-3.11 10.78,-4.8 l 0.46,-0.21 q 6.32,-3 12.4,-6.44 c 1.88,-1.06 3.75,-2.16 5.59,-3.29 a 177.11,177.11 0 0 0 26.26,-19.32 c 0.62,-0.56 1.23,-1.11 1.83,-1.67 l 0.2,-0.18 a 273.09,273.09 0 0 0 22.42,-24 c 9.94,-11.68 19.56,-23.69 30.53,-34.38 q 4.8,-4.68 10,-9 c 4,-3.3 8.08,-6.41 12.32,-9.33 l 0.63,-0.44 a 181.25,181.25 0 0 1 19.36,-11.57 q 7.85,9.17 14.87,19 A 276.44,276.44 0 0 1 1194,569.87 Z"
           transform="translate(-6,-52.33)"
           fill="#6c63ff"
           id="path2417" />
        <path
           d="M 1194,569.87 A 278.29,278.29 0 0 1 1054.29,811 H 512.83 q -1,-7.15 -1.81,-14.29 c -0.43,-3.56 -0.83,-7.11 -1.21,-10.67 -0.66,-6.18 -1.24,-12.41 -1.69,-18.69 -2.4,-33.62 -1,-68 12.4,-98.09 a 118.7,118.7 0 0 1 5.68,-11.26 124.72,124.72 0 0 1 10.45,-15.37 139.73,139.73 0 0 1 11,-12.23 166.74,166.74 0 0 1 16.71,-14.4 c 2.81,-2.13 5.7,-4.2 8.64,-6.19 l 0.54,-0.36 c 15.07,-10.14 31.65,-18.44 48.35,-25.52 l 3.46,-1.44 0.9,-0.37 c 1.63,-0.68 3.26,-1.33 4.89,-2 l 0.65,-0.26 q 13.21,-5.26 26.61,-9.76 22.76,-7.67 46.17,-13.19 5.82,-1.38 11.68,-2.61 5.67,-1.21 11.37,-2.28 12.61,-2.4 25.32,-4.16 c 0.88,-0.12 1.75,-0.24 2.63,-0.34 l 5.54,-0.73 1,-0.12 c 1.59,-0.2 3.19,-0.38 4.79,-0.56 6.53,-0.75 13.07,-1.39 19.61,-2 0,0 0,0 0,0 0.26,0 0.51,0 0.76,-0.09 h 0.06 q 10.39,-0.88 20.8,-1.64 l 4.86,-0.36 4,-0.28 q 11.88,-0.84 23.76,-1.68 c 6.42,-0.49 12.83,-1 19.24,-1.57 1.09,-0.09 2.17,-0.18 3.26,-0.29 l 2.21,-0.21 a 4.07,4.07 0 0 0 0.6,-0.06 h 0.28 l 3.71,-0.37 a 1.66,1.66 0 0 1 0.22,0 v 0 c 1.07,-0.1 2.12,-0.21 3.18,-0.33 8.5,-0.88 17,-1.92 25.44,-3.19 l 2.58,-0.38 a 363.89,363.89 0 0 0 43.37,-9.38 q 4.88,-1.39 9.7,-2.94 5.53,-1.79 11,-3.8 l 1.54,-0.57 c 2.54,-1 5.06,-2 7.56,-3 v 0 c 3.64,-1.5 7.24,-3.11 10.78,-4.8 l 0.46,-0.21 q 6.32,-3 12.4,-6.44 c 1.88,-1.06 3.75,-2.16 5.59,-3.29 a 177.11,177.11 0 0 0 26.26,-19.32 c 0.62,-0.56 1.23,-1.11 1.83,-1.67 l 0.2,-0.18 a 273.09,273.09 0 0 0 22.42,-24 c 9.94,-11.68 19.56,-23.69 30.53,-34.38 q 4.8,-4.68 10,-9 c 4,-3.3 8.08,-6.41 12.32,-9.33 l 0.63,-0.44 a 181.25,181.25 0 0 1 19.36,-11.57 q 7.85,9.17 14.87,19 A 276.44,276.44 0 0 1 1194,569.87 Z"
           transform="translate(-6,-52.33)"
           opacity="0.2"
           id="path2419" />
        <ellipse
           cx="197.28999"
           cy="504.78"
           rx="5.4099998"
           ry="7.0900002"
           fill="#3f3d56"
           id="ellipse2421" />
        <ellipse
           cx="197.28999"
           cy="496.12"
           rx="5.4099998"
           ry="7.0900002"
           fill="#3f3d56"
           id="ellipse2423" />
        <ellipse
           cx="197.28999"
           cy="487.45999"
           rx="5.4099998"
           ry="7.0900002"
           fill="#3f3d56"
           id="ellipse2425" />
        <ellipse
           cx="197.28999"
           cy="478.79999"
           rx="5.4099998"
           ry="7.0900002"
           fill="#3f3d56"
           id="ellipse2427" />
        <ellipse
           cx="197.28999"
           cy="470.14001"
           rx="5.4099998"
           ry="7.0900002"
           fill="#3f3d56"
           id="ellipse2429" />
        <ellipse
           cx="197.28999"
           cy="461.48001"
           rx="5.4099998"
           ry="7.0900002"
           fill="#3f3d56"
           id="ellipse2431" />
        <ellipse
           cx="197.28999"
           cy="452.82001"
           rx="5.4099998"
           ry="7.0900002"
           fill="#3f3d56"
           id="ellipse2433" />
        <path
           d="m 223.55,445.88 a 26.3,26.3 0 0 0 2,-3 l -14.22,-2.33 15.38,0.11 a 26,26 0 0 0 0.49,-20.54 l -20.64,10.7 19,-14 a 25.93,25.93 0 1 0 -42.83,29 25.91,25.91 0 0 0 -3,4.73 l 18.47,9.59 -19.69,-6.61 a 25.93,25.93 0 0 0 4.18,24.35 25.93,25.93 0 1 0 40.76,0 25.92,25.92 0 0 0 0,-32.06 z"
           transform="translate(-6,-52.33)"
           fill="#6c63ff"
           id="path2435" />
        <path
           d="m 177.24,461.91 a 25.85,25.85 0 0 0 5.55,16 25.93,25.93 0 1 0 40.76,0 c 3.45,-4.38 -46.31,-18.91 -46.31,-16 z"
           transform="translate(-6,-52.33)"
           opacity="0.03"
           id="path2437" />
        <ellipse
           cx="254.28999"
           cy="527.78003"
           rx="5.4099998"
           ry="7.0900002"
           fill="#3f3d56"
           id="ellipse2439" />
        <ellipse
           cx="254.28999"
           cy="519.12"
           rx="5.4099998"
           ry="7.0900002"
           fill="#3f3d56"
           id="ellipse2441" />
        <ellipse
           cx="254.28999"
           cy="510.45999"
           rx="5.4099998"
           ry="7.0900002"
           fill="#3f3d56"
           id="ellipse2443" />
        <ellipse
           cx="254.28999"
           cy="501.79999"
           rx="5.4099998"
           ry="7.0900002"
           fill="#3f3d56"
           id="ellipse2445" />
        <ellipse
           cx="254.28999"
           cy="493.14001"
           rx="5.4099998"
           ry="7.0900002"
           fill="#3f3d56"
           id="ellipse2447" />
        <ellipse
           cx="254.28999"
           cy="484.48001"
           rx="5.4099998"
           ry="7.0900002"
           fill="#3f3d56"
           id="ellipse2449" />
        <ellipse
           cx="254.28999"
           cy="475.82001"
           rx="5.4099998"
           ry="7.0900002"
           fill="#3f3d56"
           id="ellipse2451" />
        <path
           d="m 280.55,468.88 a 26.3,26.3 0 0 0 2,-3 l -14.22,-2.33 15.38,0.11 a 26,26 0 0 0 0.49,-20.54 l -20.64,10.7 19,-14 a 25.93,25.93 0 1 0 -42.83,29 25.91,25.91 0 0 0 -3,4.73 l 18.47,9.59 -19.69,-6.61 a 25.93,25.93 0 0 0 4.18,24.35 25.93,25.93 0 1 0 40.76,0 25.92,25.92 0 0 0 0,-32.06 z"
           transform="translate(-6,-52.33)"
           fill="#6c63ff"
           id="path2453" />
        <path
           d="m 234.24,484.91 a 25.85,25.85 0 0 0 5.55,16 25.93,25.93 0 1 0 40.76,0 c 3.45,-4.38 -46.31,-18.91 -46.31,-16 z"
           transform="translate(-6,-52.33)"
           opacity="0.03"
           id="path2455" />
        <ellipse
           cx="621.28998"
           cy="548.78003"
           rx="5.4099998"
           ry="7.0900002"
           fill="#3f3d56"
           id="ellipse2457" />
        <ellipse
           cx="621.28998"
           cy="540.12"
           rx="5.4099998"
           ry="7.0900002"
           fill="#3f3d56"
           id="ellipse2459" />
        <ellipse
           cx="621.28998"
           cy="531.46002"
           rx="5.4099998"
           ry="7.0900002"
           fill="#3f3d56"
           id="ellipse2461" />
        <ellipse
           cx="621.28998"
           cy="522.79999"
           rx="5.4099998"
           ry="7.0900002"
           fill="#3f3d56"
           id="ellipse2463" />
        <ellipse
           cx="621.28998"
           cy="514.14001"
           rx="5.4099998"
           ry="7.0900002"
           fill="#3f3d56"
           id="ellipse2465" />
        <ellipse
           cx="621.28998"
           cy="505.48001"
           rx="5.4099998"
           ry="7.0900002"
           fill="#3f3d56"
           id="ellipse2467" />
        <ellipse
           cx="621.28998"
           cy="496.82001"
           rx="5.4099998"
           ry="7.0900002"
           fill="#3f3d56"
           id="ellipse2469" />
        <path
           d="m 647.55,489.88 a 26.3,26.3 0 0 0 2,-3 l -14.22,-2.33 15.38,0.11 a 26,26 0 0 0 0.49,-20.54 l -20.64,10.7 19,-14 a 25.93,25.93 0 1 0 -42.83,29 25.91,25.91 0 0 0 -3,4.73 l 18.47,9.59 -19.69,-6.61 a 25.93,25.93 0 0 0 4.18,24.35 25.93,25.93 0 1 0 40.76,0 25.92,25.92 0 0 0 0,-32.06 z"
           transform="translate(-6,-52.33)"
           fill="#6c63ff"
           id="path2471" />
        <path
           d="m 601.24,505.91 a 25.85,25.85 0 0 0 5.55,16 25.93,25.93 0 1 0 40.76,0 c 3.45,-4.38 -46.31,-18.91 -46.31,-16 z"
           transform="translate(-6,-52.33)"
           opacity="0.03"
           id="path2473" />
        <ellipse
           cx="678.28998"
           cy="583.78003"
           rx="5.4099998"
           ry="7.0900002"
           fill="#3f3d56"
           id="ellipse2475" />
        <ellipse
           cx="678.28998"
           cy="575.12"
           rx="5.4099998"
           ry="7.0900002"
           fill="#3f3d56"
           id="ellipse2477" />
        <ellipse
           cx="678.28998"
           cy="566.46002"
           rx="5.4099998"
           ry="7.0900002"
           fill="#3f3d56"
           id="ellipse2479" />
        <ellipse
           cx="678.28998"
           cy="557.79999"
           rx="5.4099998"
           ry="7.0900002"
           fill="#3f3d56"
           id="ellipse2481" />
        <ellipse
           cx="678.28998"
           cy="549.14001"
           rx="5.4099998"
           ry="7.0900002"
           fill="#3f3d56"
           id="ellipse2483" />
        <ellipse
           cx="678.28998"
           cy="540.47998"
           rx="5.4099998"
           ry="7.0900002"
           fill="#3f3d56"
           id="ellipse2485" />
        <ellipse
           cx="678.28998"
           cy="531.82001"
           rx="5.4099998"
           ry="7.0900002"
           fill="#3f3d56"
           id="ellipse2487" />
        <path
           d="m 704.55,524.88 a 26.3,26.3 0 0 0 2,-3 l -14.22,-2.33 15.38,0.11 a 26,26 0 0 0 0.49,-20.54 l -20.64,10.7 19,-14 a 25.93,25.93 0 1 0 -42.83,29 25.91,25.91 0 0 0 -3,4.73 l 18.47,9.59 -19.69,-6.61 a 25.93,25.93 0 0 0 4.18,24.35 25.93,25.93 0 1 0 40.76,0 25.92,25.92 0 0 0 0,-32.06 z"
           transform="translate(-6,-52.33)"
           fill="#6c63ff"
           id="path2489" />
        <path
           d="m 658.24,540.91 a 25.85,25.85 0 0 0 5.55,16 25.93,25.93 0 1 0 40.76,0 c 3.45,-4.38 -46.31,-18.91 -46.31,-16 z"
           transform="translate(-6,-52.33)"
           opacity="0.03"
           id="path2491" />
        <ellipse
           cx="736.28998"
           cy="628.78003"
           rx="5.4099998"
           ry="7.0900002"
           fill="#3f3d56"
           id="ellipse2493" />
        <ellipse
           cx="736.28998"
           cy="620.12"
           rx="5.4099998"
           ry="7.0900002"
           fill="#3f3d56"
           id="ellipse2495" />
        <ellipse
           cx="736.28998"
           cy="611.46002"
           rx="5.4099998"
           ry="7.0900002"
           fill="#3f3d56"
           id="ellipse2497" />
        <ellipse
           cx="736.28998"
           cy="602.79999"
           rx="5.4099998"
           ry="7.0900002"
           fill="#3f3d56"
           id="ellipse2499" />
        <ellipse
           cx="736.28998"
           cy="594.14001"
           rx="5.4099998"
           ry="7.0900002"
           fill="#3f3d56"
           id="ellipse2501" />
        <ellipse
           cx="736.28998"
           cy="585.47998"
           rx="5.4099998"
           ry="7.0900002"
           fill="#3f3d56"
           id="ellipse2503" />
        <ellipse
           cx="736.28998"
           cy="576.82001"
           rx="5.4099998"
           ry="7.0900002"
           fill="#3f3d56"
           id="ellipse2505" />
        <path
           d="m 762.55,569.88 a 26.3,26.3 0 0 0 2,-3 l -14.22,-2.33 15.38,0.11 a 26,26 0 0 0 0.49,-20.54 l -20.64,10.7 19,-14 a 25.93,25.93 0 1 0 -42.83,29 25.91,25.91 0 0 0 -3,4.73 l 18.47,9.59 -19.69,-6.61 a 25.93,25.93 0 0 0 4.18,24.35 25.93,25.93 0 1 0 40.76,0 25.92,25.92 0 0 0 0,-32.06 z"
           transform="translate(-6,-52.33)"
           fill="#6c63ff"
           id="path2507" />
        <path
           d="m 716.24,585.91 a 25.85,25.85 0 0 0 5.55,16 25.93,25.93 0 1 0 40.76,0 c 3.45,-4.38 -46.31,-18.91 -46.31,-16 z"
           transform="translate(-6,-52.33)"
           opacity="0.03"
           id="path2509" />
        <ellipse
           cx="781.28998"
           cy="550.78003"
           rx="5.4099998"
           ry="7.0900002"
           fill="#3f3d56"
           id="ellipse2511" />
        <ellipse
           cx="781.28998"
           cy="542.12"
           rx="5.4099998"
           ry="7.0900002"
           fill="#3f3d56"
           id="ellipse2513" />
        <ellipse
           cx="781.28998"
           cy="533.46002"
           rx="5.4099998"
           ry="7.0900002"
           fill="#3f3d56"
           id="ellipse2515" />
        <ellipse
           cx="781.28998"
           cy="524.79999"
           rx="5.4099998"
           ry="7.0900002"
           fill="#3f3d56"
           id="ellipse2517" />
        <ellipse
           cx="781.28998"
           cy="516.14001"
           rx="5.4099998"
           ry="7.0900002"
           fill="#3f3d56"
           id="ellipse2519" />
        <ellipse
           cx="781.28998"
           cy="507.48001"
           rx="5.4099998"
           ry="7.0900002"
           fill="#3f3d56"
           id="ellipse2521" />
        <ellipse
           cx="781.28998"
           cy="498.82001"
           rx="5.4099998"
           ry="7.0900002"
           fill="#3f3d56"
           id="ellipse2523" />
        <path
           d="m 807.55,491.88 a 26.3,26.3 0 0 0 2,-3 l -14.22,-2.33 15.38,0.11 a 26,26 0 0 0 0.49,-20.54 l -20.64,10.7 19,-14 a 25.93,25.93 0 1 0 -42.83,29 25.91,25.91 0 0 0 -3,4.73 l 18.47,9.59 -19.69,-6.61 a 25.93,25.93 0 0 0 4.18,24.35 25.93,25.93 0 1 0 40.76,0 25.92,25.92 0 0 0 0,-32.06 z"
           transform="translate(-6,-52.33)"
           fill="#6c63ff"
           id="path2525" />
        <path
           d="m 761.24,507.91 a 25.85,25.85 0 0 0 5.55,16 25.93,25.93 0 1 0 40.76,0 c 3.45,-4.38 -46.31,-18.91 -46.31,-16 z"
           transform="translate(-6,-52.33)"
           opacity="0.03"
           id="path2527" />
        <ellipse
           cx="1112.29"
           cy="441.78"
           rx="5.4099998"
           ry="7.0900002"
           fill="#3f3d56"
           id="ellipse2529" />
        <ellipse
           cx="1112.29"
           cy="433.12"
           rx="5.4099998"
           ry="7.0900002"
           fill="#3f3d56"
           id="ellipse2531" />
        <ellipse
           cx="1112.29"
           cy="424.45999"
           rx="5.4099998"
           ry="7.0900002"
           fill="#3f3d56"
           id="ellipse2533" />
        <ellipse
           cx="1112.29"
           cy="415.79999"
           rx="5.4099998"
           ry="7.0900002"
           fill="#3f3d56"
           id="ellipse2535" />
        <ellipse
           cx="1112.29"
           cy="407.14001"
           rx="5.4099998"
           ry="7.0900002"
           fill="#3f3d56"
           id="ellipse2537" />
        <ellipse
           cx="1112.29"
           cy="398.48001"
           rx="5.4099998"
           ry="7.0900002"
           fill="#3f3d56"
           id="ellipse2539" />
        <ellipse
           cx="1112.29"
           cy="389.82001"
           rx="5.4099998"
           ry="7.0900002"
           fill="#3f3d56"
           id="ellipse2541" />
        <path
           d="m 1144.1,431 c 0,0.39 0,0.8 0,1.18 0,0.38 0,0.51 0,0.76 0,0.25 0,0.38 0,0.57 0,0.19 0,0.31 0,0.46 0,0.15 -0.07,0.55 -0.11,0.83 0,0.11 0,0.22 0,0.34 0,0.3 -0.1,0.57 -0.16,0.86 a 4.91,4.91 0 0 1 -0.1,0.5 c -0.07,0.37 -0.16,0.72 -0.26,1.08 -0.1,0.36 -0.19,0.73 -0.3,1.07 a 21.41,21.41 0 0 1 -0.89,2.44 c -0.16,0.4 -0.33,0.78 -0.52,1.16 -0.19,0.38 -0.34,0.69 -0.52,1 -0.18,0.31 -0.29,0.54 -0.44,0.8 -0.15,0.26 -0.3,0.5 -0.47,0.75 -0.17,0.25 -0.12,0.2 -0.19,0.31 -0.07,0.11 -0.28,0.43 -0.42,0.63 -0.14,0.2 -0.09,0.13 -0.15,0.2 -0.17,0.26 -0.36,0.52 -0.56,0.77 a 26.1,26.1 0 0 1 -3.31,3.59 c -0.26,0.24 -0.52,0.46 -0.79,0.68 l -0.09,0.07 -0.71,0.57 -0.38,0.27 c -0.23,0.18 -0.48,0.35 -0.72,0.51 a 24.37,24.37 0 0 1 -3.58,2.05 8.94,8.94 0 0 1 -1,0.43 c -0.32,0.14 -0.64,0.27 -1,0.38 -0.36,0.11 -0.41,0.17 -0.62,0.23 l -0.36,0.13 -1,0.28 -1,0.27 a 2.57,2.57 0 0 1 -0.38,0.08 l -0.85,0.18 c -0.62,0.13 -1.24,0.24 -1.87,0.31 h -0.1 c -0.22,0 -0.45,0.06 -0.67,0.07 a 6.83,6.83 0 0 1 -0.78,0.06 h -0.51 c -0.35,0 -0.71,0 -1.07,0 -0.36,0 -0.7,0 -1,0 h -0.39 a 6.48,6.48 0 0 1 -0.77,-0.06 4.62,4.62 0 0 1 -0.64,-0.06 v 0 c -0.65,-0.07 -1.29,-0.15 -1.92,-0.28 -0.34,-0.06 -0.67,-0.14 -1,-0.22 a 0.59,0.59 0 0 1 -0.22,-0.05 26.17,26.17 0 0 1 -4.1,-1.33 22.52,22.52 0 0 1 -2.1,-1 c -0.32,-0.17 -0.65,-0.35 -1,-0.54 l -0.7,-0.43 c -0.46,-0.28 -0.91,-0.59 -1.35,-0.91 -0.18,-0.13 -0.36,-0.26 -0.54,-0.41 a 3.8,3.8 0 0 1 -0.38,-0.29 c -0.19,-0.16 -0.38,-0.3 -0.57,-0.47 a 0.47,0.47 0 0 1 -0.15,-0.13 c -0.25,-0.2 -0.49,-0.43 -0.73,-0.64 a 25.91,25.91 0 0 1 -2.29,-2.4 c -0.24,-0.28 -0.47,-0.57 -0.69,-0.85 -0.22,-0.28 -0.32,-0.42 -0.46,-0.63 -0.14,-0.21 -0.24,-0.33 -0.35,-0.49 -0.11,-0.16 -0.31,-0.45 -0.46,-0.69 -0.15,-0.24 -0.37,-0.6 -0.55,-0.9 -0.36,-0.6 -0.69,-1.22 -1,-1.85 -0.14,-0.29 -0.27,-0.57 -0.39,-0.87 -0.23,-0.5 -0.44,-1 -0.63,-1.57 -0.14,-0.36 -0.26,-0.73 -0.37,-1.1 -0.11,-0.37 -0.24,-0.8 -0.34,-1.21 a 0.08,0.08 0 0 1 0,-0.05 c -0.09,-0.36 -0.18,-0.73 -0.25,-1.08 -0.07,-0.35 -0.13,-0.62 -0.17,-0.93 -0.04,-0.31 -0.1,-0.56 -0.14,-0.84 a 1.5,1.5 0 0 1 0,-0.22 c -0.06,-0.33 -0.09,-0.68 -0.12,-1 -0.03,-0.32 -0.07,-0.78 -0.08,-1.16 -0.01,-0.38 0,-0.79 0,-1.19 a 25.85,25.85 0 0 1 5.55,-16 c -0.44,-0.56 -0.86,-1.13 -1.24,-1.72 -0.13,-0.19 -0.25,-0.37 -0.36,-0.56 -0.11,-0.19 -0.33,-0.54 -0.48,-0.81 -0.15,-0.27 -0.37,-0.64 -0.55,-1 a 0.41,0.41 0 0 1 -0.05,-0.09 22.28,22.28 0 0 1 -0.94,-2 c -0.1,-0.24 -0.19,-0.47 -0.28,-0.7 -0.25,-0.67 -0.47,-1.34 -0.67,-2 a 23.08,23.08 0 0 1 -0.55,-2.39 c -0.05,-0.24 -0.09,-0.49 -0.12,-0.73 a 0.11,0.11 0 0 1 0,-0.06 c 0,-0.24 -0.08,-0.47 -0.11,-0.71 -0.07,-0.57 -0.12,-1.16 -0.15,-1.75 0,-0.17 0,-0.33 0,-0.5 0,-0.32 0,-0.63 0,-0.94 a 26,26 0 0 1 1.37,-8.31 l 19.69,6.61 -18.47,-9.61 a 26.17,26.17 0 0 1 3,-4.72 26,26 0 0 1 -3.48,-26.2 279.07,279.07 0 0 1 33.11,32.75 q 7.85,9.17 14.87,19 a 25.55,25.55 0 0 1 -3.66,6.41 l -0.08,0.1 a 25.79,25.79 0 0 1 5.33,15.91 z"
           transform="translate(-6,-52.33)"
           fill="#6c63ff"
           id="path2543" />
        <path
           d="m 1092.24,398.91 a 25.85,25.85 0 0 0 5.55,16 25.93,25.93 0 1 0 40.76,0 c 3.45,-4.38 -46.31,-18.91 -46.31,-16 z"
           transform="translate(-6,-52.33)"
           opacity="0.03"
           id="path2545" />
        <path
           d="m 660.22,224.79 q -17.22,5.76 -34.82,10.31 15.61,-7.31 31.26,-14.25 c 1.2,1.3 2.34,2.62 3.56,3.94 z"
           transform="translate(-6,-52.33)"
           fill="#6c63ff"
           opacity="0.3"
           id="path2547" />
        <path
           d="m 362.92,99.42 q 8.65,-0.42 17.41,-0.41 h 0.53 c -7.12,4.69 -14.28,9.19 -21.49,13.41 -1.81,1 -3.62,2.1 -5.44,3.11 q -2.06,1.17 -4.12,2.29 -16.24,8.85 -32.7,17.21 -12.5,6.34 -25.09,12.38 -16.45,7.88 -33.1,15.19 C 232,174.39 204.84,185 177.4,194.11 q 34.75,-21 69.55,-41 24.65,-14.11 49.36,-27.8 2.69,-1.5 5.37,-3 18.06,-10 36.18,-19.74 l 2.79,-1.51 z"
           transform="translate(-6,-52.33)"
           fill="#6c63ff"
           opacity="0.3"
           id="path2549" />
        <path
           d="m 734.83,811 c -0.18,-24.58 -3.56,-48.81 -13.35,-70.74 A 118.7,118.7 0 0 0 715.8,729 124.6,124.6 0 0 0 705.51,713.84 133.22,133.22 0 0 0 696.08,703.13 171.54,171.54 0 0 0 669,680.79 c -16.25,-11 -34.28,-19.86 -52.35,-27.32 a 518,518 0 0 0 -69,-23 q -4.18,-1.06 -8.39,-2.08 c -0.87,-0.22 -1.74,-0.42 -2.62,-0.63 l -2.83,-0.65 v 0 c -1.62,-0.38 -3.22,-0.73 -4.84,-1.09 q -7.24,-1.59 -14.52,-3 -12.61,-2.4 -25.32,-4.16 c -18.32,-2.52 -36.76,-4.09 -55.21,-5.44 l -8.89,-0.64 v 0 q -11.88,-0.84 -23.76,-1.68 c -7.93,-0.6 -15.85,-1.23 -23.76,-2 l -1.91,-0.1 -3.71,-0.37 c -3.28,-0.34 -6.57,-0.68 -9.85,-1.06 q -9.51,-1.08 -19,-2.49 -10.55,-1.57 -21.06,-3.7 l -1.15,-0.24 c -1.86,-0.38 -3.72,-0.79 -5.57,-1.2 -1.1,-0.24 -2.19,-0.49 -3.28,-0.75 q -10.08,-2.37 -20,-5.36 a 260.19,260.19 0 0 1 -27.17,-9.87 q -4.43,-1.89 -8.76,-4 l -1.18,-0.59 a 185.54,185.54 0 0 1 -45.1,-30.31 l -1.13,-1 -2.4,-2.3 c -1.41,-1.37 -2.79,-2.78 -4.15,-4.19 -1.36,-1.41 -2.63,-2.75 -3.93,-4.15 -7.55,-8.17 -14.61,-16.83 -21.83,-25.34 -6.25,-7.35 -12.61,-14.58 -19.51,-21.32 -1.27,-1.24 -2.56,-2.44 -3.87,-3.63 A 169.64,169.64 0 0 0 133.94,472 c -0.94,-0.65 -1.89,-1.28 -2.84,-1.9 q -5.62,-3.72 -11.53,-7 c -3.85,-2.14 -7.79,-4.14 -11.79,-6 q -8,-3.72 -16.27,-6.69 A 204.16,204.16 0 0 0 62.9,442.48 206.59,206.59 0 0 0 20.21,438.3 v 0 c -4.22,0.05 -8.44,0.22 -12.63,0.55 l -0.87,0.08 c 0.07,0.21 0.14,0.42 0.19,0.64 a 6.45,6.45 0 0 0 0.58,0.31 C 7.4,440.79 7.33,441.7 7.26,442.6 A 8.61,8.61 0 0 1 7.08,445 Q 6,459 6,473.34 A 372.42,372.42 0 0 0 48.54,646.8 l 0.39,0.74 A 375.84,375.84 0 0 0 168.57,782 372,372 0 0 0 300.7,839.17 l 8.27,1.69 q 17.14,3.32 34.83,5 18,1.74 36.53,1.75 a 376.28,376.28 0 0 0 51.33,-3.5 h 301.76 c 0.92,-10.96 1.49,-22.11 1.41,-33.11 z"
           transform="translate(-6,-52.33)"
           fill="#3f3d56"
           id="path2553" />
        <path
           d="m 580.05,178.47 a 18.21,18.21 0 0 0 -10.55,1.15 15.54,15.54 0 0 1 -12.65,0 17.76,17.76 0 0 0 -14.89,0.29 9.3,9.3 0 0 1 -4.29,1.07 c -6,0 -11.06,-6.08 -12.1,-14.1 a 11.45,11.45 0 0 0 3,-3.25 c 3.53,-5.7 9,-9.36 15.17,-9.36 6.17,0 11.57,3.61 15.11,9.25 a 11.63,11.63 0 0 0 10,5.51 H 569 c 4.86,-0.03 9,3.82 11.05,9.44 z"
           transform="translate(-6,-52.33)"
           fill="#6c63ff"
           opacity="0.1"
           id="path2555" />
        <path
           d="m 600.1,170.28 c -1.83,6.29 -6.25,10.74 -11.4,10.74 a 9.21,9.21 0 0 1 -4.24,-1.05 17.76,17.76 0 0 0 -14.76,-0.29 15.68,15.68 0 0 1 -6.3,1.34 15.48,15.48 0 0 1 -4.84,-0.79 c -0.26,-0.07 -0.53,-0.18 -0.79,-0.27 -0.26,-0.09 -0.49,-0.19 -0.73,-0.3 a 0.49,0.49 0 0 0 -0.19,-0.07 7.52,7.52 0 0 0 -0.78,-0.32 c -0.25,-0.1 -0.5,-0.18 -0.75,-0.27 a 17.68,17.68 0 0 0 -13.17,0.94 9.27,9.27 0 0 1 -4.28,1.08 8.39,8.39 0 0 1 -2.4,-0.35 c -0.11,0 -0.21,-0.06 -0.32,-0.08 -0.11,-0.02 -0.24,-0.07 -0.36,-0.12 -4.65,-1.67 -8.23,-7.06 -9,-13.75 a 23.08,23.08 0 0 1 -0.18,-2.91 c 0,-9.51 5.5,-17.21 12.3,-17.21 h 0.33 a 11.35,11.35 0 0 0 10,-5.4 18,18 0 0 1 1.29,-1.86 374.17,374.17 0 0 1 50.57,30.94 z"
           transform="translate(-6,-52.33)"
           fill="#6c63ff"
           opacity="0.1"
           id="path2557" />
        <path
           d="M 77.05,315.82 A 17.64,17.64 0 0 0 73.56,315.5 17.89,17.89 0 0 0 66.5,317 c -0.22,0.09 -0.44,0.19 -0.67,0.27 a 15.46,15.46 0 0 1 -5.62,1.06 15.74,15.74 0 0 1 -4.65,-0.71 c -0.26,-0.09 -0.53,-0.18 -0.79,-0.29 -0.26,-0.11 -0.62,-0.23 -0.92,-0.37 l -0.78,-0.32 -0.75,-0.26 a 17.86,17.86 0 0 0 -12,0.27 q 5,-10.86 10.68,-21.32 a 21.78,21.78 0 0 1 4.9,5.55 11.66,11.66 0 0 0 10,5.5 h 0.15 a 8.85,8.85 0 0 1 1.71,0.17 9.86,9.86 0 0 1 3,1.11 c 0,0 0,0 0,0 a 15.21,15.21 0 0 1 6.29,8.16 z"
           transform="translate(-6,-52.33)"
           fill="#6c63ff"
           opacity="0.1"
           id="path2559" />
        <path
           d="m 98,301.16 c 0,9.5 -5.51,17.2 -12.3,17.2 a 9.21,9.21 0 0 1 -4.24,-1.05 16.76,16.76 0 0 0 -7.85,-1.74 18,18 0 0 0 -6.91,1.43 c -0.31,0.13 -0.61,0.26 -0.93,0.37 a 15.38,15.38 0 0 1 -5.37,1 15.65,15.65 0 0 1 -4.26,-0.59 l -0.58,-0.18 c -0.26,-0.09 -0.53,-0.18 -0.79,-0.29 A 7.49,7.49 0 0 1 54,317 l -0.19,-0.07 c -0.26,-0.12 -0.51,-0.21 -0.78,-0.32 l -0.75,-0.26 -0.69,-0.2 a 17.71,17.71 0 0 0 -11.42,0.65 1.42,1.42 0 0 1 0.08,-0.18 q 5,-10.86 10.68,-21.32 5.34,-9.87 11.26,-19.39 c 1.2,-1.92 2.41,-3.82 3.64,-5.72 a 18.8,18.8 0 0 1 7.79,5.71 l -3.73,6.78 5.91,-3.75 a 11.69,11.69 0 0 0 5.79,4.39 l -1.42,2.59 3.31,-2.11 a 11.31,11.31 0 0 0 2,0.16 h 0.16 a 9.64,9.64 0 0 1 5.9,2.1 l -4,7.35 -1.88,3.43 8,-5.06 1.78,-1.13 a 9,9 0 0 1 0.45,0.88 22.07,22.07 0 0 1 2.11,9.63 z"
           transform="translate(-6,-52.33)"
           fill="#6c63ff"
           opacity="0.1"
           id="path2561" />
        <ellipse
           cx="988.81"
           cy="549.5"
           rx="35.790001"
           ry="46.849998"
           fill="#2f2e41"
           id="ellipse2563" />
        <ellipse
           cx="988.81"
           cy="492.23001"
           rx="35.790001"
           ry="46.849998"
           fill="#2f2e41"
           id="ellipse2565" />
        <ellipse
           cx="988.81"
           cy="434.97"
           rx="35.790001"
           ry="46.849998"
           fill="#2f2e41"
           id="ellipse2567" />
        <ellipse
           cx="988.81"
           cy="377.70999"
           rx="35.790001"
           ry="46.849998"
           fill="#2f2e41"
           id="ellipse2569" />
        <ellipse
           cx="988.81"
           cy="320.44"
           rx="35.790001"
           ry="46.849998"
           fill="#2f2e41"
           id="ellipse2571" />
        <path
           d="m 962.3,295.9 a 58.94,58.94 0 0 0 -3.3,19.62 56.47,56.47 0 0 0 7.46,28.63 c 6.54,11.08 16.8,18.22 28.33,18.22 11.53,0 21.78,-7.14 28.33,-18.22 a 56.29,56.29 0 0 0 7.45,-27.49 273.41,273.41 0 0 0 -31.27,-11.92 q -11.1,-3.48 -22.58,-6 z"
           transform="translate(-6,-52.33)"
           fill="#2f2e41"
           id="path2573" />
        <path
           d="m 976.74,298.71 q 11.47,2.54 22.58,6 a 28.1,28.1 0 0 1 -4.51,0.37 29.5,29.5 0 0 1 -18.07,-6.37 z"
           transform="translate(-6,-52.33)"
           fill="#2f2e41"
           id="path2575" />
        <ellipse
           cx="321.81"
           cy="541.5"
           rx="35.790001"
           ry="46.849998"
           fill="#3f3d56"
           id="ellipse2577" />
        <ellipse
           cx="321.81"
           cy="484.23001"
           rx="35.790001"
           ry="46.849998"
           fill="#3f3d56"
           id="ellipse2579" />
        <ellipse
           cx="321.81"
           cy="426.97"
           rx="35.790001"
           ry="46.849998"
           fill="#3f3d56"
           id="ellipse2581" />
        <ellipse
           cx="321.81"
           cy="369.70999"
           rx="35.790001"
           ry="46.849998"
           fill="#3f3d56"
           id="ellipse2583" />
        <ellipse
           cx="321.81"
           cy="312.44"
           rx="35.790001"
           ry="46.849998"
           fill="#3f3d56"
           id="ellipse2585" />
        <ellipse
           cx="321.81"
           cy="255.17999"
           rx="35.790001"
           ry="46.849998"
           fill="#3f3d56"
           id="ellipse2587" />
        <ellipse
           cx="321.81"
           cy="197.92"
           rx="35.790001"
           ry="46.849998"
           fill="#3f3d56"
           id="ellipse2589" />
        <ellipse
           cx="321.81"
           cy="152.5"
           rx="35.790001"
           ry="46.849998"
           fill="#3f3d56"
           id="ellipse2591" />
        <path
           d="m 312.65,105.12 a 39.72,39.72 0 0 0 -13.17,13.82 48.46,48.46 0 0 0 -3.17,6.37 58.37,58.37 0 0 0 -4.29,22.1 v 0.16 a 56.47,56.47 0 0 0 7.46,28.63 c 6.54,11.08 16.8,18.22 28.33,18.22 11.53,0 21.78,-7.14 28.33,-18.22 a 58.67,58.67 0 0 0 0,-57.26 c -0.7,-1.18 -1.44,-2.32 -2.21,-3.41 a 35.93,35.93 0 0 0 -16.07,-12.93 25.66,25.66 0 0 0 -2.69,-0.89 v 0 z"
           transform="translate(-6,-52.33)"
           fill="#3f3d56"
           id="path2593" />
        <path
           d="m 335.16,101.71 v 0 q 2.73,-0.33 5.48,-0.62 l 22.27,-1.67 a 56.16,56.16 0 0 1 -3.55,13 50.7,50.7 0 0 1 -3.23,6.52 c -6.55,11.08 -16.8,18.22 -28.33,18.22 a 28,28 0 0 1 -10.7,-2.13 36.23,36.23 0 0 1 -15.43,-12.69 c -0.77,-1.09 -1.51,-2.22 -2.2,-3.4 a 51,51 0 0 1 -4.56,-10.13 q 8.79,-2.07 17.73,-3.69 z"
           transform="translate(-6,-52.33)"
           fill="#3f3d56"
           id="path2595" />
        <ellipse
           cx="91.809998"
           cy="400.5"
           rx="35.790001"
           ry="46.849998"
           fill="#3f3d56"
           id="ellipse2597" />
        <ellipse
           cx="91.809998"
           cy="343.23001"
           rx="35.790001"
           ry="46.849998"
           fill="#3f3d56"
           id="ellipse2599" />
        <ellipse
           cx="91.809998"
           cy="285.97"
           rx="35.790001"
           ry="46.849998"
           fill="#3f3d56"
           id="ellipse2601" />
        <path
           d="m 133.6,281 a 56.5,56.5 0 0 1 -7.46,28.63 c -6.55,11.08 -16.8,18.23 -28.33,18.23 -9.33,0 -17.82,-4.68 -24.2,-12.33 v -0.07 a 43.53,43.53 0 0 1 -4.08,-5.83 c -0.61,-1 -1.18,-2.07 -1.72,-3.15 A 57.65,57.65 0 0 1 62,281 q 0,-2.6 0.21,-5.13 c 1.2,-1.92 2.41,-3.82 3.64,-5.72 2.55,-4 5.19,-7.85 7.9,-11.71 q 8.53,-12.18 18,-23.63 a 27.27,27.27 0 0 1 6,-0.67 c 11.53,0 21.78,7.14 28.33,18.23 A 56.53,56.53 0 0 1 133.6,281 Z"
           transform="translate(-6,-52.33)"
           fill="#3f3d56"
           id="path2603" />
        <path
           d="m 133.6,223.78 a 56.58,56.58 0 0 1 -7.46,28.63 c -6.55,11.08 -16.81,18.21 -28.33,18.21 -9.26,0 -17.69,-4.59 -24,-12.14 q 8.53,-12.18 18,-23.63 a 371.69,371.69 0 0 1 35.6,-37.45 57.3,57.3 0 0 1 6.19,26.38 z"
           transform="translate(-6,-52.33)"
           fill="#3f3d56"
           id="path2605" />
        <path
           d="m 309,840.87 q 17.14,3.32 34.83,5 18,1.76 36.53,1.76 a 376.28,376.28 0 0 0 51.33,-3.51 h 440.36 c 1.19,0.19 2.38,0.38 3.58,0.55 a 278.16,278.16 0 0 0 297.89,-170 c -7.81,-5.07 -15.67,-10 -23.62,-14.83 -7.95,-4.83 -16.08,-9.4 -24.4,-13.75 -1.25,-0.67 -2.51,-1.32 -3.78,-2 a 331.31,331.31 0 0 0 -47.65,-20.11 c -7.1,-2.33 -14.26,-4.35 -21.46,-6 q -5.11,-1.19 -10.25,-2.12 -6.46,-1.19 -13,-1.94 a 176,176 0 0 0 -34.42,-0.74 v 0 q -3.16,0.24 -6.34,0.63 -6.11,0.71 -12.19,1.92 -7.5,1.5 -14.76,3.68 c -41.7,12.39 -77.82,40.08 -115.22,63.18 l -1.43,0.89 a 569.75,569.75 0 0 1 -123.52,56.65 q -12.11,3.9 -24.38,7.26 -14,3.84 -28.1,7 c -1.79,0.4 -3.59,0.79 -5.38,1.16 q -10.79,2.31 -21.66,4.18 a 578.73,578.73 0 0 1 -133.84,7.52 q -10,-0.6 -20.05,-1.57 -13.31,-1.28 -26.54,-3.21 v 0 l -1.82,-0.26 c -7.63,-1.13 -15.26,-2.42 -22.88,-3.71 -9.14,-1.54 -18.28,-3.06 -27.43,-4.3 -3.1,-0.43 -6.19,-0.81 -9.29,-1.16 a 241.73,241.73 0 0 0 -29.35,-1.62 c -1.55,0 -3.1,0.06 -4.66,0.13 -16.73,0.65 -33.7,3.9 -48.84,10.61 l -0.86,0.38 a 91.7,91.7 0 0 0 -22.13,13.91 q -2.86,2.44 -5.52,5.18 c -12.92,13.33 -20.65,29.68 -27,46.78 a 368.22,368.22 0 0 0 39,10.7 z"
           transform="translate(-6,-52.33)"
           fill="#2f2e41"
           id="path2607" />
        <circle
           cx="389"
           cy="249.62"
           r="2"
           fill="#ffffff"
           opacity="0.6"
           id="circle2609" />
        <circle
           cx="186"
           cy="251.62"
           r="2"
           fill="#ffffff"
           opacity="0.6"
           id="circle2611" />
        <circle
           cx="615"
           cy="355.62"
           r="2"
           fill="#ffffff"
           opacity="0.6"
           id="circle2613" />
        <path
           d="m 309,840.87 a 108.41,108.41 0 0 0 3.59,-27.79 c 0,-2.42 -0.09,-4.82 -0.24,-7.2 a 108.89,108.89 0 0 0 4.65,-31.66 111.26,111.26 0 0 0 -0.61,-11.61 c 0,-0.21 -0.05,-0.43 -0.07,-0.64 a 107.37,107.37 0 0 0 -11,-36.77 l -45.32,14.12 -17.55,5.46 13.23,-7.78 42,-24.68 a 108.75,108.75 0 0 0 -81.74,-46.59 109.39,109.39 0 0 0 -8.48,-11.23 l -34.89,10.85 -55.57,17.26 47.68,-28 L 191.1,639 a 108.77,108.77 0 0 0 -141.54,7.93 v 0 l -0.62,0.61 a 375.93,375.93 0 0 0 119.64,134.5 372,372 0 0 0 132.12,57.14 z"
           transform="translate(-6,-52.33)"
           fill="#2f2e41"
           id="path2617" />
        <path
           d="m 516.19,844.16 h -83.81 c 9.8,-16.13 24.93,-26.48 41.91,-26.48 16.98,0 32.11,10.32 41.9,26.48 z"
           transform="translate(-6,-52.33)"
           fill="#3f3d56"
           id="path2619" />
        <path
           d="m 516.19,844.16 h -83.81 c 9.8,-16.13 24.93,-26.48 41.91,-26.48 16.98,0 32.11,10.32 41.9,26.48 z"
           transform="translate(-6,-52.33)"
           opacity="0.1"
           id="path2621" />
        <path
           d="m 309,840.87 q 17.14,3.32 34.83,5 18,1.76 36.53,1.76 a 376.28,376.28 0 0 0 51.33,-3.51 h 194.69 a 108.94,108.94 0 0 0 11.18,-48.08 c 0,-2.42 -0.09,-4.82 -0.24,-7.2 A 108.61,108.61 0 0 0 642,759.8 c 0,-0.86 0,-1.72 0,-2.58 a 108.32,108.32 0 0 0 -11.65,-49 l -63,19.58 55.26,-32.49 a 108.75,108.75 0 0 0 -81.74,-46.59 q -2,-3.09 -4.27,-6 c -0.41,-0.54 -0.83,-1.08 -1.25,-1.61 q -1.44,-1.83 -3,-3.59 l -2.54,0.79 -87.81,27.3 72.38,-42.61 1.72,-1 a 108.82,108.82 0 0 0 -83.51,-21 c -1.66,0.25 -3.31,0.56 -4.95,0.91 a 108.3,108.3 0 0 0 -40.7,17.8 109,109 0 0 0 -42.05,60.29 l 23,26.45 8.34,9.61 18.64,21.46 14.54,16.73 12.95,14.91 -22.26,-16.05 -31.25,-22.57 -30.64,-22.13 a 109.13,109.13 0 0 0 -27.74,28.59 108.06,108.06 0 0 0 -16.21,39.53 109.41,109.41 0 0 0 6.44,62.66 z"
           transform="translate(-6,-52.33)"
           fill="#2f2e41"
           id="path2623" />
        <path
           d="m 682.08,807.48 c 6.45,-10.71 0.35,-24.48 -6.93,-34.63 -7.28,-10.15 -16.22,-20.79 -15.44,-33.25 1.13,-17.92 20.66,-27.62 36.31,-36.41 a 168.85,168.85 0 0 0 32.17,-23.48 c 3.91,-3.64 7.71,-7.55 10.12,-12.31 3.47,-6.86 3.76,-14.84 3.92,-22.54 Q 743,606.44 742,568 Z"
           transform="translate(-6,-52.33)"
           fill="#2f2e41"
           id="path2625" />
        <path
           d="m 1097.84,524.13 q 5.65,12.78 11.09,25.65 9.51,22.54 18.35,45.35 c 2.78,7.17 5.55,14.66 5,22.33 -0.42,5.33 -2.44,10.39 -4.68,15.24 l -0.21,0.46 q -2.61,5.61 -5.62,11 a 167.39,167.39 0 0 1 -11.13,17.38 q -1.87,2.58 -3.85,5.08 c -5.14,6.51 -11,13.52 -15.19,20.85 -3.38,5.86 -5.72,11.93 -5.84,18.12 a 24.69,24.69 0 0 0 1.31,8.52 c 4,11.83 16.34,18.25 26.94,24.87 a 57.09,57.09 0 0 1 13.46,11.29"
           transform="translate(-6,-52.33)"
           fill="none"
           stroke="#2f2e41"
           stroke-miterlimit="10"
           stroke-width="4"
           id="path2627" />
        <circle
           cx="1092.72"
           cy="471.38"
           r="28"
           fill="#2f2e41"
           id="circle2629" />
        <circle
           cx="1142.21"
           cy="518.04999"
           r="28"
           fill="#2f2e41"
           id="circle2631" />
        <circle
           cx="1093.46"
           cy="583.53998"
           r="28"
           fill="#2f2e41"
           id="circle2633" />
        <circle
           cx="1107.7"
           cy="652.28998"
           r="28"
           fill="#2f2e41"
           id="circle2635" />
        <path
           d="m 866.55,712.39 c 1.88,-12.35 -9,-22.76 -19.59,-29.38 C 836.37,676.39 824,670 820,658.13 c -5.77,-17 8.59,-33.39 19.72,-47.48 a 168.43,168.43 0 0 0 20.81,-34 c 2.24,-4.85 4.26,-9.91 4.68,-15.23 0.6,-7.67 -2.17,-15.16 -5,-22.33 q -13.87,-35.85 -29.44,-71"
           transform="translate(-6,-52.33)"
           fill="none"
           stroke="#2f2e41"
           stroke-miterlimit="10"
           stroke-width="4"
           id="path2637" />
        <circle
           cx="825.71997"
           cy="415.38"
           r="28"
           fill="#2f2e41"
           id="circle2639" />
        <circle
           cx="875.21002"
           cy="462.04999"
           r="28"
           fill="#2f2e41"
           id="circle2641" />
        <circle
           cx="826.46002"
           cy="527.53998"
           r="28"
           fill="#2f2e41"
           id="circle2643" />
        <circle
           cx="840.70001"
           cy="596.28998"
           r="28"
           fill="#2f2e41"
           id="circle2645" />
        <path
           d="m 376.86,618.17 c 2.92,-4.39 0.62,-10.31 -2.25,-14.73 -2.87,-4.42 -6.44,-9.06 -5.87,-14.3 0.81,-7.53 9.23,-11.24 16,-14.65 a 71,71 0 0 0 14,-9.27 19.29,19.29 0 0 0 4.51,-5 c 1.59,-2.83 1.86,-6.19 2.08,-9.42 q 1.08,-16.18 1.38,-32.39"
           transform="translate(-6,-52.33)"
           fill="none"
           stroke="#3f3d56"
           stroke-miterlimit="10"
           stroke-width="4"
           id="path2647" />
        <circle
           cx="401.12"
           cy="466.07999"
           r="11.81"
           fill="#3f3d56"
           id="circle2649" />
        <circle
           cx="411.73001"
           cy="492.73999"
           r="11.81"
           fill="#3f3d56"
           id="circle2651" />
        <circle
           cx="381.42999"
           cy="509.10001"
           r="11.81"
           fill="#3f3d56"
           id="circle2653" />
        <circle
           cx="374.63"
           cy="537.91998"
           r="11.81"
           fill="#3f3d56"
           id="circle2655" />
        <path
           d="m 816.61777,270.5624 12.97057,8.20283 -7.88267,-14.28649 a 12.791418,12.750686 0 0 1 7.84684,-2.79777 h 0.21498 a 14.332121,14.286484 0 0 0 2.68727,-0.19048 l 4.39519,2.77396 -1.88707,-3.41686 a 15.705615,15.655606 0 0 0 7.70352,-5.82174 l 7.87072,4.97646 -4.98041,-9.01239 c 4.61016,-5.50029 10.74909,-8.88143 17.64045,-8.88143 8.18125,0 15.52646,4.8455 20.1844,12.41734 a 15.084557,15.036523 0 0 0 13.34081,7.14324 h 0.42997 c 9.04117,0 16.36251,10.21483 16.36251,22.81075 0,12.59591 -7.32134,22.81075 -16.36251,22.81075 a 12.218133,12.179227 0 0 1 -5.69703,-1.42865 23.647999,23.572698 0 0 0 -19.8022,-0.38097 20.841292,20.774929 0 0 1 -8.45595,1.80962 20.566593,20.501104 0 0 1 -8.3604,-1.7739 23.659942,23.584605 0 0 0 -19.63501,0.38097 12.194246,12.155416 0 0 1 -5.6373,1.39293 c -9.02924,0 -16.3625,-10.21484 -16.3625,-22.81075 a 29.082261,28.989658 0 0 1 3.41582,-13.91742 z"
           fill="#6c63ff"
           opacity="0.1"
           id="path2735-2"
           style="opacity:0.835017;fill:#f4ffff;fill-opacity:1;stroke-width:1.19244" />
        <path
           d="m 947.19087,231.65385 a 24.269057,24.191781 0 0 1 14.02159,1.52389 20.59048,20.524917 0 0 0 16.8283,0 23.647999,23.572699 0 0 1 19.80221,0.38097 12.325624,12.286378 0 0 0 5.69703,1.42865 c 8.026,0 14.7143,-8.05996 16.0997,-18.70339 a 15.275652,15.227012 0 0 1 -4.013,-4.30975 c -4.7057,-7.55993 -11.9434,-12.40543 -20.18436,-12.40543 -8.24097,0 -15.38314,4.76216 -20.08885,12.27447 a 15.526464,15.477024 0 0 1 -13.37665,7.26229 h -0.20304 c -6.3539,0 -11.89566,5.10742 -14.58293,12.5483 z"
           fill="#6c63ff"
           opacity="0.1"
           id="path2733-5-4"
           style="opacity:0.835017;fill:#f4ffff;fill-opacity:1;stroke-width:1.19244" />
        <path
           d="m 922.73072,198.283 12.97057,8.20283 -7.88267,-14.28649 a 12.791418,12.750686 0 0 1 7.84684,-2.79777 h 0.21498 a 14.332121,14.286484 0 0 0 2.68727,-0.19048 l 4.39519,2.77396 -1.88707,-3.41686 a 15.705615,15.655607 0 0 0 7.70352,-5.82174 l 7.87072,4.97646 -4.98041,-9.01239 c 4.61016,-5.50029 10.74909,-8.88143 17.64045,-8.88143 8.18125,0 15.52646,4.8455 20.1844,12.41734 a 15.084557,15.036524 0 0 0 13.34079,7.14324 h 0.43 c 9.0412,0 16.3625,10.21483 16.3625,22.81075 0,12.59591 -7.3213,22.81075 -16.3625,22.81075 a 12.218133,12.179228 0 0 1 -5.69704,-1.42865 23.647999,23.572699 0 0 0 -19.8022,-0.38097 20.841292,20.774929 0 0 1 -8.45595,1.80962 20.566593,20.501104 0 0 1 -8.3604,-1.7739 23.659942,23.584605 0 0 0 -19.63501,0.38097 12.194246,12.155417 0 0 1 -5.6373,1.39293 c -9.02924,0 -16.3625,-10.21484 -16.3625,-22.81075 a 29.082261,28.989659 0 0 1 3.41582,-13.91742 z"
           fill="#6c63ff"
           opacity="0.1"
           id="path2735-2-1"
           style="opacity:0.835017;fill:#f4ffff;fill-opacity:1;stroke-width:1.19244" />
        <g
           id="g3027"
           transform="matrix(0.5014999,0,0,0.63002083,589.96306,-86.798479)">
          <path
             d="m 583.47969,324.89424 c -85.94407,0 -147.651,55.13938 -147.651,183.79791 0,145.813 61.70691,184.41057 147.651,184.41057 85.94409,0 151.327,-42.27352 151.327,-184.41057 -5e-5,-151.9396 -65.38293,-183.79791 -151.327,-183.79791 z m 0.56495,319.80837 c -59.52686,0 -90.62592,-34.92288 -90.62592,-135.9163 0,-89.11185 32.37209,-136.10461 91.899,-136.10461 59.52691,0 91.899,30.86774 91.899,136.10461 -9e-5,98.44736 -33.64522,135.9163 -93.17208,135.9163 z"
             transform="translate(-63.054,-157.8845)"
             fill="#2f2e41"
             id="path6" />
          <path
             d="M 384.36531,591.40121 H 348.831 V 486.76183 A 20.95585,20.95585 0 0 0 327.87517,465.806 h -8.32638 a 20.95585,20.95585 0 0 0 -20.95586,20.95585 V 591.40121 H 198.36285 a 11.96327,11.96327 0 0 1 -10.57763,-17.552 L 293.86762,373.06887 A 20.95585,20.95585 0 0 0 284.28724,344.33 l -6.26231,-2.9572 a 20.95585,20.95585 0 0 0 -27.4293,9.07005 L 121.21416,592.4754 a 28.41578,28.41578 0 0 0 -3.35584,13.39612 v 0 a 28.41583,28.41583 0 0 0 28.41584,28.41583 h 152.31877 v 66.16727 a 25.119,25.119 0 0 0 25.119,25.119 h 5e-5 a 25.119,25.119 0 0 0 25.119,-25.119 v -66.16723 h 35.53428 a 21.44307,21.44307 0 0 0 21.44307,-21.44307 v 0 a 21.44307,21.44307 0 0 0 -21.44302,-21.44311 z"
             transform="translate(-63.054,-157.8845)"
             fill="#6c63ff"
             id="path8" />
          <path
             d="m 1042.3618,591.40121 h -35.5342 V 486.76183 A 20.95585,20.95585 0 0 0 985.87169,465.806 h -8.32638 a 20.95585,20.95585 0 0 0 -20.95586,20.95585 V 591.40121 H 856.35937 a 11.96326,11.96326 0 0 1 -10.57763,-17.552 L 951.86413,373.06891 A 20.95586,20.95586 0 0 0 942.28376,344.33 l -6.26231,-2.9572 a 20.95586,20.95586 0 0 0 -27.42931,9.07005 L 779.21068,592.4754 a 28.41578,28.41578 0 0 0 -3.35584,13.39612 v 0 a 28.41583,28.41583 0 0 0 28.41583,28.41583 h 152.31878 v 66.16727 a 25.119,25.119 0 0 0 25.119,25.119 v 0 a 25.119,25.119 0 0 0 25.11905,-25.119 v -66.16723 h 35.5342 a 21.44307,21.44307 0 0 0 21.4431,-21.44307 v 0 a 21.44307,21.44307 0 0 0 -21.443,-21.44311 z"
             transform="translate(-63.054,-157.8845)"
             fill="#6c63ff"
             id="path10" />
          <path
             d="M 394.16787,579.148 H 358.63358 V 474.50864 a 20.95585,20.95585 0 0 0 -20.95585,-20.95586 h -8.32638 a 20.95586,20.95586 0 0 0 -20.95586,20.95586 V 579.148 H 208.16541 A 11.96327,11.96327 0 0 1 197.58778,561.596 L 303.67017,360.81572 a 20.95586,20.95586 0 0 0 -9.58037,-28.73893 l -6.26231,-2.9572 a 20.95586,20.95586 0 0 0 -27.42931,9.07 L 131.01672,580.2222 a 28.41582,28.41582 0 0 0 -3.35584,13.39613 v 0 a 28.41583,28.41583 0 0 0 28.41583,28.41583 h 152.31878 v 66.16727 a 25.119,25.119 0 0 0 25.119,25.119 h 5e-5 a 25.119,25.119 0 0 0 25.119,-25.119 V 622.0342 h 35.53429 a 21.44307,21.44307 0 0 0 21.44307,-21.44307 v 0 A 21.44307,21.44307 0 0 0 394.16787,579.148 Z"
             transform="translate(-63.054,-157.8845)"
             fill="none"
             stroke="#3f3d56"
             stroke-miterlimit="10"
             id="path12" />
          <path
             d="m 1060.7416,579.148 h -35.5343 V 474.50864 a 20.95586,20.95586 0 0 0 -20.9558,-20.95586 h -8.3264 a 20.95586,20.95586 0 0 0 -20.95586,20.95586 V 579.148 H 874.73916 A 11.96327,11.96327 0 0 1 864.16153,561.596 L 970.24392,360.81572 a 20.95586,20.95586 0 0 0 -9.58037,-28.73893 l -6.26231,-2.9572 a 20.95586,20.95586 0 0 0 -27.42931,9.07 L 797.59047,580.2222 a 28.41582,28.41582 0 0 0 -3.35584,13.39613 v 0 a 28.41583,28.41583 0 0 0 28.41583,28.41583 h 152.31878 v 66.16727 a 25.119,25.119 0 0 0 25.11896,25.119 v 0 a 25.119,25.119 0 0 0 25.119,-25.119 V 622.0342 h 35.5343 a 21.44307,21.44307 0 0 0 21.4431,-21.44307 v 0 a 21.44307,21.44307 0 0 0 -21.443,-21.44313 z"
             transform="translate(-63.054,-157.8845)"
             fill="none"
             stroke="#3f3d56"
             stroke-miterlimit="10"
             id="path14" />
          <path
             d="m 603.0848,313.86637 c -85.94407,0 -147.651,55.13937 -147.651,183.79791 0,145.813 61.70691,184.41057 147.651,184.41057 85.94409,0 151.327,-42.27352 151.327,-184.41057 -5e-5,-151.93961 -65.38293,-183.79791 -151.327,-183.79791 z m 0.565,319.80836 c -59.52686,0 -90.62592,-34.92287 -90.62592,-135.91629 0,-89.11185 32.37209,-136.10461 91.899,-136.10461 59.52691,0 91.899,30.86774 91.899,136.10461 -1.4e-4,98.44735 -33.64527,135.91629 -93.17213,135.91629 z"
             fill="none"
             stroke="#3f3d56"
             stroke-miterlimit="10"
             id="path16"
             transform="translate(-63.054,-157.8845)" />
        </g>
        <path
           d="m 705.13041,244.17198 q 4.21001,9.46 7.89001,19.2 c -1.52,0.73 -3,1.44 -4.56,2.16 -35.17,16.41 -70.72,31.21 -106.55,44.07 q 32.73,-21.33 65.48,-41.92 18.86,-11.87 37.73999,-23.51 z"
           fill="#6c63ff"
           opacity="0.3"
           id="path2551"
           style="stroke-width:1" />
        <ellipse
           cx="755.51038"
           cy="260.45197"
           fill="#ffffff"
           opacity="0.6"
           id="circle2615"
           rx="1.9999999"
           ry="2"
           style="stroke-width:1" />
        <path
           d="m 829.58832,278.76522 a 24.269057,24.191781 0 0 1 14.0216,1.5239 20.59048,20.524917 0 0 0 16.8283,0 23.647999,23.572699 0 0 1 19.8022,0.38096 12.325624,12.286378 0 0 0 5.697,1.42866 c 8.026,0 14.7143,-8.05996 16.0998,-18.7034 a 15.275652,15.227012 0 0 1 -4.013,-4.30975 c -4.7057,-7.55993 -11.9434,-12.40543 -20.1844,-12.40543 -8.241,0 -15.3832,4.76216 -20.0889,12.27447 a 15.526464,15.477024 0 0 1 -13.3766,7.26229 h -0.2031 c -6.3539,0 -11.8956,5.10742 -14.5829,12.5483 z"
           fill="#6c63ff"
           opacity="0.1"
           id="path2733-5"
           style="opacity:0.835017;fill:#f4ffff;fill-opacity:1;stroke-width:1.19244" />
        <path
           d="m 921.40942,302.84986 a 24.269057,24.191782 0 0 1 14.0216,1.52389 20.59048,20.524918 0 0 0 16.8283,0 23.647999,23.5727 0 0 1 19.8022,0.38097 12.325624,12.286378 0 0 0 5.697,1.42865 c 8.026,0 14.7144,-8.05996 16.0998,-18.70339 a 15.275652,15.227013 0 0 1 -4.013,-4.30975 c -4.7057,-7.55994 -11.9434,-12.40544 -20.1844,-12.40544 -8.241,0 -15.3831,4.76216 -20.0888,12.27448 a 15.526464,15.477024 0 0 1 -13.3767,7.26229 h -0.203 c -6.3539,0 -11.8957,5.10742 -14.583,12.5483 z"
           fill="#6c63ff"
           opacity="0.1"
           id="path2733-5-45"
           style="opacity:0.835017;fill:#f4ffff;fill-opacity:1;stroke-width:1.19244" />
        <path
           d="m 896.94932,269.47901 12.9706,8.20282 -7.8827,-14.28649 a 12.791418,12.750686 0 0 1 7.8468,-2.79777 h 0.215 a 14.332121,14.286484 0 0 0 2.6873,-0.19048 l 4.3952,2.77396 -1.8871,-3.41686 a 15.705615,15.655607 0 0 0 7.7035,-5.82174 l 7.8707,4.97646 -4.9804,-9.01239 c 4.6102,-5.50029 10.7491,-8.88143 17.6405,-8.88143 8.1812,0 15.5264,4.8455 20.1844,12.41734 a 15.084557,15.036525 0 0 0 13.3408,7.14324 h 0.43 c 9.0411,0 16.3625,10.21483 16.3625,22.81076 0,12.59591 -7.3214,22.81075 -16.3625,22.81075 a 12.218133,12.179228 0 0 1 -5.6971,-1.42865 23.647999,23.5727 0 0 0 -19.8022,-0.38097 20.841292,20.774929 0 0 1 -8.4559,1.80962 20.566593,20.501104 0 0 1 -8.3604,-1.7739 23.659942,23.584605 0 0 0 -19.635,0.38097 12.194246,12.155417 0 0 1 -5.6373,1.39293 c -9.0293,0 -16.3625,-10.21484 -16.3625,-22.81075 a 29.082261,28.98966 0 0 1 3.4158,-13.91742 z"
           fill="#6c63ff"
           opacity="0.1"
           id="path2735-2-6"
           style="opacity:0.835017;fill:#f4ffff;fill-opacity:1;stroke-width:1.19244" />
        <path
           d="m 739.91839,307.07078 a 24.269057,24.191782 0 0 1 14.02159,1.5239 20.59048,20.524918 0 0 0 16.8283,0 23.647999,23.5727 0 0 1 19.80224,0.38096 12.325624,12.286378 0 0 0 5.697,1.42866 c 8.026,0 14.7143,-8.05997 16.0997,-18.7034 a 15.275652,15.227013 0 0 1 -4.013,-4.30975 c -4.7057,-7.55994 -11.9434,-12.40543 -20.1844,-12.40543 -8.2409,0 -15.3831,4.76215 -20.08881,12.27447 a 15.526464,15.477024 0 0 1 -13.37665,7.26229 h -0.20304 c -6.3539,0 -11.89566,5.10742 -14.58293,12.5483 z"
           fill="#6c63ff"
           opacity="0.1"
           id="path2733-5-7"
           style="opacity:0.835017;fill:#f4ffff;fill-opacity:1;stroke-width:1.19244" />
        <path
           d="m 715.45824,273.69993 12.97057,8.20283 -7.88267,-14.2865 a 12.791418,12.750686 0 0 1 7.84684,-2.79777 h 0.21498 a 14.332121,14.286484 0 0 0 2.68727,-0.19048 l 4.39519,2.77396 -1.88707,-3.41686 a 15.705615,15.655607 0 0 0 7.70352,-5.82174 l 7.87072,4.97646 -4.98041,-9.01239 c 4.61016,-5.50029 10.74909,-8.88143 17.64045,-8.88143 8.18125,0 15.52649,4.8455 20.18439,12.41734 a 15.084557,15.036525 0 0 0 13.3408,7.14324 h 0.43 c 9.0412,0 16.3625,10.21484 16.3625,22.81076 0,12.59591 -7.3213,22.81075 -16.3625,22.81075 a 12.218133,12.179228 0 0 1 -5.697,-1.42865 23.647999,23.5727 0 0 0 -19.80224,-0.38097 20.841292,20.774929 0 0 1 -8.45595,1.80962 20.566593,20.501104 0 0 1 -8.3604,-1.77389 23.659942,23.584605 0 0 0 -19.63501,0.38097 12.194246,12.155417 0 0 1 -5.6373,1.39292 c -9.02924,0 -16.3625,-10.21484 -16.3625,-22.81075 a 29.082261,28.98966 0 0 1 3.41582,-13.91742 z"
           fill="#6c63ff"
           opacity="0.1"
           id="path2735-2-8"
           style="opacity:0.835017;fill:#f4ffff;fill-opacity:1;stroke-width:1.19244" />
        <path
           d="m 1011.4919,288.06938 a 24.269057,24.191782 0 0 1 14.0216,1.5239 20.59048,20.524918 0 0 0 16.8283,0 23.647999,23.5727 0 0 1 19.8022,0.38096 12.325624,12.286378 0 0 0 5.697,1.42866 c 8.026,0 14.7144,-8.05997 16.0998,-18.70341 a 15.275652,15.227013 0 0 1 -4.013,-4.30975 c -4.7057,-7.55993 -11.9434,-12.40543 -20.1844,-12.40543 -8.241,0 -15.3831,4.76216 -20.0889,12.27447 a 15.526464,15.477024 0 0 1 -13.3766,7.26229 h -0.203 c -6.3539,0 -11.8957,5.10742 -14.583,12.54831 z"
           fill="#6c63ff"
           opacity="0.1"
           id="path2733-5-3"
           style="opacity:0.835017;fill:#f4ffff;fill-opacity:1;stroke-width:1.19244" />
        <path
           d="m 655.97993,297.27264 a 24.269057,24.191782 0 0 1 14.02159,1.52389 20.59048,20.524918 0 0 0 16.8283,0 23.647999,23.5727 0 0 1 19.80222,0.38097 12.325624,12.286378 0 0 0 5.697,1.42865 c 8.02601,0 14.71433,-8.05996 16.09977,-18.70339 a 15.275652,15.227013 0 0 1 -4.013,-4.30975 c -4.70572,-7.55993 -11.94344,-12.40544 -20.18441,-12.40544 -8.24097,0 -15.38314,4.76217 -20.08885,12.27447 a 15.526464,15.477024 0 0 1 -13.37664,7.2623 h -0.20305 c -6.3539,0 -11.89566,5.10742 -14.58293,12.5483 z"
           fill="#6c63ff"
           opacity="0.1"
           id="path2733-5-1"
           style="opacity:0.835017;fill:#f4ffff;fill-opacity:1;stroke-width:1.19244" />
        <path
           d="m 628.88545,280.24933 12.97056,8.20283 -7.88266,-14.28649 a 12.791418,12.750686 0 0 1 7.84683,-2.79777 h 0.21499 a 14.332121,14.286484 0 0 0 2.68727,-0.19048 l 4.39519,2.77396 -1.88707,-3.41686 a 15.705615,15.655607 0 0 0 7.70352,-5.82174 l 7.87072,4.97646 -4.98041,-9.01239 c 4.61015,-5.50029 10.74909,-8.88143 17.64044,-8.88143 8.18125,0 15.52646,4.8455 20.1844,12.41734 a 15.084557,15.036525 0 0 0 13.34082,7.14324 h 0.42997 c 9.04115,0 16.3625,10.21483 16.3625,22.81075 0,12.59591 -7.32135,22.81075 -16.3625,22.81075 a 12.218133,12.179228 0 0 1 -5.69703,-1.42865 23.647999,23.5727 0 0 0 -19.80221,-0.38097 20.841292,20.774929 0 0 1 -8.45595,1.80962 20.566593,20.501104 0 0 1 -8.36039,-1.7739 23.659942,23.584605 0 0 0 -19.63501,0.38097 12.194246,12.155417 0 0 1 -5.63731,1.39293 c -9.02923,0 -16.36249,-10.21484 -16.36249,-22.81075 a 29.082261,28.98966 0 0 1 3.41582,-13.91742 z"
           fill="#6c63ff"
           opacity="0.1"
           id="path2735-2-84"
           style="opacity:0.835017;fill:#f4ffff;fill-opacity:1;stroke-width:1.19244" />
        <path
           d="m 990.6506,274.89009 12.9706,8.20283 -7.8826,-14.28649 a 12.791418,12.750686 0 0 1 7.8468,-2.79777 h 0.215 a 14.332121,14.286484 0 0 0 2.6873,-0.19048 l 4.3952,2.77396 -1.8871,-3.41686 a 15.705615,15.655607 0 0 0 7.7035,-5.82174 l 7.8707,4.97646 -4.9804,-9.01239 c 4.6102,-5.50029 10.7491,-8.88143 17.6405,-8.88143 8.1812,0 15.5264,4.8455 20.1844,12.41734 a 15.084557,15.036525 0 0 0 13.3408,7.14324 h 0.4299 c 9.0412,0 16.3626,10.21483 16.3626,22.81075 0,12.59591 -7.3214,22.81075 -16.3626,22.81075 a 12.218133,12.179228 0 0 1 -5.697,-1.42865 23.647999,23.5727 0 0 0 -19.8022,-0.38097 20.841292,20.774929 0 0 1 -8.4559,1.80962 20.566593,20.501104 0 0 1 -8.3604,-1.77389 23.659942,23.584605 0 0 0 -19.635,0.38097 12.194246,12.155417 0 0 1 -5.6373,1.39292 c -9.0293,0 -16.3626,-10.21484 -16.3626,-22.81075 a 29.082261,28.98966 0 0 1 3.4158,-13.91742 z"
           fill="#6c63ff"
           opacity="0.1"
           id="path2735-2-15"
           style="opacity:0.835017;fill:#f4ffff;fill-opacity:1;stroke-width:1.19244" />
      </g>
    </g>
  </g>
</svg>
